M48
; DRILL file {KiCad 5.1.6+dfsg1-1~bpo10+1} date Thu Jul 29 14:16:11 2021
; FORMAT={-:-/ absolute / metric / decimal}
; #@! TF.CreationDate,2021-07-29T14:16:11+02:00
; #@! TF.GenerationSoftware,Kicad,Pcbnew,5.1.6+dfsg1-1~bpo10+1
; #@! TF.FileFunction,Plated,1,2,PTH
FMAT,2
METRIC
T1C0.400
T2C0.900
T3C1.000
T4C2.200
%
G90
G05
T1
X99.0Y-104.0
X99.0Y-117.907
X102.286Y-104.318
X103.175Y-106.682
X103.302Y-111.049
X104.0Y-123.0
X107.239Y-111.303
X107.366Y-105.588
X107.493Y-103.429
X107.5Y-123.0
X109.525Y-108.714
X109.525Y-113.794
X110.16Y-106.096
X111.557Y-110.414
X112.065Y-106.682
X113.237Y-121.668
X113.491Y-111.127
X113.999Y-119.89
X114.38Y-118.747
X117.78Y-104.65
X118.415Y-108.714
X118.415Y-113.794
X118.923Y-122.43
X119.177Y-102.921
X119.558Y-117.35
X121.336Y-107.366
X123.0Y-104.0
X123.0Y-107.5
X123.0Y-114.5
X123.0Y-118.0
X120.35Y-122.0
X120.833Y-120.833
X120.833Y-123.167
X122.0Y-120.35
X122.0Y-123.65
X123.167Y-120.833
X123.167Y-123.167
X123.65Y-122.0
X98.35Y-100.0
X98.833Y-98.833
X98.833Y-101.167
X100.0Y-98.35
X100.0Y-101.65
X101.167Y-98.833
X101.167Y-101.167
X101.65Y-100.0
X98.35Y-122.0
X98.833Y-120.833
X98.833Y-123.167
X100.0Y-120.35
X100.0Y-123.65
X101.167Y-120.833
X101.167Y-123.167
X101.65Y-122.0
X120.35Y-100.0
X120.833Y-98.833
X120.833Y-101.167
X122.0Y-98.35
X122.0Y-101.65
X123.167Y-98.833
X123.167Y-101.167
X123.65Y-100.0
T2
X115.56Y-100.0
X118.1Y-100.0
T3
X100.0Y-107.19
X100.0Y-109.73
X100.0Y-112.27
X100.0Y-114.81
X109.73Y-100.0
X112.27Y-100.0
X122.0Y-109.73
X122.0Y-112.27
T4
X122.0Y-122.0
X100.0Y-100.0
X100.0Y-122.0
X122.0Y-100.0
T0
M30
