%TF.GenerationSoftware,KiCad,Pcbnew,5.1.6+dfsg1-1~bpo10+1*%
%TF.CreationDate,2021-07-29T14:25:11+02:00*%
%TF.ProjectId,PW_Cond,50575f43-6f6e-4642-9e6b-696361645f70,rev?*%
%TF.SameCoordinates,Original*%
%TF.FileFunction,Legend,Bot*%
%TF.FilePolarity,Positive*%
%FSLAX46Y46*%
G04 Gerber Fmt 4.6, Leading zero omitted, Abs format (unit mm)*
G04 Created by KiCad (PCBNEW 5.1.6+dfsg1-1~bpo10+1) date 2021-07-29 14:25:11*
%MOMM*%
%LPD*%
G01*
G04 APERTURE LIST*
%TA.AperFunction,Profile*%
%ADD10C,0.050000*%
%TD*%
%ADD11C,0.010000*%
G04 APERTURE END LIST*
D10*
X122000000Y-126000000D02*
X100000000Y-126000000D01*
X96000000Y-100000000D02*
G75*
G02*
X100000000Y-96000000I4000000J0D01*
G01*
X100000000Y-126000000D02*
G75*
G02*
X96000000Y-122000000I0J4000000D01*
G01*
X126000000Y-122000000D02*
G75*
G02*
X122000000Y-126000000I-4000000J0D01*
G01*
X122000000Y-96000000D02*
G75*
G02*
X126000000Y-100000000I0J-4000000D01*
G01*
X100000000Y-96000000D02*
X122000000Y-96000000D01*
X96000000Y-100000000D02*
X96000000Y-122000000D01*
X126000000Y-100000000D02*
X126000000Y-122000000D01*
D11*
%TO.C,S1*%
G36*
X113273043Y-117026571D02*
G01*
X113176768Y-117050809D01*
X113090184Y-117093641D01*
X113015373Y-117153419D01*
X112954418Y-117228494D01*
X112909399Y-117317220D01*
X112883136Y-117413530D01*
X112877286Y-117510795D01*
X112892140Y-117604654D01*
X112925840Y-117692511D01*
X112976528Y-117771770D01*
X113042345Y-117839836D01*
X113121434Y-117894112D01*
X113211934Y-117932002D01*
X113263200Y-117944426D01*
X113307698Y-117951947D01*
X113341999Y-117954919D01*
X113374960Y-117953094D01*
X113415434Y-117946225D01*
X113448531Y-117939250D01*
X113541947Y-117907741D01*
X113625619Y-117856617D01*
X113697665Y-117787429D01*
X113756200Y-117701728D01*
X113770148Y-117674489D01*
X113786586Y-117638122D01*
X113796894Y-117607582D01*
X113802460Y-117575450D01*
X113804669Y-117534307D01*
X113804948Y-117488222D01*
X113800861Y-117403865D01*
X113787446Y-117334586D01*
X113762256Y-117273961D01*
X113722846Y-117215567D01*
X113684298Y-117171302D01*
X113612406Y-117105484D01*
X113537313Y-117060053D01*
X113454562Y-117032850D01*
X113376928Y-117022576D01*
X113273043Y-117026571D01*
G37*
X113273043Y-117026571D02*
X113176768Y-117050809D01*
X113090184Y-117093641D01*
X113015373Y-117153419D01*
X112954418Y-117228494D01*
X112909399Y-117317220D01*
X112883136Y-117413530D01*
X112877286Y-117510795D01*
X112892140Y-117604654D01*
X112925840Y-117692511D01*
X112976528Y-117771770D01*
X113042345Y-117839836D01*
X113121434Y-117894112D01*
X113211934Y-117932002D01*
X113263200Y-117944426D01*
X113307698Y-117951947D01*
X113341999Y-117954919D01*
X113374960Y-117953094D01*
X113415434Y-117946225D01*
X113448531Y-117939250D01*
X113541947Y-117907741D01*
X113625619Y-117856617D01*
X113697665Y-117787429D01*
X113756200Y-117701728D01*
X113770148Y-117674489D01*
X113786586Y-117638122D01*
X113796894Y-117607582D01*
X113802460Y-117575450D01*
X113804669Y-117534307D01*
X113804948Y-117488222D01*
X113800861Y-117403865D01*
X113787446Y-117334586D01*
X113762256Y-117273961D01*
X113722846Y-117215567D01*
X113684298Y-117171302D01*
X113612406Y-117105484D01*
X113537313Y-117060053D01*
X113454562Y-117032850D01*
X113376928Y-117022576D01*
X113273043Y-117026571D01*
G36*
X104813493Y-119472245D02*
G01*
X104813474Y-119706662D01*
X104813448Y-119919603D01*
X104813375Y-120112168D01*
X104813218Y-120285459D01*
X104812936Y-120440576D01*
X104812491Y-120578620D01*
X104811844Y-120700692D01*
X104810955Y-120807894D01*
X104809787Y-120901326D01*
X104808299Y-120982090D01*
X104806454Y-121051286D01*
X104804211Y-121110015D01*
X104801531Y-121159379D01*
X104798377Y-121200478D01*
X104794708Y-121234413D01*
X104790487Y-121262286D01*
X104785673Y-121285198D01*
X104780227Y-121304249D01*
X104774112Y-121320540D01*
X104767288Y-121335173D01*
X104759715Y-121349249D01*
X104751355Y-121363868D01*
X104746161Y-121372974D01*
X104711896Y-121433689D01*
X105570045Y-121433689D01*
X105570045Y-121337733D01*
X105570776Y-121294370D01*
X105572728Y-121261205D01*
X105575537Y-121243424D01*
X105576779Y-121241778D01*
X105588201Y-121248662D01*
X105610916Y-121266505D01*
X105633615Y-121285879D01*
X105688200Y-121326614D01*
X105757679Y-121367617D01*
X105834730Y-121405123D01*
X105912035Y-121435364D01*
X105942887Y-121445012D01*
X106011384Y-121459578D01*
X106094236Y-121469539D01*
X106183629Y-121474583D01*
X106271752Y-121474396D01*
X106350793Y-121468666D01*
X106388489Y-121462858D01*
X106526586Y-121424797D01*
X106653887Y-121367073D01*
X106769708Y-121290211D01*
X106873363Y-121194739D01*
X106964167Y-121081179D01*
X107030969Y-120970381D01*
X107085836Y-120853625D01*
X107127837Y-120734276D01*
X107157833Y-120608283D01*
X107176689Y-120471594D01*
X107185268Y-120320158D01*
X107185994Y-120242711D01*
X107183900Y-120185934D01*
X106354783Y-120185934D01*
X106354576Y-120279002D01*
X106351663Y-120366692D01*
X106346000Y-120443772D01*
X106337545Y-120505009D01*
X106334962Y-120517350D01*
X106303160Y-120624633D01*
X106261502Y-120711658D01*
X106209637Y-120778642D01*
X106147219Y-120825805D01*
X106073900Y-120853365D01*
X105989331Y-120861541D01*
X105893165Y-120850551D01*
X105829689Y-120834829D01*
X105780546Y-120816639D01*
X105726417Y-120790791D01*
X105685756Y-120767089D01*
X105615200Y-120720721D01*
X105615200Y-119570530D01*
X105682608Y-119526962D01*
X105761133Y-119486040D01*
X105845319Y-119459389D01*
X105930443Y-119447465D01*
X106011784Y-119450722D01*
X106084620Y-119469615D01*
X106116574Y-119485184D01*
X106174499Y-119528181D01*
X106223456Y-119584953D01*
X106264610Y-119657575D01*
X106299126Y-119748121D01*
X106328167Y-119858666D01*
X106329448Y-119864533D01*
X106339619Y-119926788D01*
X106347261Y-120004594D01*
X106352330Y-120092720D01*
X106354783Y-120185934D01*
X107183900Y-120185934D01*
X107178143Y-120029895D01*
X107156198Y-119834059D01*
X107120214Y-119655332D01*
X107070241Y-119493845D01*
X107006332Y-119349726D01*
X106928538Y-119223106D01*
X106836911Y-119114115D01*
X106731503Y-119022883D01*
X106686338Y-118991932D01*
X106585389Y-118935785D01*
X106482099Y-118896174D01*
X106372011Y-118872014D01*
X106250670Y-118862219D01*
X106158164Y-118863265D01*
X106028510Y-118874231D01*
X105915916Y-118896046D01*
X105817125Y-118929714D01*
X105728879Y-118976236D01*
X105680014Y-119010448D01*
X105650647Y-119032362D01*
X105628957Y-119047333D01*
X105620747Y-119051733D01*
X105619132Y-119040904D01*
X105617841Y-119010251D01*
X105616862Y-118962526D01*
X105616183Y-118900479D01*
X105615790Y-118826862D01*
X105615670Y-118744427D01*
X105615812Y-118655925D01*
X105616203Y-118564107D01*
X105616829Y-118471724D01*
X105617680Y-118381528D01*
X105618740Y-118296271D01*
X105619999Y-118218703D01*
X105621444Y-118151576D01*
X105623062Y-118097641D01*
X105624839Y-118059650D01*
X105625331Y-118052667D01*
X105632908Y-117982251D01*
X105644469Y-117927102D01*
X105662208Y-117879981D01*
X105688318Y-117833647D01*
X105694585Y-117824067D01*
X105719017Y-117787378D01*
X104813689Y-117787378D01*
X104813493Y-119472245D01*
G37*
X104813493Y-119472245D02*
X104813474Y-119706662D01*
X104813448Y-119919603D01*
X104813375Y-120112168D01*
X104813218Y-120285459D01*
X104812936Y-120440576D01*
X104812491Y-120578620D01*
X104811844Y-120700692D01*
X104810955Y-120807894D01*
X104809787Y-120901326D01*
X104808299Y-120982090D01*
X104806454Y-121051286D01*
X104804211Y-121110015D01*
X104801531Y-121159379D01*
X104798377Y-121200478D01*
X104794708Y-121234413D01*
X104790487Y-121262286D01*
X104785673Y-121285198D01*
X104780227Y-121304249D01*
X104774112Y-121320540D01*
X104767288Y-121335173D01*
X104759715Y-121349249D01*
X104751355Y-121363868D01*
X104746161Y-121372974D01*
X104711896Y-121433689D01*
X105570045Y-121433689D01*
X105570045Y-121337733D01*
X105570776Y-121294370D01*
X105572728Y-121261205D01*
X105575537Y-121243424D01*
X105576779Y-121241778D01*
X105588201Y-121248662D01*
X105610916Y-121266505D01*
X105633615Y-121285879D01*
X105688200Y-121326614D01*
X105757679Y-121367617D01*
X105834730Y-121405123D01*
X105912035Y-121435364D01*
X105942887Y-121445012D01*
X106011384Y-121459578D01*
X106094236Y-121469539D01*
X106183629Y-121474583D01*
X106271752Y-121474396D01*
X106350793Y-121468666D01*
X106388489Y-121462858D01*
X106526586Y-121424797D01*
X106653887Y-121367073D01*
X106769708Y-121290211D01*
X106873363Y-121194739D01*
X106964167Y-121081179D01*
X107030969Y-120970381D01*
X107085836Y-120853625D01*
X107127837Y-120734276D01*
X107157833Y-120608283D01*
X107176689Y-120471594D01*
X107185268Y-120320158D01*
X107185994Y-120242711D01*
X107183900Y-120185934D01*
X106354783Y-120185934D01*
X106354576Y-120279002D01*
X106351663Y-120366692D01*
X106346000Y-120443772D01*
X106337545Y-120505009D01*
X106334962Y-120517350D01*
X106303160Y-120624633D01*
X106261502Y-120711658D01*
X106209637Y-120778642D01*
X106147219Y-120825805D01*
X106073900Y-120853365D01*
X105989331Y-120861541D01*
X105893165Y-120850551D01*
X105829689Y-120834829D01*
X105780546Y-120816639D01*
X105726417Y-120790791D01*
X105685756Y-120767089D01*
X105615200Y-120720721D01*
X105615200Y-119570530D01*
X105682608Y-119526962D01*
X105761133Y-119486040D01*
X105845319Y-119459389D01*
X105930443Y-119447465D01*
X106011784Y-119450722D01*
X106084620Y-119469615D01*
X106116574Y-119485184D01*
X106174499Y-119528181D01*
X106223456Y-119584953D01*
X106264610Y-119657575D01*
X106299126Y-119748121D01*
X106328167Y-119858666D01*
X106329448Y-119864533D01*
X106339619Y-119926788D01*
X106347261Y-120004594D01*
X106352330Y-120092720D01*
X106354783Y-120185934D01*
X107183900Y-120185934D01*
X107178143Y-120029895D01*
X107156198Y-119834059D01*
X107120214Y-119655332D01*
X107070241Y-119493845D01*
X107006332Y-119349726D01*
X106928538Y-119223106D01*
X106836911Y-119114115D01*
X106731503Y-119022883D01*
X106686338Y-118991932D01*
X106585389Y-118935785D01*
X106482099Y-118896174D01*
X106372011Y-118872014D01*
X106250670Y-118862219D01*
X106158164Y-118863265D01*
X106028510Y-118874231D01*
X105915916Y-118896046D01*
X105817125Y-118929714D01*
X105728879Y-118976236D01*
X105680014Y-119010448D01*
X105650647Y-119032362D01*
X105628957Y-119047333D01*
X105620747Y-119051733D01*
X105619132Y-119040904D01*
X105617841Y-119010251D01*
X105616862Y-118962526D01*
X105616183Y-118900479D01*
X105615790Y-118826862D01*
X105615670Y-118744427D01*
X105615812Y-118655925D01*
X105616203Y-118564107D01*
X105616829Y-118471724D01*
X105617680Y-118381528D01*
X105618740Y-118296271D01*
X105619999Y-118218703D01*
X105621444Y-118151576D01*
X105623062Y-118097641D01*
X105624839Y-118059650D01*
X105625331Y-118052667D01*
X105632908Y-117982251D01*
X105644469Y-117927102D01*
X105662208Y-117879981D01*
X105688318Y-117833647D01*
X105694585Y-117824067D01*
X105719017Y-117787378D01*
X104813689Y-117787378D01*
X104813493Y-119472245D01*
G36*
X108326426Y-118866552D02*
G01*
X108174508Y-118886567D01*
X108039244Y-118920202D01*
X107919761Y-118967725D01*
X107815185Y-119029405D01*
X107737576Y-119092965D01*
X107668735Y-119167099D01*
X107614994Y-119246871D01*
X107572090Y-119339091D01*
X107556616Y-119382161D01*
X107543756Y-119421142D01*
X107532554Y-119457289D01*
X107522880Y-119492434D01*
X107514604Y-119528410D01*
X107507597Y-119567050D01*
X107501728Y-119610185D01*
X107496869Y-119659649D01*
X107492890Y-119717273D01*
X107489660Y-119784891D01*
X107487051Y-119864334D01*
X107484933Y-119957436D01*
X107483176Y-120066027D01*
X107481651Y-120191942D01*
X107480228Y-120337012D01*
X107478975Y-120479778D01*
X107477649Y-120635968D01*
X107476444Y-120771239D01*
X107475234Y-120887246D01*
X107473894Y-120985645D01*
X107472300Y-121068093D01*
X107470325Y-121136246D01*
X107467844Y-121191760D01*
X107464731Y-121236292D01*
X107460862Y-121271498D01*
X107456111Y-121299034D01*
X107450352Y-121320556D01*
X107443461Y-121337722D01*
X107435311Y-121352186D01*
X107425777Y-121365606D01*
X107414734Y-121379638D01*
X107410434Y-121385071D01*
X107394614Y-121407910D01*
X107387578Y-121423463D01*
X107387556Y-121423922D01*
X107398433Y-121426121D01*
X107429418Y-121428147D01*
X107478043Y-121429942D01*
X107541837Y-121431451D01*
X107618331Y-121432616D01*
X107705056Y-121433380D01*
X107799543Y-121433686D01*
X107810450Y-121433689D01*
X108233343Y-121433689D01*
X108236605Y-121337622D01*
X108239867Y-121241556D01*
X108301956Y-121292543D01*
X108399286Y-121360057D01*
X108509187Y-121414749D01*
X108595651Y-121444978D01*
X108664722Y-121459666D01*
X108748075Y-121469659D01*
X108837841Y-121474646D01*
X108926155Y-121474313D01*
X109005149Y-121468351D01*
X109041378Y-121462638D01*
X109181397Y-121424776D01*
X109307822Y-121369932D01*
X109419740Y-121298924D01*
X109516238Y-121212568D01*
X109596400Y-121111679D01*
X109659313Y-120997076D01*
X109703688Y-120870984D01*
X109716022Y-120814401D01*
X109723632Y-120752202D01*
X109727261Y-120677363D01*
X109727755Y-120643467D01*
X109727690Y-120640282D01*
X108967752Y-120640282D01*
X108958459Y-120715333D01*
X108930272Y-120779160D01*
X108881803Y-120834798D01*
X108876746Y-120839211D01*
X108828452Y-120874037D01*
X108776743Y-120896620D01*
X108716011Y-120908540D01*
X108640648Y-120911383D01*
X108622541Y-120910978D01*
X108568722Y-120908325D01*
X108528692Y-120902909D01*
X108493676Y-120892745D01*
X108454897Y-120875850D01*
X108444255Y-120870672D01*
X108383604Y-120834844D01*
X108336785Y-120792212D01*
X108324048Y-120776973D01*
X108279378Y-120720462D01*
X108279378Y-120524586D01*
X108279914Y-120445939D01*
X108281604Y-120387988D01*
X108284572Y-120348875D01*
X108288943Y-120326741D01*
X108293028Y-120320274D01*
X108308953Y-120317111D01*
X108342736Y-120314488D01*
X108389660Y-120312655D01*
X108445007Y-120311857D01*
X108453894Y-120311842D01*
X108574670Y-120317096D01*
X108677340Y-120333263D01*
X108763894Y-120360961D01*
X108836319Y-120400808D01*
X108891249Y-120447758D01*
X108935796Y-120505645D01*
X108960520Y-120568693D01*
X108967752Y-120640282D01*
X109727690Y-120640282D01*
X109725822Y-120549712D01*
X109717478Y-120470812D01*
X109701232Y-120399590D01*
X109675595Y-120328864D01*
X109651599Y-120276493D01*
X109592980Y-120181196D01*
X109514883Y-120093170D01*
X109419685Y-120014017D01*
X109309762Y-119945340D01*
X109187490Y-119888741D01*
X109055245Y-119845821D01*
X108990578Y-119830882D01*
X108854396Y-119808777D01*
X108705951Y-119794194D01*
X108554495Y-119787813D01*
X108427936Y-119789445D01*
X108266050Y-119796224D01*
X108273470Y-119737245D01*
X108292762Y-119638092D01*
X108323896Y-119557372D01*
X108367731Y-119494466D01*
X108425129Y-119448756D01*
X108496952Y-119419622D01*
X108584059Y-119406447D01*
X108687314Y-119408611D01*
X108725289Y-119412612D01*
X108866480Y-119437780D01*
X109003293Y-119478814D01*
X109097822Y-119516815D01*
X109142982Y-119536190D01*
X109181415Y-119551760D01*
X109207766Y-119561405D01*
X109215454Y-119563452D01*
X109225198Y-119554374D01*
X109241917Y-119525405D01*
X109265768Y-119476217D01*
X109296907Y-119406484D01*
X109335493Y-119315879D01*
X109342090Y-119300089D01*
X109372147Y-119227772D01*
X109399126Y-119162425D01*
X109421864Y-119106906D01*
X109439194Y-119064072D01*
X109449952Y-119036781D01*
X109453059Y-119027942D01*
X109443060Y-119023187D01*
X109416783Y-119017910D01*
X109388511Y-119014231D01*
X109358354Y-119009474D01*
X109310567Y-119000028D01*
X109249388Y-118986820D01*
X109179054Y-118970776D01*
X109103806Y-118952820D01*
X109075245Y-118945797D01*
X108970184Y-118920209D01*
X108882520Y-118900147D01*
X108807932Y-118884969D01*
X108742097Y-118874035D01*
X108680693Y-118866704D01*
X108619398Y-118862335D01*
X108553890Y-118860287D01*
X108495872Y-118859889D01*
X108326426Y-118866552D01*
G37*
X108326426Y-118866552D02*
X108174508Y-118886567D01*
X108039244Y-118920202D01*
X107919761Y-118967725D01*
X107815185Y-119029405D01*
X107737576Y-119092965D01*
X107668735Y-119167099D01*
X107614994Y-119246871D01*
X107572090Y-119339091D01*
X107556616Y-119382161D01*
X107543756Y-119421142D01*
X107532554Y-119457289D01*
X107522880Y-119492434D01*
X107514604Y-119528410D01*
X107507597Y-119567050D01*
X107501728Y-119610185D01*
X107496869Y-119659649D01*
X107492890Y-119717273D01*
X107489660Y-119784891D01*
X107487051Y-119864334D01*
X107484933Y-119957436D01*
X107483176Y-120066027D01*
X107481651Y-120191942D01*
X107480228Y-120337012D01*
X107478975Y-120479778D01*
X107477649Y-120635968D01*
X107476444Y-120771239D01*
X107475234Y-120887246D01*
X107473894Y-120985645D01*
X107472300Y-121068093D01*
X107470325Y-121136246D01*
X107467844Y-121191760D01*
X107464731Y-121236292D01*
X107460862Y-121271498D01*
X107456111Y-121299034D01*
X107450352Y-121320556D01*
X107443461Y-121337722D01*
X107435311Y-121352186D01*
X107425777Y-121365606D01*
X107414734Y-121379638D01*
X107410434Y-121385071D01*
X107394614Y-121407910D01*
X107387578Y-121423463D01*
X107387556Y-121423922D01*
X107398433Y-121426121D01*
X107429418Y-121428147D01*
X107478043Y-121429942D01*
X107541837Y-121431451D01*
X107618331Y-121432616D01*
X107705056Y-121433380D01*
X107799543Y-121433686D01*
X107810450Y-121433689D01*
X108233343Y-121433689D01*
X108236605Y-121337622D01*
X108239867Y-121241556D01*
X108301956Y-121292543D01*
X108399286Y-121360057D01*
X108509187Y-121414749D01*
X108595651Y-121444978D01*
X108664722Y-121459666D01*
X108748075Y-121469659D01*
X108837841Y-121474646D01*
X108926155Y-121474313D01*
X109005149Y-121468351D01*
X109041378Y-121462638D01*
X109181397Y-121424776D01*
X109307822Y-121369932D01*
X109419740Y-121298924D01*
X109516238Y-121212568D01*
X109596400Y-121111679D01*
X109659313Y-120997076D01*
X109703688Y-120870984D01*
X109716022Y-120814401D01*
X109723632Y-120752202D01*
X109727261Y-120677363D01*
X109727755Y-120643467D01*
X109727690Y-120640282D01*
X108967752Y-120640282D01*
X108958459Y-120715333D01*
X108930272Y-120779160D01*
X108881803Y-120834798D01*
X108876746Y-120839211D01*
X108828452Y-120874037D01*
X108776743Y-120896620D01*
X108716011Y-120908540D01*
X108640648Y-120911383D01*
X108622541Y-120910978D01*
X108568722Y-120908325D01*
X108528692Y-120902909D01*
X108493676Y-120892745D01*
X108454897Y-120875850D01*
X108444255Y-120870672D01*
X108383604Y-120834844D01*
X108336785Y-120792212D01*
X108324048Y-120776973D01*
X108279378Y-120720462D01*
X108279378Y-120524586D01*
X108279914Y-120445939D01*
X108281604Y-120387988D01*
X108284572Y-120348875D01*
X108288943Y-120326741D01*
X108293028Y-120320274D01*
X108308953Y-120317111D01*
X108342736Y-120314488D01*
X108389660Y-120312655D01*
X108445007Y-120311857D01*
X108453894Y-120311842D01*
X108574670Y-120317096D01*
X108677340Y-120333263D01*
X108763894Y-120360961D01*
X108836319Y-120400808D01*
X108891249Y-120447758D01*
X108935796Y-120505645D01*
X108960520Y-120568693D01*
X108967752Y-120640282D01*
X109727690Y-120640282D01*
X109725822Y-120549712D01*
X109717478Y-120470812D01*
X109701232Y-120399590D01*
X109675595Y-120328864D01*
X109651599Y-120276493D01*
X109592980Y-120181196D01*
X109514883Y-120093170D01*
X109419685Y-120014017D01*
X109309762Y-119945340D01*
X109187490Y-119888741D01*
X109055245Y-119845821D01*
X108990578Y-119830882D01*
X108854396Y-119808777D01*
X108705951Y-119794194D01*
X108554495Y-119787813D01*
X108427936Y-119789445D01*
X108266050Y-119796224D01*
X108273470Y-119737245D01*
X108292762Y-119638092D01*
X108323896Y-119557372D01*
X108367731Y-119494466D01*
X108425129Y-119448756D01*
X108496952Y-119419622D01*
X108584059Y-119406447D01*
X108687314Y-119408611D01*
X108725289Y-119412612D01*
X108866480Y-119437780D01*
X109003293Y-119478814D01*
X109097822Y-119516815D01*
X109142982Y-119536190D01*
X109181415Y-119551760D01*
X109207766Y-119561405D01*
X109215454Y-119563452D01*
X109225198Y-119554374D01*
X109241917Y-119525405D01*
X109265768Y-119476217D01*
X109296907Y-119406484D01*
X109335493Y-119315879D01*
X109342090Y-119300089D01*
X109372147Y-119227772D01*
X109399126Y-119162425D01*
X109421864Y-119106906D01*
X109439194Y-119064072D01*
X109449952Y-119036781D01*
X109453059Y-119027942D01*
X109443060Y-119023187D01*
X109416783Y-119017910D01*
X109388511Y-119014231D01*
X109358354Y-119009474D01*
X109310567Y-119000028D01*
X109249388Y-118986820D01*
X109179054Y-118970776D01*
X109103806Y-118952820D01*
X109075245Y-118945797D01*
X108970184Y-118920209D01*
X108882520Y-118900147D01*
X108807932Y-118884969D01*
X108742097Y-118874035D01*
X108680693Y-118866704D01*
X108619398Y-118862335D01*
X108553890Y-118860287D01*
X108495872Y-118859889D01*
X108326426Y-118866552D01*
G36*
X110671571Y-117949071D02*
G01*
X110511430Y-117970245D01*
X110347490Y-118010385D01*
X110177687Y-118069889D01*
X109999957Y-118149154D01*
X109988690Y-118154699D01*
X109930995Y-118182725D01*
X109879448Y-118206802D01*
X109837809Y-118225249D01*
X109809838Y-118236386D01*
X109800267Y-118238933D01*
X109781050Y-118243941D01*
X109776439Y-118248147D01*
X109781542Y-118258580D01*
X109797582Y-118284868D01*
X109822712Y-118324257D01*
X109855086Y-118373991D01*
X109892857Y-118431315D01*
X109934178Y-118493476D01*
X109977202Y-118557718D01*
X110020083Y-118621285D01*
X110060974Y-118681425D01*
X110098029Y-118735380D01*
X110129400Y-118780397D01*
X110153241Y-118813721D01*
X110167706Y-118832597D01*
X110169691Y-118834787D01*
X110179809Y-118830138D01*
X110202150Y-118812962D01*
X110232720Y-118786440D01*
X110248464Y-118771964D01*
X110344953Y-118696682D01*
X110451664Y-118641241D01*
X110567168Y-118606141D01*
X110690038Y-118591880D01*
X110759439Y-118593051D01*
X110880577Y-118610212D01*
X110989795Y-118646094D01*
X111087418Y-118700959D01*
X111173772Y-118775070D01*
X111249185Y-118868688D01*
X111313982Y-118982076D01*
X111351399Y-119068667D01*
X111395252Y-119204366D01*
X111427572Y-119351850D01*
X111448443Y-119507314D01*
X111457949Y-119666956D01*
X111456173Y-119826973D01*
X111443197Y-119983561D01*
X111419106Y-120132918D01*
X111383982Y-120271240D01*
X111337908Y-120394724D01*
X111321627Y-120428978D01*
X111253380Y-120543064D01*
X111172921Y-120639557D01*
X111081430Y-120717670D01*
X110980089Y-120776617D01*
X110870080Y-120815612D01*
X110752585Y-120833868D01*
X110711117Y-120835211D01*
X110589559Y-120824290D01*
X110469122Y-120791474D01*
X110351334Y-120737439D01*
X110237723Y-120662865D01*
X110146315Y-120584539D01*
X110099785Y-120540008D01*
X109918517Y-120837271D01*
X109873420Y-120911433D01*
X109832181Y-120979646D01*
X109796265Y-121039459D01*
X109767134Y-121088420D01*
X109746250Y-121124079D01*
X109735076Y-121143984D01*
X109733625Y-121147079D01*
X109741854Y-121156718D01*
X109767433Y-121173999D01*
X109807127Y-121197283D01*
X109857703Y-121224934D01*
X109915926Y-121255315D01*
X109978563Y-121286790D01*
X110042379Y-121317722D01*
X110104140Y-121346473D01*
X110160612Y-121371408D01*
X110208562Y-121390889D01*
X110232014Y-121399318D01*
X110365779Y-121437133D01*
X110503673Y-121462136D01*
X110651378Y-121475140D01*
X110778167Y-121477468D01*
X110846122Y-121476373D01*
X110911723Y-121474275D01*
X110969153Y-121471434D01*
X111012597Y-121468106D01*
X111026702Y-121466422D01*
X111165716Y-121437587D01*
X111307243Y-121392468D01*
X111444725Y-121333750D01*
X111571606Y-121264120D01*
X111649111Y-121211441D01*
X111776519Y-121103239D01*
X111894822Y-120976671D01*
X112001828Y-120834866D01*
X112095348Y-120680951D01*
X112173190Y-120518053D01*
X112217044Y-120400756D01*
X112267292Y-120217128D01*
X112300791Y-120022581D01*
X112317551Y-119821325D01*
X112317584Y-119617568D01*
X112300899Y-119415521D01*
X112267507Y-119219392D01*
X112217420Y-119033391D01*
X112213603Y-119021803D01*
X112150719Y-118859750D01*
X112073972Y-118711832D01*
X111980758Y-118573865D01*
X111868473Y-118441661D01*
X111824608Y-118396399D01*
X111688466Y-118272457D01*
X111548509Y-118169915D01*
X111402589Y-118087656D01*
X111248558Y-118024564D01*
X111084268Y-117979523D01*
X110988711Y-117962033D01*
X110829977Y-117946466D01*
X110671571Y-117949071D01*
G37*
X110671571Y-117949071D02*
X110511430Y-117970245D01*
X110347490Y-118010385D01*
X110177687Y-118069889D01*
X109999957Y-118149154D01*
X109988690Y-118154699D01*
X109930995Y-118182725D01*
X109879448Y-118206802D01*
X109837809Y-118225249D01*
X109809838Y-118236386D01*
X109800267Y-118238933D01*
X109781050Y-118243941D01*
X109776439Y-118248147D01*
X109781542Y-118258580D01*
X109797582Y-118284868D01*
X109822712Y-118324257D01*
X109855086Y-118373991D01*
X109892857Y-118431315D01*
X109934178Y-118493476D01*
X109977202Y-118557718D01*
X110020083Y-118621285D01*
X110060974Y-118681425D01*
X110098029Y-118735380D01*
X110129400Y-118780397D01*
X110153241Y-118813721D01*
X110167706Y-118832597D01*
X110169691Y-118834787D01*
X110179809Y-118830138D01*
X110202150Y-118812962D01*
X110232720Y-118786440D01*
X110248464Y-118771964D01*
X110344953Y-118696682D01*
X110451664Y-118641241D01*
X110567168Y-118606141D01*
X110690038Y-118591880D01*
X110759439Y-118593051D01*
X110880577Y-118610212D01*
X110989795Y-118646094D01*
X111087418Y-118700959D01*
X111173772Y-118775070D01*
X111249185Y-118868688D01*
X111313982Y-118982076D01*
X111351399Y-119068667D01*
X111395252Y-119204366D01*
X111427572Y-119351850D01*
X111448443Y-119507314D01*
X111457949Y-119666956D01*
X111456173Y-119826973D01*
X111443197Y-119983561D01*
X111419106Y-120132918D01*
X111383982Y-120271240D01*
X111337908Y-120394724D01*
X111321627Y-120428978D01*
X111253380Y-120543064D01*
X111172921Y-120639557D01*
X111081430Y-120717670D01*
X110980089Y-120776617D01*
X110870080Y-120815612D01*
X110752585Y-120833868D01*
X110711117Y-120835211D01*
X110589559Y-120824290D01*
X110469122Y-120791474D01*
X110351334Y-120737439D01*
X110237723Y-120662865D01*
X110146315Y-120584539D01*
X110099785Y-120540008D01*
X109918517Y-120837271D01*
X109873420Y-120911433D01*
X109832181Y-120979646D01*
X109796265Y-121039459D01*
X109767134Y-121088420D01*
X109746250Y-121124079D01*
X109735076Y-121143984D01*
X109733625Y-121147079D01*
X109741854Y-121156718D01*
X109767433Y-121173999D01*
X109807127Y-121197283D01*
X109857703Y-121224934D01*
X109915926Y-121255315D01*
X109978563Y-121286790D01*
X110042379Y-121317722D01*
X110104140Y-121346473D01*
X110160612Y-121371408D01*
X110208562Y-121390889D01*
X110232014Y-121399318D01*
X110365779Y-121437133D01*
X110503673Y-121462136D01*
X110651378Y-121475140D01*
X110778167Y-121477468D01*
X110846122Y-121476373D01*
X110911723Y-121474275D01*
X110969153Y-121471434D01*
X111012597Y-121468106D01*
X111026702Y-121466422D01*
X111165716Y-121437587D01*
X111307243Y-121392468D01*
X111444725Y-121333750D01*
X111571606Y-121264120D01*
X111649111Y-121211441D01*
X111776519Y-121103239D01*
X111894822Y-120976671D01*
X112001828Y-120834866D01*
X112095348Y-120680951D01*
X112173190Y-120518053D01*
X112217044Y-120400756D01*
X112267292Y-120217128D01*
X112300791Y-120022581D01*
X112317551Y-119821325D01*
X112317584Y-119617568D01*
X112300899Y-119415521D01*
X112267507Y-119219392D01*
X112217420Y-119033391D01*
X112213603Y-119021803D01*
X112150719Y-118859750D01*
X112073972Y-118711832D01*
X111980758Y-118573865D01*
X111868473Y-118441661D01*
X111824608Y-118396399D01*
X111688466Y-118272457D01*
X111548509Y-118169915D01*
X111402589Y-118087656D01*
X111248558Y-118024564D01*
X111084268Y-117979523D01*
X110988711Y-117962033D01*
X110829977Y-117946466D01*
X110671571Y-117949071D01*
G36*
X113946400Y-117489054D02*
G01*
X113935535Y-117602993D01*
X113903918Y-117710616D01*
X113853015Y-117809615D01*
X113784293Y-117897684D01*
X113699219Y-117972516D01*
X113602232Y-118030384D01*
X113495964Y-118070005D01*
X113388950Y-118088573D01*
X113283300Y-118087434D01*
X113181125Y-118067930D01*
X113084534Y-118031406D01*
X112995638Y-117979205D01*
X112916546Y-117912673D01*
X112849369Y-117833152D01*
X112796217Y-117741987D01*
X112759199Y-117640523D01*
X112740427Y-117530102D01*
X112738489Y-117480206D01*
X112738489Y-117392267D01*
X112686560Y-117392267D01*
X112650253Y-117395111D01*
X112623355Y-117406911D01*
X112596249Y-117430649D01*
X112557867Y-117469031D01*
X112557867Y-119660602D01*
X112557876Y-119922739D01*
X112557908Y-120163241D01*
X112557972Y-120383048D01*
X112558076Y-120583101D01*
X112558227Y-120764344D01*
X112558434Y-120927716D01*
X112558706Y-121074160D01*
X112559050Y-121204617D01*
X112559474Y-121320029D01*
X112559987Y-121421338D01*
X112560597Y-121509484D01*
X112561312Y-121585410D01*
X112562140Y-121650057D01*
X112563089Y-121704367D01*
X112564167Y-121749280D01*
X112565383Y-121785740D01*
X112566745Y-121814687D01*
X112568261Y-121837063D01*
X112569938Y-121853809D01*
X112571786Y-121865868D01*
X112573813Y-121874180D01*
X112576025Y-121879687D01*
X112577108Y-121881537D01*
X112581271Y-121888549D01*
X112584805Y-121894996D01*
X112588635Y-121900900D01*
X112593682Y-121906286D01*
X112600871Y-121911178D01*
X112611123Y-121915598D01*
X112625364Y-121919572D01*
X112644514Y-121923121D01*
X112669499Y-121926270D01*
X112701240Y-121929042D01*
X112740662Y-121931461D01*
X112788686Y-121933551D01*
X112846237Y-121935335D01*
X112914237Y-121936837D01*
X112993610Y-121938080D01*
X113085279Y-121939089D01*
X113190166Y-121939885D01*
X113309196Y-121940494D01*
X113443290Y-121940939D01*
X113593373Y-121941243D01*
X113760367Y-121941430D01*
X113945196Y-121941524D01*
X114148783Y-121941548D01*
X114372050Y-121941525D01*
X114615922Y-121941480D01*
X114881321Y-121941437D01*
X114919704Y-121941432D01*
X115186682Y-121941389D01*
X115432002Y-121941318D01*
X115656583Y-121941213D01*
X115861345Y-121941066D01*
X116047206Y-121940869D01*
X116215088Y-121940616D01*
X116365908Y-121940300D01*
X116500587Y-121939913D01*
X116620044Y-121939447D01*
X116725199Y-121938897D01*
X116816971Y-121938253D01*
X116896279Y-121937511D01*
X116964043Y-121936661D01*
X117021182Y-121935697D01*
X117068617Y-121934611D01*
X117107266Y-121933397D01*
X117138049Y-121932047D01*
X117161885Y-121930555D01*
X117179694Y-121928911D01*
X117192395Y-121927111D01*
X117200908Y-121925145D01*
X117205266Y-121923477D01*
X117213728Y-121919906D01*
X117221497Y-121917270D01*
X117228602Y-121914634D01*
X117235073Y-121911062D01*
X117240939Y-121905621D01*
X117246229Y-121897375D01*
X117250974Y-121885390D01*
X117255202Y-121868731D01*
X117258943Y-121846463D01*
X117262227Y-121817652D01*
X117265083Y-121781363D01*
X117267540Y-121736661D01*
X117269629Y-121682611D01*
X117271378Y-121618279D01*
X117272817Y-121542730D01*
X117273976Y-121455030D01*
X117274883Y-121354243D01*
X117275569Y-121239434D01*
X117276063Y-121109670D01*
X117276395Y-120964015D01*
X117276593Y-120801535D01*
X117276687Y-120621295D01*
X117276708Y-120422360D01*
X117276685Y-120203796D01*
X117276646Y-119964668D01*
X117276622Y-119704040D01*
X117276622Y-119661889D01*
X117276636Y-119398992D01*
X117276661Y-119157732D01*
X117276671Y-118937165D01*
X117276642Y-118736352D01*
X117276548Y-118554349D01*
X117276362Y-118390216D01*
X117276059Y-118243011D01*
X117275614Y-118111792D01*
X117275034Y-118001867D01*
X116972197Y-118001867D01*
X116932407Y-118059711D01*
X116921236Y-118075479D01*
X116911166Y-118089441D01*
X116902138Y-118102784D01*
X116894097Y-118116693D01*
X116886986Y-118132356D01*
X116880747Y-118150958D01*
X116875325Y-118173686D01*
X116870662Y-118201727D01*
X116866701Y-118236267D01*
X116863385Y-118278492D01*
X116860659Y-118329589D01*
X116858464Y-118390744D01*
X116856745Y-118463144D01*
X116855444Y-118547975D01*
X116854505Y-118646422D01*
X116853870Y-118759674D01*
X116853484Y-118888916D01*
X116853288Y-119035334D01*
X116853227Y-119200116D01*
X116853243Y-119384447D01*
X116853280Y-119589513D01*
X116853289Y-119712133D01*
X116853265Y-119929082D01*
X116853231Y-120124642D01*
X116853243Y-120299999D01*
X116853358Y-120456341D01*
X116853630Y-120594857D01*
X116854118Y-120716734D01*
X116854876Y-120823160D01*
X116855962Y-120915322D01*
X116857431Y-120994409D01*
X116859340Y-121061608D01*
X116861744Y-121118107D01*
X116864701Y-121165093D01*
X116868266Y-121203755D01*
X116872495Y-121235280D01*
X116877446Y-121260855D01*
X116883173Y-121281670D01*
X116889733Y-121298911D01*
X116897183Y-121313765D01*
X116905579Y-121327422D01*
X116914976Y-121341069D01*
X116925432Y-121355893D01*
X116931523Y-121364783D01*
X116970296Y-121422400D01*
X116438732Y-121422400D01*
X116315483Y-121422365D01*
X116212987Y-121422215D01*
X116129420Y-121421878D01*
X116062956Y-121421286D01*
X116011771Y-121420367D01*
X115974041Y-121419051D01*
X115947940Y-121417269D01*
X115931644Y-121414951D01*
X115923328Y-121412026D01*
X115921168Y-121408424D01*
X115923339Y-121404075D01*
X115924535Y-121402645D01*
X115949685Y-121365573D01*
X115975583Y-121312772D01*
X115999192Y-121250770D01*
X116007461Y-121224357D01*
X116012078Y-121206416D01*
X116015979Y-121185355D01*
X116019248Y-121159089D01*
X116021966Y-121125532D01*
X116024215Y-121082599D01*
X116026077Y-121028204D01*
X116027636Y-120960262D01*
X116028972Y-120876688D01*
X116030169Y-120775395D01*
X116031308Y-120654300D01*
X116031685Y-120609600D01*
X116032702Y-120484449D01*
X116033460Y-120380082D01*
X116033903Y-120294707D01*
X116033970Y-120226533D01*
X116033605Y-120173765D01*
X116032748Y-120134614D01*
X116031341Y-120107285D01*
X116029325Y-120089986D01*
X116026643Y-120080926D01*
X116023236Y-120078312D01*
X116019044Y-120080351D01*
X116014571Y-120084667D01*
X116004216Y-120097602D01*
X115982158Y-120126676D01*
X115949957Y-120169759D01*
X115909174Y-120224718D01*
X115861370Y-120289423D01*
X115808105Y-120361742D01*
X115750940Y-120439544D01*
X115691437Y-120520698D01*
X115631155Y-120603072D01*
X115571655Y-120684536D01*
X115514498Y-120762957D01*
X115461245Y-120836204D01*
X115413457Y-120902147D01*
X115372693Y-120958654D01*
X115340516Y-121003593D01*
X115318485Y-121034834D01*
X115313917Y-121041466D01*
X115290996Y-121078369D01*
X115264188Y-121126359D01*
X115238789Y-121175897D01*
X115235568Y-121182577D01*
X115213890Y-121230772D01*
X115201304Y-121268334D01*
X115195574Y-121304160D01*
X115194456Y-121346200D01*
X115195090Y-121422400D01*
X114040651Y-121422400D01*
X114131815Y-121328669D01*
X114178612Y-121278775D01*
X114228899Y-121222295D01*
X114274944Y-121168026D01*
X114295369Y-121142673D01*
X114325807Y-121103128D01*
X114365862Y-121049916D01*
X114414361Y-120984667D01*
X114470135Y-120909011D01*
X114532011Y-120824577D01*
X114598819Y-120732994D01*
X114669387Y-120635892D01*
X114742545Y-120534901D01*
X114817121Y-120431650D01*
X114891944Y-120327768D01*
X114965843Y-120224885D01*
X115037646Y-120124631D01*
X115106184Y-120028636D01*
X115170284Y-119938527D01*
X115228775Y-119855936D01*
X115280486Y-119782492D01*
X115324247Y-119719824D01*
X115358885Y-119669561D01*
X115383230Y-119633334D01*
X115396111Y-119612771D01*
X115397869Y-119608668D01*
X115389910Y-119597342D01*
X115369115Y-119570162D01*
X115336847Y-119528829D01*
X115294470Y-119475044D01*
X115243347Y-119410506D01*
X115184841Y-119336918D01*
X115120314Y-119255978D01*
X115051131Y-119169388D01*
X114978653Y-119078848D01*
X114904246Y-118986060D01*
X114844517Y-118911702D01*
X113833511Y-118911702D01*
X113827602Y-118924659D01*
X113813272Y-118946908D01*
X113812225Y-118948391D01*
X113793438Y-118978544D01*
X113773791Y-119015375D01*
X113769892Y-119023511D01*
X113766356Y-119031940D01*
X113763230Y-119042059D01*
X113760486Y-119055260D01*
X113758092Y-119072938D01*
X113756019Y-119096484D01*
X113754235Y-119127293D01*
X113752712Y-119166757D01*
X113751419Y-119216269D01*
X113750326Y-119277223D01*
X113749403Y-119351011D01*
X113748619Y-119439028D01*
X113747945Y-119542665D01*
X113747350Y-119663316D01*
X113746805Y-119802374D01*
X113746279Y-119961232D01*
X113745745Y-120140089D01*
X113745206Y-120325207D01*
X113744772Y-120489145D01*
X113744509Y-120633303D01*
X113744484Y-120759079D01*
X113744765Y-120867871D01*
X113745419Y-120961077D01*
X113746514Y-121040097D01*
X113748118Y-121106328D01*
X113750297Y-121161170D01*
X113753119Y-121206021D01*
X113756651Y-121242278D01*
X113760961Y-121271341D01*
X113766117Y-121294609D01*
X113772185Y-121313479D01*
X113779233Y-121329351D01*
X113787329Y-121343622D01*
X113796540Y-121357691D01*
X113805040Y-121370158D01*
X113822176Y-121396452D01*
X113832322Y-121414037D01*
X113833511Y-121417257D01*
X113822604Y-121418334D01*
X113791411Y-121419335D01*
X113742223Y-121420235D01*
X113677333Y-121421010D01*
X113599030Y-121421637D01*
X113509607Y-121422091D01*
X113411356Y-121422349D01*
X113342445Y-121422400D01*
X113237452Y-121422180D01*
X113140610Y-121421548D01*
X113054107Y-121420549D01*
X112980132Y-121419227D01*
X112920874Y-121417626D01*
X112878520Y-121415791D01*
X112855260Y-121413765D01*
X112851378Y-121412493D01*
X112859076Y-121397591D01*
X112867074Y-121389560D01*
X112880246Y-121372434D01*
X112897485Y-121342183D01*
X112909407Y-121317622D01*
X112936045Y-121258711D01*
X112939120Y-120081845D01*
X112942195Y-118904978D01*
X113387853Y-118904978D01*
X113485670Y-118905142D01*
X113576064Y-118905611D01*
X113656630Y-118906347D01*
X113724962Y-118907316D01*
X113778656Y-118908480D01*
X113815305Y-118909803D01*
X113832504Y-118911249D01*
X113833511Y-118911702D01*
X114844517Y-118911702D01*
X114829270Y-118892722D01*
X114755090Y-118800537D01*
X114683069Y-118711204D01*
X114614569Y-118626424D01*
X114550955Y-118547898D01*
X114493588Y-118477326D01*
X114443833Y-118416409D01*
X114403052Y-118366847D01*
X114385888Y-118346178D01*
X114299596Y-118245516D01*
X114222997Y-118162259D01*
X114154183Y-118094438D01*
X114091248Y-118040089D01*
X114081867Y-118032722D01*
X114042356Y-118002117D01*
X115174116Y-118001867D01*
X115168827Y-118049844D01*
X115172130Y-118107188D01*
X115193661Y-118175463D01*
X115233635Y-118255212D01*
X115278943Y-118327495D01*
X115295161Y-118350140D01*
X115323214Y-118387696D01*
X115361430Y-118438021D01*
X115408137Y-118498973D01*
X115461661Y-118568411D01*
X115520331Y-118644194D01*
X115582475Y-118724180D01*
X115646421Y-118806228D01*
X115710495Y-118888196D01*
X115773027Y-118967943D01*
X115832343Y-119043327D01*
X115886771Y-119112207D01*
X115934639Y-119172442D01*
X115974275Y-119221889D01*
X116004006Y-119258408D01*
X116022161Y-119279858D01*
X116025220Y-119283156D01*
X116028079Y-119275149D01*
X116030293Y-119244855D01*
X116031857Y-119192556D01*
X116032767Y-119118531D01*
X116033020Y-119023063D01*
X116032613Y-118906434D01*
X116031704Y-118786445D01*
X116030382Y-118654333D01*
X116028857Y-118542594D01*
X116026881Y-118449025D01*
X116024206Y-118371419D01*
X116020582Y-118307574D01*
X116015761Y-118255283D01*
X116009494Y-118212344D01*
X116001532Y-118176551D01*
X115991627Y-118145700D01*
X115979531Y-118117586D01*
X115964993Y-118090005D01*
X115950311Y-118064966D01*
X115912314Y-118001867D01*
X116972197Y-118001867D01*
X117275034Y-118001867D01*
X117275001Y-117995617D01*
X117274195Y-117893544D01*
X117273170Y-117804633D01*
X117271900Y-117727941D01*
X117270360Y-117662527D01*
X117268524Y-117607449D01*
X117266367Y-117561765D01*
X117263863Y-117524534D01*
X117260987Y-117494813D01*
X117257713Y-117471662D01*
X117254015Y-117454139D01*
X117249869Y-117441301D01*
X117245247Y-117432208D01*
X117240126Y-117425918D01*
X117234478Y-117421488D01*
X117228279Y-117417978D01*
X117221504Y-117414445D01*
X117215508Y-117410876D01*
X117210275Y-117408300D01*
X117202099Y-117405972D01*
X117189886Y-117403878D01*
X117172541Y-117402007D01*
X117148969Y-117400347D01*
X117118077Y-117398884D01*
X117078768Y-117397608D01*
X117029950Y-117396504D01*
X116970527Y-117395561D01*
X116899404Y-117394767D01*
X116815488Y-117394109D01*
X116717683Y-117393575D01*
X116604894Y-117393153D01*
X116476029Y-117392829D01*
X116329991Y-117392592D01*
X116165686Y-117392430D01*
X115982020Y-117392330D01*
X115777897Y-117392280D01*
X115566753Y-117392267D01*
X113946400Y-117392267D01*
X113946400Y-117489054D01*
G37*
X113946400Y-117489054D02*
X113935535Y-117602993D01*
X113903918Y-117710616D01*
X113853015Y-117809615D01*
X113784293Y-117897684D01*
X113699219Y-117972516D01*
X113602232Y-118030384D01*
X113495964Y-118070005D01*
X113388950Y-118088573D01*
X113283300Y-118087434D01*
X113181125Y-118067930D01*
X113084534Y-118031406D01*
X112995638Y-117979205D01*
X112916546Y-117912673D01*
X112849369Y-117833152D01*
X112796217Y-117741987D01*
X112759199Y-117640523D01*
X112740427Y-117530102D01*
X112738489Y-117480206D01*
X112738489Y-117392267D01*
X112686560Y-117392267D01*
X112650253Y-117395111D01*
X112623355Y-117406911D01*
X112596249Y-117430649D01*
X112557867Y-117469031D01*
X112557867Y-119660602D01*
X112557876Y-119922739D01*
X112557908Y-120163241D01*
X112557972Y-120383048D01*
X112558076Y-120583101D01*
X112558227Y-120764344D01*
X112558434Y-120927716D01*
X112558706Y-121074160D01*
X112559050Y-121204617D01*
X112559474Y-121320029D01*
X112559987Y-121421338D01*
X112560597Y-121509484D01*
X112561312Y-121585410D01*
X112562140Y-121650057D01*
X112563089Y-121704367D01*
X112564167Y-121749280D01*
X112565383Y-121785740D01*
X112566745Y-121814687D01*
X112568261Y-121837063D01*
X112569938Y-121853809D01*
X112571786Y-121865868D01*
X112573813Y-121874180D01*
X112576025Y-121879687D01*
X112577108Y-121881537D01*
X112581271Y-121888549D01*
X112584805Y-121894996D01*
X112588635Y-121900900D01*
X112593682Y-121906286D01*
X112600871Y-121911178D01*
X112611123Y-121915598D01*
X112625364Y-121919572D01*
X112644514Y-121923121D01*
X112669499Y-121926270D01*
X112701240Y-121929042D01*
X112740662Y-121931461D01*
X112788686Y-121933551D01*
X112846237Y-121935335D01*
X112914237Y-121936837D01*
X112993610Y-121938080D01*
X113085279Y-121939089D01*
X113190166Y-121939885D01*
X113309196Y-121940494D01*
X113443290Y-121940939D01*
X113593373Y-121941243D01*
X113760367Y-121941430D01*
X113945196Y-121941524D01*
X114148783Y-121941548D01*
X114372050Y-121941525D01*
X114615922Y-121941480D01*
X114881321Y-121941437D01*
X114919704Y-121941432D01*
X115186682Y-121941389D01*
X115432002Y-121941318D01*
X115656583Y-121941213D01*
X115861345Y-121941066D01*
X116047206Y-121940869D01*
X116215088Y-121940616D01*
X116365908Y-121940300D01*
X116500587Y-121939913D01*
X116620044Y-121939447D01*
X116725199Y-121938897D01*
X116816971Y-121938253D01*
X116896279Y-121937511D01*
X116964043Y-121936661D01*
X117021182Y-121935697D01*
X117068617Y-121934611D01*
X117107266Y-121933397D01*
X117138049Y-121932047D01*
X117161885Y-121930555D01*
X117179694Y-121928911D01*
X117192395Y-121927111D01*
X117200908Y-121925145D01*
X117205266Y-121923477D01*
X117213728Y-121919906D01*
X117221497Y-121917270D01*
X117228602Y-121914634D01*
X117235073Y-121911062D01*
X117240939Y-121905621D01*
X117246229Y-121897375D01*
X117250974Y-121885390D01*
X117255202Y-121868731D01*
X117258943Y-121846463D01*
X117262227Y-121817652D01*
X117265083Y-121781363D01*
X117267540Y-121736661D01*
X117269629Y-121682611D01*
X117271378Y-121618279D01*
X117272817Y-121542730D01*
X117273976Y-121455030D01*
X117274883Y-121354243D01*
X117275569Y-121239434D01*
X117276063Y-121109670D01*
X117276395Y-120964015D01*
X117276593Y-120801535D01*
X117276687Y-120621295D01*
X117276708Y-120422360D01*
X117276685Y-120203796D01*
X117276646Y-119964668D01*
X117276622Y-119704040D01*
X117276622Y-119661889D01*
X117276636Y-119398992D01*
X117276661Y-119157732D01*
X117276671Y-118937165D01*
X117276642Y-118736352D01*
X117276548Y-118554349D01*
X117276362Y-118390216D01*
X117276059Y-118243011D01*
X117275614Y-118111792D01*
X117275034Y-118001867D01*
X116972197Y-118001867D01*
X116932407Y-118059711D01*
X116921236Y-118075479D01*
X116911166Y-118089441D01*
X116902138Y-118102784D01*
X116894097Y-118116693D01*
X116886986Y-118132356D01*
X116880747Y-118150958D01*
X116875325Y-118173686D01*
X116870662Y-118201727D01*
X116866701Y-118236267D01*
X116863385Y-118278492D01*
X116860659Y-118329589D01*
X116858464Y-118390744D01*
X116856745Y-118463144D01*
X116855444Y-118547975D01*
X116854505Y-118646422D01*
X116853870Y-118759674D01*
X116853484Y-118888916D01*
X116853288Y-119035334D01*
X116853227Y-119200116D01*
X116853243Y-119384447D01*
X116853280Y-119589513D01*
X116853289Y-119712133D01*
X116853265Y-119929082D01*
X116853231Y-120124642D01*
X116853243Y-120299999D01*
X116853358Y-120456341D01*
X116853630Y-120594857D01*
X116854118Y-120716734D01*
X116854876Y-120823160D01*
X116855962Y-120915322D01*
X116857431Y-120994409D01*
X116859340Y-121061608D01*
X116861744Y-121118107D01*
X116864701Y-121165093D01*
X116868266Y-121203755D01*
X116872495Y-121235280D01*
X116877446Y-121260855D01*
X116883173Y-121281670D01*
X116889733Y-121298911D01*
X116897183Y-121313765D01*
X116905579Y-121327422D01*
X116914976Y-121341069D01*
X116925432Y-121355893D01*
X116931523Y-121364783D01*
X116970296Y-121422400D01*
X116438732Y-121422400D01*
X116315483Y-121422365D01*
X116212987Y-121422215D01*
X116129420Y-121421878D01*
X116062956Y-121421286D01*
X116011771Y-121420367D01*
X115974041Y-121419051D01*
X115947940Y-121417269D01*
X115931644Y-121414951D01*
X115923328Y-121412026D01*
X115921168Y-121408424D01*
X115923339Y-121404075D01*
X115924535Y-121402645D01*
X115949685Y-121365573D01*
X115975583Y-121312772D01*
X115999192Y-121250770D01*
X116007461Y-121224357D01*
X116012078Y-121206416D01*
X116015979Y-121185355D01*
X116019248Y-121159089D01*
X116021966Y-121125532D01*
X116024215Y-121082599D01*
X116026077Y-121028204D01*
X116027636Y-120960262D01*
X116028972Y-120876688D01*
X116030169Y-120775395D01*
X116031308Y-120654300D01*
X116031685Y-120609600D01*
X116032702Y-120484449D01*
X116033460Y-120380082D01*
X116033903Y-120294707D01*
X116033970Y-120226533D01*
X116033605Y-120173765D01*
X116032748Y-120134614D01*
X116031341Y-120107285D01*
X116029325Y-120089986D01*
X116026643Y-120080926D01*
X116023236Y-120078312D01*
X116019044Y-120080351D01*
X116014571Y-120084667D01*
X116004216Y-120097602D01*
X115982158Y-120126676D01*
X115949957Y-120169759D01*
X115909174Y-120224718D01*
X115861370Y-120289423D01*
X115808105Y-120361742D01*
X115750940Y-120439544D01*
X115691437Y-120520698D01*
X115631155Y-120603072D01*
X115571655Y-120684536D01*
X115514498Y-120762957D01*
X115461245Y-120836204D01*
X115413457Y-120902147D01*
X115372693Y-120958654D01*
X115340516Y-121003593D01*
X115318485Y-121034834D01*
X115313917Y-121041466D01*
X115290996Y-121078369D01*
X115264188Y-121126359D01*
X115238789Y-121175897D01*
X115235568Y-121182577D01*
X115213890Y-121230772D01*
X115201304Y-121268334D01*
X115195574Y-121304160D01*
X115194456Y-121346200D01*
X115195090Y-121422400D01*
X114040651Y-121422400D01*
X114131815Y-121328669D01*
X114178612Y-121278775D01*
X114228899Y-121222295D01*
X114274944Y-121168026D01*
X114295369Y-121142673D01*
X114325807Y-121103128D01*
X114365862Y-121049916D01*
X114414361Y-120984667D01*
X114470135Y-120909011D01*
X114532011Y-120824577D01*
X114598819Y-120732994D01*
X114669387Y-120635892D01*
X114742545Y-120534901D01*
X114817121Y-120431650D01*
X114891944Y-120327768D01*
X114965843Y-120224885D01*
X115037646Y-120124631D01*
X115106184Y-120028636D01*
X115170284Y-119938527D01*
X115228775Y-119855936D01*
X115280486Y-119782492D01*
X115324247Y-119719824D01*
X115358885Y-119669561D01*
X115383230Y-119633334D01*
X115396111Y-119612771D01*
X115397869Y-119608668D01*
X115389910Y-119597342D01*
X115369115Y-119570162D01*
X115336847Y-119528829D01*
X115294470Y-119475044D01*
X115243347Y-119410506D01*
X115184841Y-119336918D01*
X115120314Y-119255978D01*
X115051131Y-119169388D01*
X114978653Y-119078848D01*
X114904246Y-118986060D01*
X114844517Y-118911702D01*
X113833511Y-118911702D01*
X113827602Y-118924659D01*
X113813272Y-118946908D01*
X113812225Y-118948391D01*
X113793438Y-118978544D01*
X113773791Y-119015375D01*
X113769892Y-119023511D01*
X113766356Y-119031940D01*
X113763230Y-119042059D01*
X113760486Y-119055260D01*
X113758092Y-119072938D01*
X113756019Y-119096484D01*
X113754235Y-119127293D01*
X113752712Y-119166757D01*
X113751419Y-119216269D01*
X113750326Y-119277223D01*
X113749403Y-119351011D01*
X113748619Y-119439028D01*
X113747945Y-119542665D01*
X113747350Y-119663316D01*
X113746805Y-119802374D01*
X113746279Y-119961232D01*
X113745745Y-120140089D01*
X113745206Y-120325207D01*
X113744772Y-120489145D01*
X113744509Y-120633303D01*
X113744484Y-120759079D01*
X113744765Y-120867871D01*
X113745419Y-120961077D01*
X113746514Y-121040097D01*
X113748118Y-121106328D01*
X113750297Y-121161170D01*
X113753119Y-121206021D01*
X113756651Y-121242278D01*
X113760961Y-121271341D01*
X113766117Y-121294609D01*
X113772185Y-121313479D01*
X113779233Y-121329351D01*
X113787329Y-121343622D01*
X113796540Y-121357691D01*
X113805040Y-121370158D01*
X113822176Y-121396452D01*
X113832322Y-121414037D01*
X113833511Y-121417257D01*
X113822604Y-121418334D01*
X113791411Y-121419335D01*
X113742223Y-121420235D01*
X113677333Y-121421010D01*
X113599030Y-121421637D01*
X113509607Y-121422091D01*
X113411356Y-121422349D01*
X113342445Y-121422400D01*
X113237452Y-121422180D01*
X113140610Y-121421548D01*
X113054107Y-121420549D01*
X112980132Y-121419227D01*
X112920874Y-121417626D01*
X112878520Y-121415791D01*
X112855260Y-121413765D01*
X112851378Y-121412493D01*
X112859076Y-121397591D01*
X112867074Y-121389560D01*
X112880246Y-121372434D01*
X112897485Y-121342183D01*
X112909407Y-121317622D01*
X112936045Y-121258711D01*
X112939120Y-120081845D01*
X112942195Y-118904978D01*
X113387853Y-118904978D01*
X113485670Y-118905142D01*
X113576064Y-118905611D01*
X113656630Y-118906347D01*
X113724962Y-118907316D01*
X113778656Y-118908480D01*
X113815305Y-118909803D01*
X113832504Y-118911249D01*
X113833511Y-118911702D01*
X114844517Y-118911702D01*
X114829270Y-118892722D01*
X114755090Y-118800537D01*
X114683069Y-118711204D01*
X114614569Y-118626424D01*
X114550955Y-118547898D01*
X114493588Y-118477326D01*
X114443833Y-118416409D01*
X114403052Y-118366847D01*
X114385888Y-118346178D01*
X114299596Y-118245516D01*
X114222997Y-118162259D01*
X114154183Y-118094438D01*
X114091248Y-118040089D01*
X114081867Y-118032722D01*
X114042356Y-118002117D01*
X115174116Y-118001867D01*
X115168827Y-118049844D01*
X115172130Y-118107188D01*
X115193661Y-118175463D01*
X115233635Y-118255212D01*
X115278943Y-118327495D01*
X115295161Y-118350140D01*
X115323214Y-118387696D01*
X115361430Y-118438021D01*
X115408137Y-118498973D01*
X115461661Y-118568411D01*
X115520331Y-118644194D01*
X115582475Y-118724180D01*
X115646421Y-118806228D01*
X115710495Y-118888196D01*
X115773027Y-118967943D01*
X115832343Y-119043327D01*
X115886771Y-119112207D01*
X115934639Y-119172442D01*
X115974275Y-119221889D01*
X116004006Y-119258408D01*
X116022161Y-119279858D01*
X116025220Y-119283156D01*
X116028079Y-119275149D01*
X116030293Y-119244855D01*
X116031857Y-119192556D01*
X116032767Y-119118531D01*
X116033020Y-119023063D01*
X116032613Y-118906434D01*
X116031704Y-118786445D01*
X116030382Y-118654333D01*
X116028857Y-118542594D01*
X116026881Y-118449025D01*
X116024206Y-118371419D01*
X116020582Y-118307574D01*
X116015761Y-118255283D01*
X116009494Y-118212344D01*
X116001532Y-118176551D01*
X115991627Y-118145700D01*
X115979531Y-118117586D01*
X115964993Y-118090005D01*
X115950311Y-118064966D01*
X115912314Y-118001867D01*
X116972197Y-118001867D01*
X117275034Y-118001867D01*
X117275001Y-117995617D01*
X117274195Y-117893544D01*
X117273170Y-117804633D01*
X117271900Y-117727941D01*
X117270360Y-117662527D01*
X117268524Y-117607449D01*
X117266367Y-117561765D01*
X117263863Y-117524534D01*
X117260987Y-117494813D01*
X117257713Y-117471662D01*
X117254015Y-117454139D01*
X117249869Y-117441301D01*
X117245247Y-117432208D01*
X117240126Y-117425918D01*
X117234478Y-117421488D01*
X117228279Y-117417978D01*
X117221504Y-117414445D01*
X117215508Y-117410876D01*
X117210275Y-117408300D01*
X117202099Y-117405972D01*
X117189886Y-117403878D01*
X117172541Y-117402007D01*
X117148969Y-117400347D01*
X117118077Y-117398884D01*
X117078768Y-117397608D01*
X117029950Y-117396504D01*
X116970527Y-117395561D01*
X116899404Y-117394767D01*
X116815488Y-117394109D01*
X116717683Y-117393575D01*
X116604894Y-117393153D01*
X116476029Y-117392829D01*
X116329991Y-117392592D01*
X116165686Y-117392430D01*
X115982020Y-117392330D01*
X115777897Y-117392280D01*
X115566753Y-117392267D01*
X113946400Y-117392267D01*
X113946400Y-117489054D01*
G36*
X104771177Y-122274533D02*
G01*
X104739798Y-122296776D01*
X104712089Y-122324485D01*
X104712089Y-122633920D01*
X104712162Y-122725799D01*
X104712505Y-122797840D01*
X104713308Y-122852780D01*
X104714759Y-122893360D01*
X104717048Y-122922317D01*
X104720364Y-122942391D01*
X104724895Y-122956321D01*
X104730831Y-122966845D01*
X104735486Y-122973100D01*
X104766217Y-122997673D01*
X104801504Y-123000341D01*
X104833755Y-122985271D01*
X104844412Y-122976374D01*
X104851536Y-122964557D01*
X104855833Y-122945526D01*
X104858009Y-122914992D01*
X104858772Y-122868662D01*
X104858845Y-122832871D01*
X104858845Y-122698045D01*
X105355556Y-122698045D01*
X105355556Y-122820700D01*
X105356069Y-122876787D01*
X105358124Y-122915333D01*
X105362492Y-122941361D01*
X105369944Y-122959897D01*
X105378953Y-122973100D01*
X105409856Y-122997604D01*
X105444804Y-123000506D01*
X105478262Y-122983089D01*
X105487396Y-122973959D01*
X105493848Y-122961855D01*
X105498103Y-122943001D01*
X105500648Y-122913620D01*
X105501971Y-122869937D01*
X105502557Y-122808175D01*
X105502625Y-122794000D01*
X105503109Y-122677631D01*
X105503359Y-122581727D01*
X105503277Y-122504177D01*
X105502769Y-122442869D01*
X105501738Y-122395690D01*
X105500087Y-122360530D01*
X105497721Y-122335276D01*
X105494543Y-122317817D01*
X105490456Y-122306041D01*
X105485366Y-122297835D01*
X105479734Y-122291645D01*
X105447872Y-122271844D01*
X105414643Y-122274533D01*
X105383265Y-122296776D01*
X105370567Y-122311126D01*
X105362474Y-122326978D01*
X105357958Y-122349554D01*
X105355994Y-122384078D01*
X105355556Y-122435776D01*
X105355556Y-122551289D01*
X104858845Y-122551289D01*
X104858845Y-122432756D01*
X104858338Y-122378148D01*
X104856302Y-122341275D01*
X104851965Y-122317307D01*
X104844553Y-122301415D01*
X104836267Y-122291645D01*
X104804406Y-122271844D01*
X104771177Y-122274533D01*
G37*
X104771177Y-122274533D02*
X104739798Y-122296776D01*
X104712089Y-122324485D01*
X104712089Y-122633920D01*
X104712162Y-122725799D01*
X104712505Y-122797840D01*
X104713308Y-122852780D01*
X104714759Y-122893360D01*
X104717048Y-122922317D01*
X104720364Y-122942391D01*
X104724895Y-122956321D01*
X104730831Y-122966845D01*
X104735486Y-122973100D01*
X104766217Y-122997673D01*
X104801504Y-123000341D01*
X104833755Y-122985271D01*
X104844412Y-122976374D01*
X104851536Y-122964557D01*
X104855833Y-122945526D01*
X104858009Y-122914992D01*
X104858772Y-122868662D01*
X104858845Y-122832871D01*
X104858845Y-122698045D01*
X105355556Y-122698045D01*
X105355556Y-122820700D01*
X105356069Y-122876787D01*
X105358124Y-122915333D01*
X105362492Y-122941361D01*
X105369944Y-122959897D01*
X105378953Y-122973100D01*
X105409856Y-122997604D01*
X105444804Y-123000506D01*
X105478262Y-122983089D01*
X105487396Y-122973959D01*
X105493848Y-122961855D01*
X105498103Y-122943001D01*
X105500648Y-122913620D01*
X105501971Y-122869937D01*
X105502557Y-122808175D01*
X105502625Y-122794000D01*
X105503109Y-122677631D01*
X105503359Y-122581727D01*
X105503277Y-122504177D01*
X105502769Y-122442869D01*
X105501738Y-122395690D01*
X105500087Y-122360530D01*
X105497721Y-122335276D01*
X105494543Y-122317817D01*
X105490456Y-122306041D01*
X105485366Y-122297835D01*
X105479734Y-122291645D01*
X105447872Y-122271844D01*
X105414643Y-122274533D01*
X105383265Y-122296776D01*
X105370567Y-122311126D01*
X105362474Y-122326978D01*
X105357958Y-122349554D01*
X105355994Y-122384078D01*
X105355556Y-122435776D01*
X105355556Y-122551289D01*
X104858845Y-122551289D01*
X104858845Y-122432756D01*
X104858338Y-122378148D01*
X104856302Y-122341275D01*
X104851965Y-122317307D01*
X104844553Y-122301415D01*
X104836267Y-122291645D01*
X104804406Y-122271844D01*
X104771177Y-122274533D01*
G36*
X106036935Y-122269163D02*
G01*
X105958228Y-122269542D01*
X105897137Y-122270333D01*
X105851183Y-122271670D01*
X105817886Y-122273683D01*
X105794764Y-122276506D01*
X105779338Y-122280269D01*
X105769129Y-122285105D01*
X105764187Y-122288822D01*
X105738543Y-122321358D01*
X105735441Y-122355138D01*
X105751289Y-122385826D01*
X105761652Y-122398089D01*
X105772804Y-122406450D01*
X105788965Y-122411657D01*
X105814358Y-122414457D01*
X105853202Y-122415596D01*
X105909720Y-122415821D01*
X105920820Y-122415822D01*
X106066756Y-122415822D01*
X106066756Y-122686756D01*
X106066852Y-122772154D01*
X106067289Y-122837864D01*
X106068288Y-122886774D01*
X106070072Y-122921773D01*
X106072863Y-122945749D01*
X106076883Y-122961593D01*
X106082355Y-122972191D01*
X106089334Y-122980267D01*
X106122266Y-123000112D01*
X106156646Y-122998548D01*
X106187824Y-122975906D01*
X106190114Y-122973100D01*
X106197571Y-122962492D01*
X106203253Y-122950081D01*
X106207399Y-122932850D01*
X106210250Y-122907784D01*
X106212046Y-122871867D01*
X106213028Y-122822083D01*
X106213436Y-122755417D01*
X106213511Y-122679589D01*
X106213511Y-122415822D01*
X106352873Y-122415822D01*
X106412678Y-122415418D01*
X106454082Y-122413840D01*
X106481252Y-122410547D01*
X106498354Y-122404992D01*
X106509557Y-122396631D01*
X106510917Y-122395178D01*
X106527275Y-122361939D01*
X106525828Y-122324362D01*
X106507022Y-122291645D01*
X106499750Y-122285298D01*
X106490373Y-122280266D01*
X106476391Y-122276396D01*
X106455304Y-122273537D01*
X106424611Y-122271535D01*
X106381811Y-122270239D01*
X106324405Y-122269498D01*
X106249890Y-122269158D01*
X106155767Y-122269068D01*
X106135740Y-122269067D01*
X106036935Y-122269163D01*
G37*
X106036935Y-122269163D02*
X105958228Y-122269542D01*
X105897137Y-122270333D01*
X105851183Y-122271670D01*
X105817886Y-122273683D01*
X105794764Y-122276506D01*
X105779338Y-122280269D01*
X105769129Y-122285105D01*
X105764187Y-122288822D01*
X105738543Y-122321358D01*
X105735441Y-122355138D01*
X105751289Y-122385826D01*
X105761652Y-122398089D01*
X105772804Y-122406450D01*
X105788965Y-122411657D01*
X105814358Y-122414457D01*
X105853202Y-122415596D01*
X105909720Y-122415821D01*
X105920820Y-122415822D01*
X106066756Y-122415822D01*
X106066756Y-122686756D01*
X106066852Y-122772154D01*
X106067289Y-122837864D01*
X106068288Y-122886774D01*
X106070072Y-122921773D01*
X106072863Y-122945749D01*
X106076883Y-122961593D01*
X106082355Y-122972191D01*
X106089334Y-122980267D01*
X106122266Y-123000112D01*
X106156646Y-122998548D01*
X106187824Y-122975906D01*
X106190114Y-122973100D01*
X106197571Y-122962492D01*
X106203253Y-122950081D01*
X106207399Y-122932850D01*
X106210250Y-122907784D01*
X106212046Y-122871867D01*
X106213028Y-122822083D01*
X106213436Y-122755417D01*
X106213511Y-122679589D01*
X106213511Y-122415822D01*
X106352873Y-122415822D01*
X106412678Y-122415418D01*
X106454082Y-122413840D01*
X106481252Y-122410547D01*
X106498354Y-122404992D01*
X106509557Y-122396631D01*
X106510917Y-122395178D01*
X106527275Y-122361939D01*
X106525828Y-122324362D01*
X106507022Y-122291645D01*
X106499750Y-122285298D01*
X106490373Y-122280266D01*
X106476391Y-122276396D01*
X106455304Y-122273537D01*
X106424611Y-122271535D01*
X106381811Y-122270239D01*
X106324405Y-122269498D01*
X106249890Y-122269158D01*
X106155767Y-122269068D01*
X106135740Y-122269067D01*
X106036935Y-122269163D01*
G36*
X106811386Y-122275877D02*
G01*
X106787673Y-122290647D01*
X106761022Y-122312227D01*
X106761022Y-122633773D01*
X106761107Y-122727830D01*
X106761471Y-122801932D01*
X106762276Y-122858704D01*
X106763687Y-122900768D01*
X106765867Y-122930748D01*
X106768979Y-122951267D01*
X106773186Y-122964949D01*
X106778652Y-122974416D01*
X106782528Y-122979082D01*
X106813966Y-122999575D01*
X106849767Y-122998739D01*
X106881127Y-122981264D01*
X106907778Y-122959684D01*
X106907778Y-122312227D01*
X106881127Y-122290647D01*
X106855406Y-122274949D01*
X106834400Y-122269067D01*
X106811386Y-122275877D01*
G37*
X106811386Y-122275877D02*
X106787673Y-122290647D01*
X106761022Y-122312227D01*
X106761022Y-122633773D01*
X106761107Y-122727830D01*
X106761471Y-122801932D01*
X106762276Y-122858704D01*
X106763687Y-122900768D01*
X106765867Y-122930748D01*
X106768979Y-122951267D01*
X106773186Y-122964949D01*
X106778652Y-122974416D01*
X106782528Y-122979082D01*
X106813966Y-122999575D01*
X106849767Y-122998739D01*
X106881127Y-122981264D01*
X106907778Y-122959684D01*
X106907778Y-122312227D01*
X106881127Y-122290647D01*
X106855406Y-122274949D01*
X106834400Y-122269067D01*
X106811386Y-122275877D01*
G36*
X107255335Y-122271034D02*
G01*
X107235745Y-122278035D01*
X107234990Y-122278377D01*
X107208387Y-122298678D01*
X107193730Y-122319561D01*
X107190862Y-122329352D01*
X107191004Y-122342361D01*
X107195039Y-122360895D01*
X107203854Y-122387257D01*
X107218331Y-122423752D01*
X107239355Y-122472687D01*
X107267812Y-122536365D01*
X107304585Y-122617093D01*
X107324825Y-122661216D01*
X107361375Y-122739985D01*
X107395685Y-122812423D01*
X107426448Y-122875880D01*
X107452352Y-122927708D01*
X107472090Y-122965259D01*
X107484350Y-122985884D01*
X107486776Y-122988733D01*
X107517817Y-123001302D01*
X107552879Y-122999619D01*
X107581000Y-122984332D01*
X107582146Y-122983089D01*
X107593332Y-122966154D01*
X107612096Y-122933170D01*
X107636125Y-122888380D01*
X107663103Y-122836032D01*
X107672799Y-122816742D01*
X107745986Y-122670150D01*
X107825760Y-122829393D01*
X107854233Y-122884415D01*
X107880650Y-122932132D01*
X107902852Y-122968893D01*
X107918681Y-122991044D01*
X107924046Y-122995741D01*
X107965743Y-123002102D01*
X108000151Y-122988733D01*
X108010272Y-122974446D01*
X108027786Y-122942692D01*
X108051265Y-122896597D01*
X108079280Y-122839285D01*
X108110401Y-122773880D01*
X108143201Y-122703507D01*
X108176250Y-122631291D01*
X108208119Y-122560355D01*
X108237381Y-122493825D01*
X108262605Y-122434826D01*
X108282364Y-122386481D01*
X108295228Y-122351915D01*
X108299769Y-122334253D01*
X108299723Y-122333613D01*
X108288674Y-122311388D01*
X108266590Y-122288753D01*
X108265290Y-122287768D01*
X108238147Y-122272425D01*
X108213042Y-122272574D01*
X108203632Y-122275466D01*
X108192166Y-122281718D01*
X108179990Y-122294014D01*
X108165643Y-122314908D01*
X108147664Y-122346949D01*
X108124593Y-122392688D01*
X108094970Y-122454677D01*
X108068255Y-122511898D01*
X108037520Y-122578226D01*
X108009979Y-122637874D01*
X107987062Y-122687725D01*
X107970202Y-122724664D01*
X107960827Y-122745573D01*
X107959460Y-122748845D01*
X107953311Y-122743497D01*
X107939178Y-122721109D01*
X107918943Y-122684946D01*
X107894485Y-122638277D01*
X107884752Y-122619022D01*
X107851783Y-122554004D01*
X107826357Y-122506654D01*
X107806388Y-122474219D01*
X107789790Y-122453946D01*
X107774476Y-122443082D01*
X107758360Y-122438875D01*
X107747857Y-122438400D01*
X107729330Y-122440042D01*
X107713096Y-122446831D01*
X107696965Y-122461566D01*
X107678749Y-122487044D01*
X107656261Y-122526061D01*
X107627311Y-122581414D01*
X107611338Y-122612903D01*
X107585430Y-122663087D01*
X107562833Y-122704704D01*
X107545542Y-122734242D01*
X107535550Y-122748189D01*
X107534191Y-122748770D01*
X107527739Y-122737793D01*
X107513292Y-122709290D01*
X107492297Y-122666244D01*
X107466203Y-122611638D01*
X107436454Y-122548454D01*
X107421820Y-122517071D01*
X107383750Y-122436078D01*
X107353095Y-122373756D01*
X107328263Y-122328071D01*
X107307663Y-122296989D01*
X107289702Y-122278478D01*
X107272790Y-122270504D01*
X107255335Y-122271034D01*
G37*
X107255335Y-122271034D02*
X107235745Y-122278035D01*
X107234990Y-122278377D01*
X107208387Y-122298678D01*
X107193730Y-122319561D01*
X107190862Y-122329352D01*
X107191004Y-122342361D01*
X107195039Y-122360895D01*
X107203854Y-122387257D01*
X107218331Y-122423752D01*
X107239355Y-122472687D01*
X107267812Y-122536365D01*
X107304585Y-122617093D01*
X107324825Y-122661216D01*
X107361375Y-122739985D01*
X107395685Y-122812423D01*
X107426448Y-122875880D01*
X107452352Y-122927708D01*
X107472090Y-122965259D01*
X107484350Y-122985884D01*
X107486776Y-122988733D01*
X107517817Y-123001302D01*
X107552879Y-122999619D01*
X107581000Y-122984332D01*
X107582146Y-122983089D01*
X107593332Y-122966154D01*
X107612096Y-122933170D01*
X107636125Y-122888380D01*
X107663103Y-122836032D01*
X107672799Y-122816742D01*
X107745986Y-122670150D01*
X107825760Y-122829393D01*
X107854233Y-122884415D01*
X107880650Y-122932132D01*
X107902852Y-122968893D01*
X107918681Y-122991044D01*
X107924046Y-122995741D01*
X107965743Y-123002102D01*
X108000151Y-122988733D01*
X108010272Y-122974446D01*
X108027786Y-122942692D01*
X108051265Y-122896597D01*
X108079280Y-122839285D01*
X108110401Y-122773880D01*
X108143201Y-122703507D01*
X108176250Y-122631291D01*
X108208119Y-122560355D01*
X108237381Y-122493825D01*
X108262605Y-122434826D01*
X108282364Y-122386481D01*
X108295228Y-122351915D01*
X108299769Y-122334253D01*
X108299723Y-122333613D01*
X108288674Y-122311388D01*
X108266590Y-122288753D01*
X108265290Y-122287768D01*
X108238147Y-122272425D01*
X108213042Y-122272574D01*
X108203632Y-122275466D01*
X108192166Y-122281718D01*
X108179990Y-122294014D01*
X108165643Y-122314908D01*
X108147664Y-122346949D01*
X108124593Y-122392688D01*
X108094970Y-122454677D01*
X108068255Y-122511898D01*
X108037520Y-122578226D01*
X108009979Y-122637874D01*
X107987062Y-122687725D01*
X107970202Y-122724664D01*
X107960827Y-122745573D01*
X107959460Y-122748845D01*
X107953311Y-122743497D01*
X107939178Y-122721109D01*
X107918943Y-122684946D01*
X107894485Y-122638277D01*
X107884752Y-122619022D01*
X107851783Y-122554004D01*
X107826357Y-122506654D01*
X107806388Y-122474219D01*
X107789790Y-122453946D01*
X107774476Y-122443082D01*
X107758360Y-122438875D01*
X107747857Y-122438400D01*
X107729330Y-122440042D01*
X107713096Y-122446831D01*
X107696965Y-122461566D01*
X107678749Y-122487044D01*
X107656261Y-122526061D01*
X107627311Y-122581414D01*
X107611338Y-122612903D01*
X107585430Y-122663087D01*
X107562833Y-122704704D01*
X107545542Y-122734242D01*
X107535550Y-122748189D01*
X107534191Y-122748770D01*
X107527739Y-122737793D01*
X107513292Y-122709290D01*
X107492297Y-122666244D01*
X107466203Y-122611638D01*
X107436454Y-122548454D01*
X107421820Y-122517071D01*
X107383750Y-122436078D01*
X107353095Y-122373756D01*
X107328263Y-122328071D01*
X107307663Y-122296989D01*
X107289702Y-122278478D01*
X107272790Y-122270504D01*
X107255335Y-122271034D01*
G36*
X109981691Y-122269275D02*
G01*
X109852712Y-122273636D01*
X109743009Y-122286861D01*
X109650774Y-122309741D01*
X109574198Y-122343070D01*
X109511473Y-122387638D01*
X109460788Y-122444236D01*
X109420337Y-122513658D01*
X109419541Y-122515351D01*
X109395399Y-122577483D01*
X109386797Y-122632509D01*
X109393769Y-122687887D01*
X109416346Y-122751073D01*
X109420628Y-122760689D01*
X109449828Y-122816966D01*
X109482644Y-122860451D01*
X109524998Y-122897417D01*
X109582810Y-122934135D01*
X109586169Y-122936052D01*
X109636496Y-122960227D01*
X109693379Y-122978282D01*
X109760473Y-122990839D01*
X109841435Y-122998522D01*
X109939918Y-123001953D01*
X109974714Y-123002251D01*
X110140406Y-123002845D01*
X110163803Y-122973100D01*
X110170743Y-122963319D01*
X110176158Y-122951897D01*
X110180235Y-122936095D01*
X110183163Y-122913175D01*
X110185133Y-122880396D01*
X110185775Y-122856089D01*
X110029156Y-122856089D01*
X109935274Y-122856089D01*
X109880336Y-122854483D01*
X109823940Y-122850255D01*
X109777655Y-122844292D01*
X109774861Y-122843790D01*
X109692652Y-122821736D01*
X109628886Y-122788600D01*
X109581548Y-122742847D01*
X109548618Y-122682939D01*
X109542892Y-122667061D01*
X109537279Y-122642333D01*
X109539709Y-122617902D01*
X109551533Y-122585400D01*
X109558660Y-122569434D01*
X109582000Y-122527006D01*
X109610120Y-122497240D01*
X109641060Y-122476511D01*
X109703034Y-122449537D01*
X109782349Y-122429998D01*
X109874747Y-122418746D01*
X109941667Y-122416270D01*
X110029156Y-122415822D01*
X110029156Y-122856089D01*
X110185775Y-122856089D01*
X110186332Y-122835021D01*
X110186950Y-122774311D01*
X110187175Y-122695526D01*
X110187200Y-122633920D01*
X110187200Y-122324485D01*
X110159491Y-122296776D01*
X110147194Y-122285544D01*
X110133897Y-122277853D01*
X110115328Y-122273040D01*
X110087214Y-122270446D01*
X110045283Y-122269410D01*
X109985263Y-122269270D01*
X109981691Y-122269275D01*
G37*
X109981691Y-122269275D02*
X109852712Y-122273636D01*
X109743009Y-122286861D01*
X109650774Y-122309741D01*
X109574198Y-122343070D01*
X109511473Y-122387638D01*
X109460788Y-122444236D01*
X109420337Y-122513658D01*
X109419541Y-122515351D01*
X109395399Y-122577483D01*
X109386797Y-122632509D01*
X109393769Y-122687887D01*
X109416346Y-122751073D01*
X109420628Y-122760689D01*
X109449828Y-122816966D01*
X109482644Y-122860451D01*
X109524998Y-122897417D01*
X109582810Y-122934135D01*
X109586169Y-122936052D01*
X109636496Y-122960227D01*
X109693379Y-122978282D01*
X109760473Y-122990839D01*
X109841435Y-122998522D01*
X109939918Y-123001953D01*
X109974714Y-123002251D01*
X110140406Y-123002845D01*
X110163803Y-122973100D01*
X110170743Y-122963319D01*
X110176158Y-122951897D01*
X110180235Y-122936095D01*
X110183163Y-122913175D01*
X110185133Y-122880396D01*
X110185775Y-122856089D01*
X110029156Y-122856089D01*
X109935274Y-122856089D01*
X109880336Y-122854483D01*
X109823940Y-122850255D01*
X109777655Y-122844292D01*
X109774861Y-122843790D01*
X109692652Y-122821736D01*
X109628886Y-122788600D01*
X109581548Y-122742847D01*
X109548618Y-122682939D01*
X109542892Y-122667061D01*
X109537279Y-122642333D01*
X109539709Y-122617902D01*
X109551533Y-122585400D01*
X109558660Y-122569434D01*
X109582000Y-122527006D01*
X109610120Y-122497240D01*
X109641060Y-122476511D01*
X109703034Y-122449537D01*
X109782349Y-122429998D01*
X109874747Y-122418746D01*
X109941667Y-122416270D01*
X110029156Y-122415822D01*
X110029156Y-122856089D01*
X110185775Y-122856089D01*
X110186332Y-122835021D01*
X110186950Y-122774311D01*
X110187175Y-122695526D01*
X110187200Y-122633920D01*
X110187200Y-122324485D01*
X110159491Y-122296776D01*
X110147194Y-122285544D01*
X110133897Y-122277853D01*
X110115328Y-122273040D01*
X110087214Y-122270446D01*
X110045283Y-122269410D01*
X109985263Y-122269270D01*
X109981691Y-122269275D01*
G36*
X110769657Y-122269260D02*
G01*
X110693299Y-122270174D01*
X110634783Y-122272311D01*
X110591745Y-122276175D01*
X110561817Y-122282267D01*
X110542632Y-122291090D01*
X110531824Y-122303146D01*
X110527027Y-122318939D01*
X110525873Y-122338970D01*
X110525867Y-122341335D01*
X110526869Y-122363992D01*
X110531604Y-122381503D01*
X110542667Y-122394574D01*
X110562652Y-122403913D01*
X110594154Y-122410227D01*
X110639768Y-122414222D01*
X110702087Y-122416606D01*
X110783707Y-122418086D01*
X110808723Y-122418414D01*
X111050800Y-122421467D01*
X111054186Y-122486378D01*
X111057571Y-122551289D01*
X110889424Y-122551289D01*
X110823734Y-122551531D01*
X110776828Y-122552556D01*
X110744917Y-122554811D01*
X110724209Y-122558742D01*
X110710916Y-122564798D01*
X110701245Y-122573424D01*
X110701183Y-122573493D01*
X110683644Y-122607112D01*
X110684278Y-122643448D01*
X110702686Y-122674423D01*
X110706329Y-122677607D01*
X110719259Y-122685812D01*
X110736976Y-122691521D01*
X110763430Y-122695162D01*
X110802568Y-122697167D01*
X110858338Y-122697964D01*
X110894006Y-122698045D01*
X111056445Y-122698045D01*
X111056445Y-122856089D01*
X110809839Y-122856089D01*
X110728420Y-122856231D01*
X110666590Y-122856814D01*
X110621363Y-122858068D01*
X110589752Y-122860227D01*
X110568769Y-122863523D01*
X110555427Y-122868189D01*
X110546739Y-122874457D01*
X110544550Y-122876733D01*
X110528386Y-122908280D01*
X110527203Y-122944168D01*
X110540464Y-122975285D01*
X110550957Y-122985271D01*
X110561871Y-122990769D01*
X110578783Y-122995022D01*
X110604367Y-122998180D01*
X110641299Y-123000392D01*
X110692254Y-123001806D01*
X110759906Y-123002572D01*
X110846931Y-123002838D01*
X110866606Y-123002845D01*
X110955089Y-123002787D01*
X111023773Y-123002467D01*
X111075436Y-123001667D01*
X111112855Y-123000167D01*
X111138810Y-122997749D01*
X111156078Y-122994194D01*
X111167438Y-122989282D01*
X111175668Y-122982795D01*
X111180183Y-122978138D01*
X111186979Y-122969889D01*
X111192288Y-122959669D01*
X111196294Y-122944800D01*
X111199179Y-122922602D01*
X111201126Y-122890393D01*
X111202319Y-122845496D01*
X111202939Y-122785228D01*
X111203171Y-122706911D01*
X111203200Y-122640994D01*
X111203129Y-122548628D01*
X111202792Y-122476117D01*
X111202002Y-122420737D01*
X111200574Y-122379765D01*
X111198321Y-122350478D01*
X111195057Y-122330153D01*
X111190596Y-122316066D01*
X111184752Y-122305495D01*
X111179803Y-122298811D01*
X111156406Y-122269067D01*
X110866226Y-122269067D01*
X110769657Y-122269260D01*
G37*
X110769657Y-122269260D02*
X110693299Y-122270174D01*
X110634783Y-122272311D01*
X110591745Y-122276175D01*
X110561817Y-122282267D01*
X110542632Y-122291090D01*
X110531824Y-122303146D01*
X110527027Y-122318939D01*
X110525873Y-122338970D01*
X110525867Y-122341335D01*
X110526869Y-122363992D01*
X110531604Y-122381503D01*
X110542667Y-122394574D01*
X110562652Y-122403913D01*
X110594154Y-122410227D01*
X110639768Y-122414222D01*
X110702087Y-122416606D01*
X110783707Y-122418086D01*
X110808723Y-122418414D01*
X111050800Y-122421467D01*
X111054186Y-122486378D01*
X111057571Y-122551289D01*
X110889424Y-122551289D01*
X110823734Y-122551531D01*
X110776828Y-122552556D01*
X110744917Y-122554811D01*
X110724209Y-122558742D01*
X110710916Y-122564798D01*
X110701245Y-122573424D01*
X110701183Y-122573493D01*
X110683644Y-122607112D01*
X110684278Y-122643448D01*
X110702686Y-122674423D01*
X110706329Y-122677607D01*
X110719259Y-122685812D01*
X110736976Y-122691521D01*
X110763430Y-122695162D01*
X110802568Y-122697167D01*
X110858338Y-122697964D01*
X110894006Y-122698045D01*
X111056445Y-122698045D01*
X111056445Y-122856089D01*
X110809839Y-122856089D01*
X110728420Y-122856231D01*
X110666590Y-122856814D01*
X110621363Y-122858068D01*
X110589752Y-122860227D01*
X110568769Y-122863523D01*
X110555427Y-122868189D01*
X110546739Y-122874457D01*
X110544550Y-122876733D01*
X110528386Y-122908280D01*
X110527203Y-122944168D01*
X110540464Y-122975285D01*
X110550957Y-122985271D01*
X110561871Y-122990769D01*
X110578783Y-122995022D01*
X110604367Y-122998180D01*
X110641299Y-123000392D01*
X110692254Y-123001806D01*
X110759906Y-123002572D01*
X110846931Y-123002838D01*
X110866606Y-123002845D01*
X110955089Y-123002787D01*
X111023773Y-123002467D01*
X111075436Y-123001667D01*
X111112855Y-123000167D01*
X111138810Y-122997749D01*
X111156078Y-122994194D01*
X111167438Y-122989282D01*
X111175668Y-122982795D01*
X111180183Y-122978138D01*
X111186979Y-122969889D01*
X111192288Y-122959669D01*
X111196294Y-122944800D01*
X111199179Y-122922602D01*
X111201126Y-122890393D01*
X111202319Y-122845496D01*
X111202939Y-122785228D01*
X111203171Y-122706911D01*
X111203200Y-122640994D01*
X111203129Y-122548628D01*
X111202792Y-122476117D01*
X111202002Y-122420737D01*
X111200574Y-122379765D01*
X111198321Y-122350478D01*
X111195057Y-122330153D01*
X111190596Y-122316066D01*
X111184752Y-122305495D01*
X111179803Y-122298811D01*
X111156406Y-122269067D01*
X110866226Y-122269067D01*
X110769657Y-122269260D01*
G36*
X112300114Y-122273448D02*
G01*
X112276548Y-122287273D01*
X112245735Y-122309881D01*
X112206078Y-122342338D01*
X112155980Y-122385708D01*
X112093843Y-122441058D01*
X112018072Y-122509451D01*
X111931334Y-122588084D01*
X111750711Y-122751878D01*
X111745067Y-122532029D01*
X111743029Y-122456351D01*
X111741063Y-122399994D01*
X111738734Y-122359706D01*
X111735606Y-122332235D01*
X111731245Y-122314329D01*
X111725216Y-122302737D01*
X111717084Y-122294208D01*
X111712772Y-122290623D01*
X111678241Y-122271670D01*
X111645383Y-122274441D01*
X111619318Y-122290633D01*
X111592667Y-122312199D01*
X111589352Y-122627151D01*
X111588435Y-122719779D01*
X111587968Y-122792544D01*
X111588113Y-122848161D01*
X111589032Y-122889342D01*
X111590887Y-122918803D01*
X111593839Y-122939255D01*
X111598050Y-122953413D01*
X111603682Y-122963991D01*
X111609927Y-122972474D01*
X111623439Y-122988207D01*
X111636883Y-122998636D01*
X111652124Y-123002639D01*
X111671026Y-122999094D01*
X111695455Y-122986879D01*
X111727273Y-122964871D01*
X111768348Y-122931949D01*
X111820542Y-122886991D01*
X111885722Y-122828875D01*
X111959556Y-122762099D01*
X112224845Y-122521458D01*
X112230489Y-122740589D01*
X112232531Y-122816128D01*
X112234502Y-122872354D01*
X112236839Y-122912524D01*
X112239981Y-122939896D01*
X112244364Y-122957728D01*
X112250424Y-122969279D01*
X112258600Y-122977807D01*
X112262784Y-122981282D01*
X112299765Y-123000372D01*
X112334708Y-122997493D01*
X112365136Y-122973100D01*
X112372097Y-122963286D01*
X112377523Y-122951826D01*
X112381603Y-122935968D01*
X112384529Y-122912963D01*
X112386492Y-122880062D01*
X112387683Y-122834516D01*
X112388292Y-122773573D01*
X112388511Y-122694486D01*
X112388534Y-122635956D01*
X112388460Y-122544407D01*
X112388113Y-122472687D01*
X112387301Y-122418045D01*
X112385833Y-122377732D01*
X112383519Y-122348998D01*
X112380167Y-122329093D01*
X112375588Y-122315268D01*
X112369589Y-122304772D01*
X112365136Y-122298811D01*
X112353850Y-122284691D01*
X112343301Y-122274029D01*
X112331893Y-122267892D01*
X112318030Y-122267343D01*
X112300114Y-122273448D01*
G37*
X112300114Y-122273448D02*
X112276548Y-122287273D01*
X112245735Y-122309881D01*
X112206078Y-122342338D01*
X112155980Y-122385708D01*
X112093843Y-122441058D01*
X112018072Y-122509451D01*
X111931334Y-122588084D01*
X111750711Y-122751878D01*
X111745067Y-122532029D01*
X111743029Y-122456351D01*
X111741063Y-122399994D01*
X111738734Y-122359706D01*
X111735606Y-122332235D01*
X111731245Y-122314329D01*
X111725216Y-122302737D01*
X111717084Y-122294208D01*
X111712772Y-122290623D01*
X111678241Y-122271670D01*
X111645383Y-122274441D01*
X111619318Y-122290633D01*
X111592667Y-122312199D01*
X111589352Y-122627151D01*
X111588435Y-122719779D01*
X111587968Y-122792544D01*
X111588113Y-122848161D01*
X111589032Y-122889342D01*
X111590887Y-122918803D01*
X111593839Y-122939255D01*
X111598050Y-122953413D01*
X111603682Y-122963991D01*
X111609927Y-122972474D01*
X111623439Y-122988207D01*
X111636883Y-122998636D01*
X111652124Y-123002639D01*
X111671026Y-122999094D01*
X111695455Y-122986879D01*
X111727273Y-122964871D01*
X111768348Y-122931949D01*
X111820542Y-122886991D01*
X111885722Y-122828875D01*
X111959556Y-122762099D01*
X112224845Y-122521458D01*
X112230489Y-122740589D01*
X112232531Y-122816128D01*
X112234502Y-122872354D01*
X112236839Y-122912524D01*
X112239981Y-122939896D01*
X112244364Y-122957728D01*
X112250424Y-122969279D01*
X112258600Y-122977807D01*
X112262784Y-122981282D01*
X112299765Y-123000372D01*
X112334708Y-122997493D01*
X112365136Y-122973100D01*
X112372097Y-122963286D01*
X112377523Y-122951826D01*
X112381603Y-122935968D01*
X112384529Y-122912963D01*
X112386492Y-122880062D01*
X112387683Y-122834516D01*
X112388292Y-122773573D01*
X112388511Y-122694486D01*
X112388534Y-122635956D01*
X112388460Y-122544407D01*
X112388113Y-122472687D01*
X112387301Y-122418045D01*
X112385833Y-122377732D01*
X112383519Y-122348998D01*
X112380167Y-122329093D01*
X112375588Y-122315268D01*
X112369589Y-122304772D01*
X112365136Y-122298811D01*
X112353850Y-122284691D01*
X112343301Y-122274029D01*
X112331893Y-122267892D01*
X112318030Y-122267343D01*
X112300114Y-122273448D01*
G36*
X112950081Y-122274599D02*
G01*
X112881565Y-122286095D01*
X112828943Y-122303967D01*
X112794708Y-122327499D01*
X112785379Y-122340924D01*
X112775893Y-122372148D01*
X112782277Y-122400395D01*
X112802430Y-122427182D01*
X112833745Y-122439713D01*
X112879183Y-122438696D01*
X112914326Y-122431906D01*
X112992419Y-122418971D01*
X113072226Y-122417742D01*
X113161555Y-122428241D01*
X113186229Y-122432690D01*
X113269291Y-122456108D01*
X113334273Y-122490945D01*
X113380461Y-122536604D01*
X113407145Y-122592494D01*
X113412663Y-122621388D01*
X113409051Y-122680012D01*
X113385729Y-122731879D01*
X113344824Y-122775978D01*
X113288459Y-122811299D01*
X113218760Y-122836829D01*
X113137852Y-122851559D01*
X113047860Y-122854478D01*
X112950910Y-122844575D01*
X112945436Y-122843641D01*
X112906875Y-122836459D01*
X112885494Y-122829521D01*
X112876227Y-122819227D01*
X112874006Y-122801976D01*
X112873956Y-122792841D01*
X112873956Y-122754489D01*
X112942431Y-122754489D01*
X113002900Y-122750347D01*
X113044165Y-122737147D01*
X113068175Y-122713730D01*
X113076877Y-122678936D01*
X113076983Y-122674394D01*
X113071892Y-122644654D01*
X113054433Y-122623419D01*
X113021939Y-122609366D01*
X112971743Y-122601173D01*
X112923123Y-122598161D01*
X112852456Y-122596433D01*
X112801198Y-122599070D01*
X112766239Y-122608800D01*
X112744470Y-122628353D01*
X112732780Y-122660456D01*
X112728060Y-122707838D01*
X112727200Y-122770071D01*
X112728609Y-122839535D01*
X112732848Y-122886786D01*
X112739936Y-122912012D01*
X112741311Y-122913988D01*
X112780228Y-122945508D01*
X112837286Y-122970470D01*
X112908869Y-122988340D01*
X112991358Y-122998586D01*
X113081139Y-123000673D01*
X113174592Y-122994068D01*
X113229556Y-122985956D01*
X113315766Y-122961554D01*
X113395892Y-122921662D01*
X113462977Y-122869887D01*
X113473173Y-122859539D01*
X113506302Y-122816035D01*
X113536194Y-122762118D01*
X113559357Y-122705592D01*
X113572298Y-122654259D01*
X113573858Y-122634544D01*
X113567218Y-122593419D01*
X113549568Y-122542252D01*
X113524297Y-122488394D01*
X113494789Y-122439195D01*
X113468719Y-122406334D01*
X113407765Y-122357452D01*
X113328969Y-122318545D01*
X113235157Y-122290494D01*
X113129150Y-122274179D01*
X113032000Y-122270192D01*
X112950081Y-122274599D01*
G37*
X112950081Y-122274599D02*
X112881565Y-122286095D01*
X112828943Y-122303967D01*
X112794708Y-122327499D01*
X112785379Y-122340924D01*
X112775893Y-122372148D01*
X112782277Y-122400395D01*
X112802430Y-122427182D01*
X112833745Y-122439713D01*
X112879183Y-122438696D01*
X112914326Y-122431906D01*
X112992419Y-122418971D01*
X113072226Y-122417742D01*
X113161555Y-122428241D01*
X113186229Y-122432690D01*
X113269291Y-122456108D01*
X113334273Y-122490945D01*
X113380461Y-122536604D01*
X113407145Y-122592494D01*
X113412663Y-122621388D01*
X113409051Y-122680012D01*
X113385729Y-122731879D01*
X113344824Y-122775978D01*
X113288459Y-122811299D01*
X113218760Y-122836829D01*
X113137852Y-122851559D01*
X113047860Y-122854478D01*
X112950910Y-122844575D01*
X112945436Y-122843641D01*
X112906875Y-122836459D01*
X112885494Y-122829521D01*
X112876227Y-122819227D01*
X112874006Y-122801976D01*
X112873956Y-122792841D01*
X112873956Y-122754489D01*
X112942431Y-122754489D01*
X113002900Y-122750347D01*
X113044165Y-122737147D01*
X113068175Y-122713730D01*
X113076877Y-122678936D01*
X113076983Y-122674394D01*
X113071892Y-122644654D01*
X113054433Y-122623419D01*
X113021939Y-122609366D01*
X112971743Y-122601173D01*
X112923123Y-122598161D01*
X112852456Y-122596433D01*
X112801198Y-122599070D01*
X112766239Y-122608800D01*
X112744470Y-122628353D01*
X112732780Y-122660456D01*
X112728060Y-122707838D01*
X112727200Y-122770071D01*
X112728609Y-122839535D01*
X112732848Y-122886786D01*
X112739936Y-122912012D01*
X112741311Y-122913988D01*
X112780228Y-122945508D01*
X112837286Y-122970470D01*
X112908869Y-122988340D01*
X112991358Y-122998586D01*
X113081139Y-123000673D01*
X113174592Y-122994068D01*
X113229556Y-122985956D01*
X113315766Y-122961554D01*
X113395892Y-122921662D01*
X113462977Y-122869887D01*
X113473173Y-122859539D01*
X113506302Y-122816035D01*
X113536194Y-122762118D01*
X113559357Y-122705592D01*
X113572298Y-122654259D01*
X113573858Y-122634544D01*
X113567218Y-122593419D01*
X113549568Y-122542252D01*
X113524297Y-122488394D01*
X113494789Y-122439195D01*
X113468719Y-122406334D01*
X113407765Y-122357452D01*
X113328969Y-122318545D01*
X113235157Y-122290494D01*
X113129150Y-122274179D01*
X113032000Y-122270192D01*
X112950081Y-122274599D01*
G36*
X113923822Y-122291645D02*
G01*
X113917242Y-122299218D01*
X113912079Y-122308987D01*
X113908164Y-122323571D01*
X113905324Y-122345585D01*
X113903387Y-122377648D01*
X113902183Y-122422375D01*
X113901539Y-122482385D01*
X113901284Y-122560294D01*
X113901245Y-122635956D01*
X113901314Y-122729802D01*
X113901638Y-122803689D01*
X113902386Y-122860232D01*
X113903732Y-122902049D01*
X113905846Y-122931757D01*
X113908900Y-122951973D01*
X113913066Y-122965314D01*
X113918516Y-122974398D01*
X113923822Y-122980267D01*
X113956826Y-122999947D01*
X113991991Y-122998181D01*
X114023455Y-122976717D01*
X114030684Y-122968337D01*
X114036334Y-122958614D01*
X114040599Y-122944861D01*
X114043673Y-122924389D01*
X114045752Y-122894512D01*
X114047030Y-122852541D01*
X114047701Y-122795789D01*
X114047959Y-122721567D01*
X114048000Y-122637537D01*
X114048000Y-122324485D01*
X114020291Y-122296776D01*
X113986137Y-122273463D01*
X113953006Y-122272623D01*
X113923822Y-122291645D01*
G37*
X113923822Y-122291645D02*
X113917242Y-122299218D01*
X113912079Y-122308987D01*
X113908164Y-122323571D01*
X113905324Y-122345585D01*
X113903387Y-122377648D01*
X113902183Y-122422375D01*
X113901539Y-122482385D01*
X113901284Y-122560294D01*
X113901245Y-122635956D01*
X113901314Y-122729802D01*
X113901638Y-122803689D01*
X113902386Y-122860232D01*
X113903732Y-122902049D01*
X113905846Y-122931757D01*
X113908900Y-122951973D01*
X113913066Y-122965314D01*
X113918516Y-122974398D01*
X113923822Y-122980267D01*
X113956826Y-122999947D01*
X113991991Y-122998181D01*
X114023455Y-122976717D01*
X114030684Y-122968337D01*
X114036334Y-122958614D01*
X114040599Y-122944861D01*
X114043673Y-122924389D01*
X114045752Y-122894512D01*
X114047030Y-122852541D01*
X114047701Y-122795789D01*
X114047959Y-122721567D01*
X114048000Y-122637537D01*
X114048000Y-122324485D01*
X114020291Y-122296776D01*
X113986137Y-122273463D01*
X113953006Y-122272623D01*
X113923822Y-122291645D01*
G36*
X114691703Y-122270351D02*
G01*
X114616888Y-122275581D01*
X114547306Y-122283750D01*
X114487002Y-122294550D01*
X114440020Y-122307673D01*
X114410406Y-122322813D01*
X114405860Y-122327269D01*
X114390054Y-122361850D01*
X114394847Y-122397351D01*
X114419364Y-122427725D01*
X114420534Y-122428596D01*
X114434954Y-122437954D01*
X114450008Y-122442876D01*
X114471005Y-122443473D01*
X114503257Y-122439861D01*
X114552073Y-122432154D01*
X114556000Y-122431505D01*
X114628739Y-122422569D01*
X114707217Y-122418161D01*
X114785927Y-122418119D01*
X114859361Y-122422279D01*
X114922011Y-122430479D01*
X114968370Y-122442557D01*
X114971416Y-122443771D01*
X115005048Y-122462615D01*
X115016864Y-122481685D01*
X115007614Y-122500439D01*
X114978047Y-122518337D01*
X114928911Y-122534837D01*
X114860957Y-122549396D01*
X114815645Y-122556406D01*
X114721456Y-122569889D01*
X114646544Y-122582214D01*
X114587717Y-122594449D01*
X114541785Y-122607661D01*
X114505555Y-122622917D01*
X114475838Y-122641285D01*
X114449442Y-122663831D01*
X114428230Y-122685971D01*
X114403065Y-122716819D01*
X114390681Y-122743345D01*
X114386808Y-122776026D01*
X114386667Y-122787995D01*
X114389576Y-122827712D01*
X114401202Y-122857259D01*
X114421323Y-122883486D01*
X114462216Y-122923576D01*
X114507817Y-122954149D01*
X114561513Y-122976203D01*
X114626692Y-122990735D01*
X114706744Y-122998741D01*
X114805057Y-123001218D01*
X114821289Y-123001177D01*
X114886849Y-122999818D01*
X114951866Y-122996730D01*
X115009252Y-122992356D01*
X115051922Y-122987140D01*
X115055372Y-122986541D01*
X115097796Y-122976491D01*
X115133780Y-122963796D01*
X115154150Y-122952190D01*
X115173107Y-122921572D01*
X115174427Y-122885918D01*
X115158085Y-122854144D01*
X115154429Y-122850551D01*
X115139315Y-122839876D01*
X115120415Y-122835276D01*
X115091162Y-122836059D01*
X115055651Y-122840127D01*
X115015970Y-122843762D01*
X114960345Y-122846828D01*
X114895406Y-122849053D01*
X114827785Y-122850164D01*
X114810000Y-122850237D01*
X114742128Y-122849964D01*
X114692454Y-122848646D01*
X114656610Y-122845827D01*
X114630224Y-122841050D01*
X114608926Y-122833857D01*
X114596126Y-122827867D01*
X114568000Y-122811233D01*
X114550068Y-122796168D01*
X114547447Y-122791897D01*
X114552976Y-122774263D01*
X114579260Y-122757192D01*
X114624478Y-122741458D01*
X114686808Y-122727838D01*
X114705171Y-122724804D01*
X114801090Y-122709738D01*
X114877641Y-122697146D01*
X114937780Y-122686111D01*
X114984460Y-122675720D01*
X115020637Y-122665056D01*
X115049265Y-122653205D01*
X115073298Y-122639251D01*
X115095692Y-122622281D01*
X115119402Y-122601378D01*
X115127380Y-122594049D01*
X115155353Y-122566699D01*
X115170160Y-122545029D01*
X115175952Y-122520232D01*
X115176889Y-122488983D01*
X115166575Y-122427705D01*
X115135752Y-122375640D01*
X115084595Y-122332958D01*
X115013283Y-122299825D01*
X114962400Y-122284964D01*
X114907100Y-122275366D01*
X114840853Y-122269936D01*
X114767706Y-122268367D01*
X114691703Y-122270351D01*
G37*
X114691703Y-122270351D02*
X114616888Y-122275581D01*
X114547306Y-122283750D01*
X114487002Y-122294550D01*
X114440020Y-122307673D01*
X114410406Y-122322813D01*
X114405860Y-122327269D01*
X114390054Y-122361850D01*
X114394847Y-122397351D01*
X114419364Y-122427725D01*
X114420534Y-122428596D01*
X114434954Y-122437954D01*
X114450008Y-122442876D01*
X114471005Y-122443473D01*
X114503257Y-122439861D01*
X114552073Y-122432154D01*
X114556000Y-122431505D01*
X114628739Y-122422569D01*
X114707217Y-122418161D01*
X114785927Y-122418119D01*
X114859361Y-122422279D01*
X114922011Y-122430479D01*
X114968370Y-122442557D01*
X114971416Y-122443771D01*
X115005048Y-122462615D01*
X115016864Y-122481685D01*
X115007614Y-122500439D01*
X114978047Y-122518337D01*
X114928911Y-122534837D01*
X114860957Y-122549396D01*
X114815645Y-122556406D01*
X114721456Y-122569889D01*
X114646544Y-122582214D01*
X114587717Y-122594449D01*
X114541785Y-122607661D01*
X114505555Y-122622917D01*
X114475838Y-122641285D01*
X114449442Y-122663831D01*
X114428230Y-122685971D01*
X114403065Y-122716819D01*
X114390681Y-122743345D01*
X114386808Y-122776026D01*
X114386667Y-122787995D01*
X114389576Y-122827712D01*
X114401202Y-122857259D01*
X114421323Y-122883486D01*
X114462216Y-122923576D01*
X114507817Y-122954149D01*
X114561513Y-122976203D01*
X114626692Y-122990735D01*
X114706744Y-122998741D01*
X114805057Y-123001218D01*
X114821289Y-123001177D01*
X114886849Y-122999818D01*
X114951866Y-122996730D01*
X115009252Y-122992356D01*
X115051922Y-122987140D01*
X115055372Y-122986541D01*
X115097796Y-122976491D01*
X115133780Y-122963796D01*
X115154150Y-122952190D01*
X115173107Y-122921572D01*
X115174427Y-122885918D01*
X115158085Y-122854144D01*
X115154429Y-122850551D01*
X115139315Y-122839876D01*
X115120415Y-122835276D01*
X115091162Y-122836059D01*
X115055651Y-122840127D01*
X115015970Y-122843762D01*
X114960345Y-122846828D01*
X114895406Y-122849053D01*
X114827785Y-122850164D01*
X114810000Y-122850237D01*
X114742128Y-122849964D01*
X114692454Y-122848646D01*
X114656610Y-122845827D01*
X114630224Y-122841050D01*
X114608926Y-122833857D01*
X114596126Y-122827867D01*
X114568000Y-122811233D01*
X114550068Y-122796168D01*
X114547447Y-122791897D01*
X114552976Y-122774263D01*
X114579260Y-122757192D01*
X114624478Y-122741458D01*
X114686808Y-122727838D01*
X114705171Y-122724804D01*
X114801090Y-122709738D01*
X114877641Y-122697146D01*
X114937780Y-122686111D01*
X114984460Y-122675720D01*
X115020637Y-122665056D01*
X115049265Y-122653205D01*
X115073298Y-122639251D01*
X115095692Y-122622281D01*
X115119402Y-122601378D01*
X115127380Y-122594049D01*
X115155353Y-122566699D01*
X115170160Y-122545029D01*
X115175952Y-122520232D01*
X115176889Y-122488983D01*
X115166575Y-122427705D01*
X115135752Y-122375640D01*
X115084595Y-122332958D01*
X115013283Y-122299825D01*
X114962400Y-122284964D01*
X114907100Y-122275366D01*
X114840853Y-122269936D01*
X114767706Y-122268367D01*
X114691703Y-122270351D01*
G36*
X115712794Y-122269146D02*
G01*
X115643386Y-122269518D01*
X115590997Y-122270385D01*
X115552847Y-122271946D01*
X115526159Y-122274403D01*
X115508153Y-122277957D01*
X115496049Y-122282810D01*
X115487069Y-122289161D01*
X115483818Y-122292084D01*
X115464043Y-122323142D01*
X115460482Y-122358828D01*
X115473491Y-122390510D01*
X115479506Y-122396913D01*
X115489235Y-122403121D01*
X115504901Y-122407910D01*
X115529408Y-122411514D01*
X115565661Y-122414164D01*
X115616565Y-122416095D01*
X115685026Y-122417539D01*
X115747617Y-122418418D01*
X115995334Y-122421467D01*
X115998719Y-122486378D01*
X116002105Y-122551289D01*
X115833958Y-122551289D01*
X115760959Y-122551919D01*
X115707517Y-122554553D01*
X115670628Y-122560309D01*
X115647288Y-122570304D01*
X115634494Y-122585656D01*
X115629242Y-122607482D01*
X115628445Y-122627738D01*
X115630923Y-122652592D01*
X115640277Y-122670906D01*
X115659383Y-122683637D01*
X115691118Y-122691741D01*
X115738359Y-122696176D01*
X115803983Y-122697899D01*
X115839801Y-122698045D01*
X116000978Y-122698045D01*
X116000978Y-122856089D01*
X115752622Y-122856089D01*
X115671213Y-122856202D01*
X115609342Y-122856712D01*
X115563968Y-122857870D01*
X115532054Y-122859930D01*
X115510559Y-122863146D01*
X115496443Y-122867772D01*
X115486668Y-122874059D01*
X115481689Y-122878667D01*
X115464610Y-122905560D01*
X115459111Y-122929467D01*
X115466963Y-122958667D01*
X115481689Y-122980267D01*
X115489546Y-122987066D01*
X115499688Y-122992346D01*
X115514844Y-122996298D01*
X115537741Y-122999113D01*
X115571109Y-123000982D01*
X115617675Y-123002098D01*
X115680167Y-123002651D01*
X115761314Y-123002833D01*
X115803422Y-123002845D01*
X115893598Y-123002765D01*
X115963924Y-123002398D01*
X116017129Y-123001552D01*
X116055940Y-123000036D01*
X116083087Y-122997659D01*
X116101298Y-122994229D01*
X116113300Y-122989554D01*
X116121822Y-122983444D01*
X116125156Y-122980267D01*
X116131755Y-122972670D01*
X116136927Y-122962870D01*
X116140846Y-122948239D01*
X116143684Y-122926152D01*
X116145615Y-122893982D01*
X116146812Y-122849103D01*
X116147448Y-122788889D01*
X116147697Y-122710713D01*
X116147734Y-122637923D01*
X116147700Y-122544707D01*
X116147465Y-122471431D01*
X116146830Y-122415458D01*
X116145594Y-122374151D01*
X116143556Y-122344872D01*
X116140517Y-122324984D01*
X116136277Y-122311850D01*
X116130635Y-122302832D01*
X116123391Y-122295293D01*
X116121606Y-122293612D01*
X116112945Y-122286172D01*
X116102882Y-122280409D01*
X116088625Y-122276112D01*
X116067383Y-122273064D01*
X116036364Y-122271051D01*
X115992777Y-122269860D01*
X115933831Y-122269275D01*
X115856734Y-122269083D01*
X115802001Y-122269067D01*
X115712794Y-122269146D01*
G37*
X115712794Y-122269146D02*
X115643386Y-122269518D01*
X115590997Y-122270385D01*
X115552847Y-122271946D01*
X115526159Y-122274403D01*
X115508153Y-122277957D01*
X115496049Y-122282810D01*
X115487069Y-122289161D01*
X115483818Y-122292084D01*
X115464043Y-122323142D01*
X115460482Y-122358828D01*
X115473491Y-122390510D01*
X115479506Y-122396913D01*
X115489235Y-122403121D01*
X115504901Y-122407910D01*
X115529408Y-122411514D01*
X115565661Y-122414164D01*
X115616565Y-122416095D01*
X115685026Y-122417539D01*
X115747617Y-122418418D01*
X115995334Y-122421467D01*
X115998719Y-122486378D01*
X116002105Y-122551289D01*
X115833958Y-122551289D01*
X115760959Y-122551919D01*
X115707517Y-122554553D01*
X115670628Y-122560309D01*
X115647288Y-122570304D01*
X115634494Y-122585656D01*
X115629242Y-122607482D01*
X115628445Y-122627738D01*
X115630923Y-122652592D01*
X115640277Y-122670906D01*
X115659383Y-122683637D01*
X115691118Y-122691741D01*
X115738359Y-122696176D01*
X115803983Y-122697899D01*
X115839801Y-122698045D01*
X116000978Y-122698045D01*
X116000978Y-122856089D01*
X115752622Y-122856089D01*
X115671213Y-122856202D01*
X115609342Y-122856712D01*
X115563968Y-122857870D01*
X115532054Y-122859930D01*
X115510559Y-122863146D01*
X115496443Y-122867772D01*
X115486668Y-122874059D01*
X115481689Y-122878667D01*
X115464610Y-122905560D01*
X115459111Y-122929467D01*
X115466963Y-122958667D01*
X115481689Y-122980267D01*
X115489546Y-122987066D01*
X115499688Y-122992346D01*
X115514844Y-122996298D01*
X115537741Y-122999113D01*
X115571109Y-123000982D01*
X115617675Y-123002098D01*
X115680167Y-123002651D01*
X115761314Y-123002833D01*
X115803422Y-123002845D01*
X115893598Y-123002765D01*
X115963924Y-123002398D01*
X116017129Y-123001552D01*
X116055940Y-123000036D01*
X116083087Y-122997659D01*
X116101298Y-122994229D01*
X116113300Y-122989554D01*
X116121822Y-122983444D01*
X116125156Y-122980267D01*
X116131755Y-122972670D01*
X116136927Y-122962870D01*
X116140846Y-122948239D01*
X116143684Y-122926152D01*
X116145615Y-122893982D01*
X116146812Y-122849103D01*
X116147448Y-122788889D01*
X116147697Y-122710713D01*
X116147734Y-122637923D01*
X116147700Y-122544707D01*
X116147465Y-122471431D01*
X116146830Y-122415458D01*
X116145594Y-122374151D01*
X116143556Y-122344872D01*
X116140517Y-122324984D01*
X116136277Y-122311850D01*
X116130635Y-122302832D01*
X116123391Y-122295293D01*
X116121606Y-122293612D01*
X116112945Y-122286172D01*
X116102882Y-122280409D01*
X116088625Y-122276112D01*
X116067383Y-122273064D01*
X116036364Y-122271051D01*
X115992777Y-122269860D01*
X115933831Y-122269275D01*
X115856734Y-122269083D01*
X115802001Y-122269067D01*
X115712794Y-122269146D01*
G36*
X117121371Y-122269066D02*
G01*
X117081889Y-122269467D01*
X116966200Y-122272259D01*
X116869311Y-122280550D01*
X116787919Y-122295232D01*
X116718723Y-122317193D01*
X116658420Y-122347322D01*
X116603708Y-122386510D01*
X116584167Y-122403532D01*
X116551750Y-122443363D01*
X116522520Y-122497413D01*
X116499991Y-122557323D01*
X116487679Y-122614739D01*
X116486400Y-122635956D01*
X116494417Y-122694769D01*
X116515899Y-122759013D01*
X116546999Y-122819821D01*
X116583866Y-122868330D01*
X116589854Y-122874182D01*
X116640579Y-122915321D01*
X116696125Y-122947435D01*
X116759696Y-122971365D01*
X116834494Y-122987953D01*
X116923722Y-122998041D01*
X117030582Y-123002469D01*
X117079528Y-123002845D01*
X117141762Y-123002545D01*
X117185528Y-123001292D01*
X117214931Y-122998554D01*
X117234079Y-122993801D01*
X117247077Y-122986501D01*
X117254045Y-122980267D01*
X117260626Y-122972694D01*
X117265788Y-122962924D01*
X117269703Y-122948340D01*
X117272543Y-122926326D01*
X117274480Y-122894264D01*
X117275684Y-122849536D01*
X117276328Y-122789526D01*
X117276583Y-122711617D01*
X117276622Y-122635956D01*
X117276870Y-122535041D01*
X117276817Y-122454427D01*
X117275857Y-122415822D01*
X117129867Y-122415822D01*
X117129867Y-122856089D01*
X117036734Y-122856004D01*
X116980693Y-122854396D01*
X116921999Y-122850256D01*
X116873028Y-122844464D01*
X116871538Y-122844226D01*
X116792392Y-122825090D01*
X116731002Y-122795287D01*
X116684305Y-122752878D01*
X116654635Y-122706961D01*
X116636353Y-122656026D01*
X116637771Y-122608200D01*
X116658988Y-122556933D01*
X116700489Y-122503899D01*
X116757998Y-122464600D01*
X116832750Y-122438331D01*
X116882708Y-122429035D01*
X116939416Y-122422507D01*
X116999519Y-122417782D01*
X117050639Y-122415817D01*
X117053667Y-122415808D01*
X117129867Y-122415822D01*
X117275857Y-122415822D01*
X117275260Y-122391851D01*
X117270998Y-122345055D01*
X117262830Y-122311778D01*
X117249556Y-122289759D01*
X117229974Y-122276739D01*
X117202883Y-122270457D01*
X117167082Y-122268653D01*
X117121371Y-122269066D01*
G37*
X117121371Y-122269066D02*
X117081889Y-122269467D01*
X116966200Y-122272259D01*
X116869311Y-122280550D01*
X116787919Y-122295232D01*
X116718723Y-122317193D01*
X116658420Y-122347322D01*
X116603708Y-122386510D01*
X116584167Y-122403532D01*
X116551750Y-122443363D01*
X116522520Y-122497413D01*
X116499991Y-122557323D01*
X116487679Y-122614739D01*
X116486400Y-122635956D01*
X116494417Y-122694769D01*
X116515899Y-122759013D01*
X116546999Y-122819821D01*
X116583866Y-122868330D01*
X116589854Y-122874182D01*
X116640579Y-122915321D01*
X116696125Y-122947435D01*
X116759696Y-122971365D01*
X116834494Y-122987953D01*
X116923722Y-122998041D01*
X117030582Y-123002469D01*
X117079528Y-123002845D01*
X117141762Y-123002545D01*
X117185528Y-123001292D01*
X117214931Y-122998554D01*
X117234079Y-122993801D01*
X117247077Y-122986501D01*
X117254045Y-122980267D01*
X117260626Y-122972694D01*
X117265788Y-122962924D01*
X117269703Y-122948340D01*
X117272543Y-122926326D01*
X117274480Y-122894264D01*
X117275684Y-122849536D01*
X117276328Y-122789526D01*
X117276583Y-122711617D01*
X117276622Y-122635956D01*
X117276870Y-122535041D01*
X117276817Y-122454427D01*
X117275857Y-122415822D01*
X117129867Y-122415822D01*
X117129867Y-122856089D01*
X117036734Y-122856004D01*
X116980693Y-122854396D01*
X116921999Y-122850256D01*
X116873028Y-122844464D01*
X116871538Y-122844226D01*
X116792392Y-122825090D01*
X116731002Y-122795287D01*
X116684305Y-122752878D01*
X116654635Y-122706961D01*
X116636353Y-122656026D01*
X116637771Y-122608200D01*
X116658988Y-122556933D01*
X116700489Y-122503899D01*
X116757998Y-122464600D01*
X116832750Y-122438331D01*
X116882708Y-122429035D01*
X116939416Y-122422507D01*
X116999519Y-122417782D01*
X117050639Y-122415817D01*
X117053667Y-122415808D01*
X117129867Y-122415822D01*
X117275857Y-122415822D01*
X117275260Y-122391851D01*
X117270998Y-122345055D01*
X117262830Y-122311778D01*
X117249556Y-122289759D01*
X117229974Y-122276739D01*
X117202883Y-122270457D01*
X117167082Y-122268653D01*
X117121371Y-122269066D01*
%TD*%
M02*
