%TF.GenerationSoftware,KiCad,Pcbnew,5.1.6+dfsg1-1~bpo10+1*%
%TF.CreationDate,2021-07-29T14:25:11+02:00*%
%TF.ProjectId,PW_Cond,50575f43-6f6e-4642-9e6b-696361645f70,rev?*%
%TF.SameCoordinates,Original*%
%TF.FileFunction,Soldermask,Top*%
%TF.FilePolarity,Negative*%
%FSLAX46Y46*%
G04 Gerber Fmt 4.6, Leading zero omitted, Abs format (unit mm)*
G04 Created by KiCad (PCBNEW 5.1.6+dfsg1-1~bpo10+1) date 2021-07-29 14:25:11*
%MOMM*%
%LPD*%
G01*
G04 APERTURE LIST*
%TA.AperFunction,Profile*%
%ADD10C,0.050000*%
%TD*%
%ADD11R,0.700000X1.650000*%
%ADD12O,1.800000X1.800000*%
%ADD13R,1.800000X1.800000*%
%ADD14R,1.000000X1.300000*%
%ADD15R,1.000000X0.900000*%
%ADD16C,0.800000*%
%ADD17C,4.500000*%
%ADD18C,1.900000*%
%ADD19R,1.900000X1.900000*%
%ADD20C,0.900000*%
G04 APERTURE END LIST*
D10*
X122000000Y-126000000D02*
X100000000Y-126000000D01*
X96000000Y-100000000D02*
G75*
G02*
X100000000Y-96000000I4000000J0D01*
G01*
X100000000Y-126000000D02*
G75*
G02*
X96000000Y-122000000I0J4000000D01*
G01*
X126000000Y-122000000D02*
G75*
G02*
X122000000Y-126000000I-4000000J0D01*
G01*
X122000000Y-96000000D02*
G75*
G02*
X126000000Y-100000000I0J-4000000D01*
G01*
X100000000Y-96000000D02*
X122000000Y-96000000D01*
X96000000Y-100000000D02*
X96000000Y-122000000D01*
X126000000Y-100000000D02*
X126000000Y-122000000D01*
D11*
%TO.C,U2*%
X115875000Y-113700000D03*
X114605000Y-113700000D03*
X113335000Y-113700000D03*
X112065000Y-113700000D03*
X112065000Y-108300000D03*
X113335000Y-108300000D03*
X114605000Y-108300000D03*
X115875000Y-108300000D03*
%TD*%
D12*
%TO.C,J3*%
X122000000Y-112270000D03*
D13*
X122000000Y-109730000D03*
%TD*%
D11*
%TO.C,U1*%
X106985000Y-113700000D03*
X105715000Y-113700000D03*
X104445000Y-113700000D03*
X103175000Y-113700000D03*
X103175000Y-108300000D03*
X104445000Y-108300000D03*
X105715000Y-108300000D03*
X106985000Y-108300000D03*
%TD*%
D12*
%TO.C,J2*%
X100000000Y-114810000D03*
X100000000Y-112270000D03*
X100000000Y-109730000D03*
D13*
X100000000Y-107190000D03*
%TD*%
%TO.C,R2*%
G36*
G01*
X116910000Y-122908262D02*
X116910000Y-121951738D01*
G75*
G02*
X117181738Y-121680000I271738J0D01*
G01*
X117888262Y-121680000D01*
G75*
G02*
X118160000Y-121951738I0J-271738D01*
G01*
X118160000Y-122908262D01*
G75*
G02*
X117888262Y-123180000I-271738J0D01*
G01*
X117181738Y-123180000D01*
G75*
G02*
X116910000Y-122908262I0J271738D01*
G01*
G37*
G36*
G01*
X114860000Y-122908262D02*
X114860000Y-121951738D01*
G75*
G02*
X115131738Y-121680000I271738J0D01*
G01*
X115838262Y-121680000D01*
G75*
G02*
X116110000Y-121951738I0J-271738D01*
G01*
X116110000Y-122908262D01*
G75*
G02*
X115838262Y-123180000I-271738J0D01*
G01*
X115131738Y-123180000D01*
G75*
G02*
X114860000Y-122908262I0J271738D01*
G01*
G37*
%TD*%
%TO.C,R5*%
G36*
G01*
X104680000Y-116871250D02*
X104680000Y-117828750D01*
G75*
G02*
X104408750Y-118100000I-271250J0D01*
G01*
X103701250Y-118100000D01*
G75*
G02*
X103430000Y-117828750I0J271250D01*
G01*
X103430000Y-116871250D01*
G75*
G02*
X103701250Y-116600000I271250J0D01*
G01*
X104408750Y-116600000D01*
G75*
G02*
X104680000Y-116871250I0J-271250D01*
G01*
G37*
G36*
G01*
X106730000Y-116871738D02*
X106730000Y-117828262D01*
G75*
G02*
X106458262Y-118100000I-271738J0D01*
G01*
X105751738Y-118100000D01*
G75*
G02*
X105480000Y-117828262I0J271738D01*
G01*
X105480000Y-116871738D01*
G75*
G02*
X105751738Y-116600000I271738J0D01*
G01*
X106458262Y-116600000D01*
G75*
G02*
X106730000Y-116871738I0J-271738D01*
G01*
G37*
%TD*%
%TO.C,C1*%
G36*
G01*
X110003262Y-110830000D02*
X109046738Y-110830000D01*
G75*
G02*
X108775000Y-110558262I0J271738D01*
G01*
X108775000Y-109851738D01*
G75*
G02*
X109046738Y-109580000I271738J0D01*
G01*
X110003262Y-109580000D01*
G75*
G02*
X110275000Y-109851738I0J-271738D01*
G01*
X110275000Y-110558262D01*
G75*
G02*
X110003262Y-110830000I-271738J0D01*
G01*
G37*
G36*
G01*
X110003262Y-112880000D02*
X109046738Y-112880000D01*
G75*
G02*
X108775000Y-112608262I0J271738D01*
G01*
X108775000Y-111901738D01*
G75*
G02*
X109046738Y-111630000I271738J0D01*
G01*
X110003262Y-111630000D01*
G75*
G02*
X110275000Y-111901738I0J-271738D01*
G01*
X110275000Y-112608262D01*
G75*
G02*
X110003262Y-112880000I-271738J0D01*
G01*
G37*
%TD*%
%TO.C,R4*%
G36*
G01*
X104680000Y-104171738D02*
X104680000Y-105128262D01*
G75*
G02*
X104408262Y-105400000I-271738J0D01*
G01*
X103701738Y-105400000D01*
G75*
G02*
X103430000Y-105128262I0J271738D01*
G01*
X103430000Y-104171738D01*
G75*
G02*
X103701738Y-103900000I271738J0D01*
G01*
X104408262Y-103900000D01*
G75*
G02*
X104680000Y-104171738I0J-271738D01*
G01*
G37*
G36*
G01*
X106730000Y-104171738D02*
X106730000Y-105128262D01*
G75*
G02*
X106458262Y-105400000I-271738J0D01*
G01*
X105751738Y-105400000D01*
G75*
G02*
X105480000Y-105128262I0J271738D01*
G01*
X105480000Y-104171738D01*
G75*
G02*
X105751738Y-103900000I271738J0D01*
G01*
X106458262Y-103900000D01*
G75*
G02*
X106730000Y-104171738I0J-271738D01*
G01*
G37*
%TD*%
D14*
%TO.C,D1*%
X118160000Y-117350000D03*
X114860000Y-117350000D03*
%TD*%
%TO.C,R10*%
G36*
G01*
X119920000Y-104171738D02*
X119920000Y-105128262D01*
G75*
G02*
X119648262Y-105400000I-271738J0D01*
G01*
X118941738Y-105400000D01*
G75*
G02*
X118670000Y-105128262I0J271738D01*
G01*
X118670000Y-104171738D01*
G75*
G02*
X118941738Y-103900000I271738J0D01*
G01*
X119648262Y-103900000D01*
G75*
G02*
X119920000Y-104171738I0J-271738D01*
G01*
G37*
G36*
G01*
X121970000Y-104171738D02*
X121970000Y-105128262D01*
G75*
G02*
X121698262Y-105400000I-271738J0D01*
G01*
X120991738Y-105400000D01*
G75*
G02*
X120720000Y-105128262I0J271738D01*
G01*
X120720000Y-104171738D01*
G75*
G02*
X120991738Y-103900000I271738J0D01*
G01*
X121698262Y-103900000D01*
G75*
G02*
X121970000Y-104171738I0J-271738D01*
G01*
G37*
%TD*%
%TO.C,R9*%
G36*
G01*
X115640000Y-105128262D02*
X115640000Y-104171738D01*
G75*
G02*
X115911738Y-103900000I271738J0D01*
G01*
X116618262Y-103900000D01*
G75*
G02*
X116890000Y-104171738I0J-271738D01*
G01*
X116890000Y-105128262D01*
G75*
G02*
X116618262Y-105400000I-271738J0D01*
G01*
X115911738Y-105400000D01*
G75*
G02*
X115640000Y-105128262I0J271738D01*
G01*
G37*
G36*
G01*
X113590000Y-105128262D02*
X113590000Y-104171738D01*
G75*
G02*
X113861738Y-103900000I271738J0D01*
G01*
X114568262Y-103900000D01*
G75*
G02*
X114840000Y-104171738I0J-271738D01*
G01*
X114840000Y-105128262D01*
G75*
G02*
X114568262Y-105400000I-271738J0D01*
G01*
X113861738Y-105400000D01*
G75*
G02*
X113590000Y-105128262I0J271738D01*
G01*
G37*
%TD*%
%TO.C,R7*%
G36*
G01*
X109760000Y-104171738D02*
X109760000Y-105128262D01*
G75*
G02*
X109488262Y-105400000I-271738J0D01*
G01*
X108781738Y-105400000D01*
G75*
G02*
X108510000Y-105128262I0J271738D01*
G01*
X108510000Y-104171738D01*
G75*
G02*
X108781738Y-103900000I271738J0D01*
G01*
X109488262Y-103900000D01*
G75*
G02*
X109760000Y-104171738I0J-271738D01*
G01*
G37*
G36*
G01*
X111810000Y-104171738D02*
X111810000Y-105128262D01*
G75*
G02*
X111538262Y-105400000I-271738J0D01*
G01*
X110831738Y-105400000D01*
G75*
G02*
X110560000Y-105128262I0J271738D01*
G01*
X110560000Y-104171738D01*
G75*
G02*
X110831738Y-103900000I271738J0D01*
G01*
X111538262Y-103900000D01*
G75*
G02*
X111810000Y-104171738I0J-271738D01*
G01*
G37*
%TD*%
%TO.C,R8*%
G36*
G01*
X110395000Y-116871738D02*
X110395000Y-117828262D01*
G75*
G02*
X110123262Y-118100000I-271738J0D01*
G01*
X109416738Y-118100000D01*
G75*
G02*
X109145000Y-117828262I0J271738D01*
G01*
X109145000Y-116871738D01*
G75*
G02*
X109416738Y-116600000I271738J0D01*
G01*
X110123262Y-116600000D01*
G75*
G02*
X110395000Y-116871738I0J-271738D01*
G01*
G37*
G36*
G01*
X112445000Y-116871738D02*
X112445000Y-117828262D01*
G75*
G02*
X112173262Y-118100000I-271738J0D01*
G01*
X111466738Y-118100000D01*
G75*
G02*
X111195000Y-117828262I0J271738D01*
G01*
X111195000Y-116871738D01*
G75*
G02*
X111466738Y-116600000I271738J0D01*
G01*
X112173262Y-116600000D01*
G75*
G02*
X112445000Y-116871738I0J-271738D01*
G01*
G37*
%TD*%
%TO.C,C2*%
G36*
G01*
X118893262Y-110830000D02*
X117936738Y-110830000D01*
G75*
G02*
X117665000Y-110558262I0J271738D01*
G01*
X117665000Y-109851738D01*
G75*
G02*
X117936738Y-109580000I271738J0D01*
G01*
X118893262Y-109580000D01*
G75*
G02*
X119165000Y-109851738I0J-271738D01*
G01*
X119165000Y-110558262D01*
G75*
G02*
X118893262Y-110830000I-271738J0D01*
G01*
G37*
G36*
G01*
X118893262Y-112880000D02*
X117936738Y-112880000D01*
G75*
G02*
X117665000Y-112608262I0J271738D01*
G01*
X117665000Y-111901738D01*
G75*
G02*
X117936738Y-111630000I271738J0D01*
G01*
X118893262Y-111630000D01*
G75*
G02*
X119165000Y-111901738I0J-271738D01*
G01*
X119165000Y-112608262D01*
G75*
G02*
X118893262Y-112880000I-271738J0D01*
G01*
G37*
%TD*%
%TO.C,R6*%
G36*
G01*
X116910000Y-120368262D02*
X116910000Y-119411738D01*
G75*
G02*
X117181738Y-119140000I271738J0D01*
G01*
X117888262Y-119140000D01*
G75*
G02*
X118160000Y-119411738I0J-271738D01*
G01*
X118160000Y-120368262D01*
G75*
G02*
X117888262Y-120640000I-271738J0D01*
G01*
X117181738Y-120640000D01*
G75*
G02*
X116910000Y-120368262I0J271738D01*
G01*
G37*
G36*
G01*
X114860000Y-120368262D02*
X114860000Y-119411738D01*
G75*
G02*
X115131738Y-119140000I271738J0D01*
G01*
X115838262Y-119140000D01*
G75*
G02*
X116110000Y-119411738I0J-271738D01*
G01*
X116110000Y-120368262D01*
G75*
G02*
X115838262Y-120640000I-271738J0D01*
G01*
X115131738Y-120640000D01*
G75*
G02*
X114860000Y-120368262I0J271738D01*
G01*
G37*
%TD*%
D15*
%TO.C,Q1*%
X109795000Y-121160000D03*
X111795000Y-120210000D03*
X111795000Y-122110000D03*
%TD*%
D16*
%TO.C,H4*%
X101166726Y-120833274D03*
X100000000Y-120350000D03*
X98833274Y-120833274D03*
X98350000Y-122000000D03*
X98833274Y-123166726D03*
X100000000Y-123650000D03*
X101166726Y-123166726D03*
X101650000Y-122000000D03*
D17*
X100000000Y-122000000D03*
%TD*%
D16*
%TO.C,H3*%
X123166726Y-120833274D03*
X122000000Y-120350000D03*
X120833274Y-120833274D03*
X120350000Y-122000000D03*
X120833274Y-123166726D03*
X122000000Y-123650000D03*
X123166726Y-123166726D03*
X123650000Y-122000000D03*
D17*
X122000000Y-122000000D03*
%TD*%
D16*
%TO.C,H2*%
X123166726Y-98833274D03*
X122000000Y-98350000D03*
X120833274Y-98833274D03*
X120350000Y-100000000D03*
X120833274Y-101166726D03*
X122000000Y-101650000D03*
X123166726Y-101166726D03*
X123650000Y-100000000D03*
D17*
X122000000Y-100000000D03*
%TD*%
D16*
%TO.C,H1*%
X101166726Y-98833274D03*
X100000000Y-98350000D03*
X98833274Y-98833274D03*
X98350000Y-100000000D03*
X98833274Y-101166726D03*
X100000000Y-101650000D03*
X101166726Y-101166726D03*
X101650000Y-100000000D03*
D17*
X100000000Y-100000000D03*
%TD*%
%TO.C,R11*%
G36*
G01*
X105480000Y-100048262D02*
X105480000Y-99091738D01*
G75*
G02*
X105751738Y-98820000I271738J0D01*
G01*
X106458262Y-98820000D01*
G75*
G02*
X106730000Y-99091738I0J-271738D01*
G01*
X106730000Y-100048262D01*
G75*
G02*
X106458262Y-100320000I-271738J0D01*
G01*
X105751738Y-100320000D01*
G75*
G02*
X105480000Y-100048262I0J271738D01*
G01*
G37*
G36*
G01*
X103430000Y-100048262D02*
X103430000Y-99091738D01*
G75*
G02*
X103701738Y-98820000I271738J0D01*
G01*
X104408262Y-98820000D01*
G75*
G02*
X104680000Y-99091738I0J-271738D01*
G01*
X104680000Y-100048262D01*
G75*
G02*
X104408262Y-100320000I-271738J0D01*
G01*
X103701738Y-100320000D01*
G75*
G02*
X103430000Y-100048262I0J271738D01*
G01*
G37*
%TD*%
%TO.C,R3*%
G36*
G01*
X104680000Y-119411738D02*
X104680000Y-120368262D01*
G75*
G02*
X104408262Y-120640000I-271738J0D01*
G01*
X103701738Y-120640000D01*
G75*
G02*
X103430000Y-120368262I0J271738D01*
G01*
X103430000Y-119411738D01*
G75*
G02*
X103701738Y-119140000I271738J0D01*
G01*
X104408262Y-119140000D01*
G75*
G02*
X104680000Y-119411738I0J-271738D01*
G01*
G37*
G36*
G01*
X106730000Y-119411738D02*
X106730000Y-120368262D01*
G75*
G02*
X106458262Y-120640000I-271738J0D01*
G01*
X105751738Y-120640000D01*
G75*
G02*
X105480000Y-120368262I0J271738D01*
G01*
X105480000Y-119411738D01*
G75*
G02*
X105751738Y-119140000I271738J0D01*
G01*
X106458262Y-119140000D01*
G75*
G02*
X106730000Y-119411738I0J-271738D01*
G01*
G37*
%TD*%
%TO.C,R1*%
G36*
G01*
X104680000Y-101631738D02*
X104680000Y-102588262D01*
G75*
G02*
X104408262Y-102860000I-271738J0D01*
G01*
X103701738Y-102860000D01*
G75*
G02*
X103430000Y-102588262I0J271738D01*
G01*
X103430000Y-101631738D01*
G75*
G02*
X103701738Y-101360000I271738J0D01*
G01*
X104408262Y-101360000D01*
G75*
G02*
X104680000Y-101631738I0J-271738D01*
G01*
G37*
G36*
G01*
X106730000Y-101631738D02*
X106730000Y-102588262D01*
G75*
G02*
X106458262Y-102860000I-271738J0D01*
G01*
X105751738Y-102860000D01*
G75*
G02*
X105480000Y-102588262I0J271738D01*
G01*
X105480000Y-101631738D01*
G75*
G02*
X105751738Y-101360000I271738J0D01*
G01*
X106458262Y-101360000D01*
G75*
G02*
X106730000Y-101631738I0J-271738D01*
G01*
G37*
%TD*%
D12*
%TO.C,J1*%
X112270000Y-100000000D03*
D13*
X109730000Y-100000000D03*
%TD*%
D18*
%TO.C,D2*%
X115560000Y-100000000D03*
D19*
X118100000Y-100000000D03*
%TD*%
D20*
X118923000Y-122430000D03*
X119558000Y-117350000D03*
X103175000Y-106682000D03*
X109525000Y-108714000D03*
X118415000Y-108714000D03*
X112065000Y-106682000D03*
X117780000Y-104650000D03*
X103302000Y-111049000D03*
X107239000Y-111303000D03*
X107366000Y-105588000D03*
X107493000Y-103429000D03*
X111557000Y-110414000D03*
X121336000Y-107366000D03*
X99000000Y-117907000D03*
X99000000Y-104000000D03*
X119177000Y-102921000D03*
X110160000Y-106096000D03*
X102286000Y-104318000D03*
X123000000Y-104000000D03*
X123000000Y-107500000D03*
X123000000Y-114500000D03*
X123000000Y-118000000D03*
X113491000Y-111127000D03*
X113237000Y-121668000D03*
X104000000Y-123000000D03*
X107500000Y-123000000D03*
X114380000Y-118747000D03*
X118415000Y-113794000D03*
X109525000Y-113794000D03*
X113999000Y-119890000D03*
M02*
