%TF.GenerationSoftware,KiCad,Pcbnew,5.1.6+dfsg1-1~bpo10+1*%
%TF.CreationDate,2021-07-29T14:25:11+02:00*%
%TF.ProjectId,PW_Cond,50575f43-6f6e-4642-9e6b-696361645f70,rev?*%
%TF.SameCoordinates,Original*%
%TF.FileFunction,Soldermask,Bot*%
%TF.FilePolarity,Negative*%
%FSLAX46Y46*%
G04 Gerber Fmt 4.6, Leading zero omitted, Abs format (unit mm)*
G04 Created by KiCad (PCBNEW 5.1.6+dfsg1-1~bpo10+1) date 2021-07-29 14:25:11*
%MOMM*%
%LPD*%
G01*
G04 APERTURE LIST*
%TA.AperFunction,Profile*%
%ADD10C,0.050000*%
%TD*%
%ADD11O,1.800000X1.800000*%
%ADD12R,1.800000X1.800000*%
%ADD13C,0.800000*%
%ADD14C,4.500000*%
%ADD15C,1.900000*%
%ADD16R,1.900000X1.900000*%
%ADD17C,0.900000*%
G04 APERTURE END LIST*
D10*
X122000000Y-126000000D02*
X100000000Y-126000000D01*
X96000000Y-100000000D02*
G75*
G02*
X100000000Y-96000000I4000000J0D01*
G01*
X100000000Y-126000000D02*
G75*
G02*
X96000000Y-122000000I0J4000000D01*
G01*
X126000000Y-122000000D02*
G75*
G02*
X122000000Y-126000000I-4000000J0D01*
G01*
X122000000Y-96000000D02*
G75*
G02*
X126000000Y-100000000I0J-4000000D01*
G01*
X100000000Y-96000000D02*
X122000000Y-96000000D01*
X96000000Y-100000000D02*
X96000000Y-122000000D01*
X126000000Y-100000000D02*
X126000000Y-122000000D01*
D11*
%TO.C,J3*%
X122000000Y-112270000D03*
D12*
X122000000Y-109730000D03*
%TD*%
D11*
%TO.C,J2*%
X100000000Y-114810000D03*
X100000000Y-112270000D03*
X100000000Y-109730000D03*
D12*
X100000000Y-107190000D03*
%TD*%
D13*
%TO.C,H4*%
X101166726Y-120833274D03*
X100000000Y-120350000D03*
X98833274Y-120833274D03*
X98350000Y-122000000D03*
X98833274Y-123166726D03*
X100000000Y-123650000D03*
X101166726Y-123166726D03*
X101650000Y-122000000D03*
D14*
X100000000Y-122000000D03*
%TD*%
D13*
%TO.C,H3*%
X123166726Y-120833274D03*
X122000000Y-120350000D03*
X120833274Y-120833274D03*
X120350000Y-122000000D03*
X120833274Y-123166726D03*
X122000000Y-123650000D03*
X123166726Y-123166726D03*
X123650000Y-122000000D03*
D14*
X122000000Y-122000000D03*
%TD*%
D13*
%TO.C,H2*%
X123166726Y-98833274D03*
X122000000Y-98350000D03*
X120833274Y-98833274D03*
X120350000Y-100000000D03*
X120833274Y-101166726D03*
X122000000Y-101650000D03*
X123166726Y-101166726D03*
X123650000Y-100000000D03*
D14*
X122000000Y-100000000D03*
%TD*%
D13*
%TO.C,H1*%
X101166726Y-98833274D03*
X100000000Y-98350000D03*
X98833274Y-98833274D03*
X98350000Y-100000000D03*
X98833274Y-101166726D03*
X100000000Y-101650000D03*
X101166726Y-101166726D03*
X101650000Y-100000000D03*
D14*
X100000000Y-100000000D03*
%TD*%
D11*
%TO.C,J1*%
X112270000Y-100000000D03*
D12*
X109730000Y-100000000D03*
%TD*%
D15*
%TO.C,D2*%
X115560000Y-100000000D03*
D16*
X118100000Y-100000000D03*
%TD*%
D17*
X118923000Y-122430000D03*
X119558000Y-117350000D03*
X103175000Y-106682000D03*
X109525000Y-108714000D03*
X118415000Y-108714000D03*
X112065000Y-106682000D03*
X117780000Y-104650000D03*
X103302000Y-111049000D03*
X107239000Y-111303000D03*
X107366000Y-105588000D03*
X107493000Y-103429000D03*
X111557000Y-110414000D03*
X121336000Y-107366000D03*
X99000000Y-117907000D03*
X99000000Y-104000000D03*
X119177000Y-102921000D03*
X110160000Y-106096000D03*
X102286000Y-104318000D03*
X123000000Y-104000000D03*
X123000000Y-107500000D03*
X123000000Y-114500000D03*
X123000000Y-118000000D03*
X113491000Y-111127000D03*
X113237000Y-121668000D03*
X104000000Y-123000000D03*
X107500000Y-123000000D03*
X114380000Y-118747000D03*
X118415000Y-113794000D03*
X109525000Y-113794000D03*
X113999000Y-119890000D03*
M02*
