%TF.GenerationSoftware,KiCad,Pcbnew,5.1.6+dfsg1-1~bpo10+1*%
%TF.CreationDate,2021-07-29T14:25:11+02:00*%
%TF.ProjectId,PW_Cond,50575f43-6f6e-4642-9e6b-696361645f70,rev?*%
%TF.SameCoordinates,Original*%
%TF.FileFunction,Copper,L2,Bot*%
%TF.FilePolarity,Positive*%
%FSLAX46Y46*%
G04 Gerber Fmt 4.6, Leading zero omitted, Abs format (unit mm)*
G04 Created by KiCad (PCBNEW 5.1.6+dfsg1-1~bpo10+1) date 2021-07-29 14:25:11*
%MOMM*%
%LPD*%
G01*
G04 APERTURE LIST*
%TA.AperFunction,Profile*%
%ADD10C,0.050000*%
%TD*%
%TA.AperFunction,ComponentPad*%
%ADD11O,1.700000X1.700000*%
%TD*%
%TA.AperFunction,ComponentPad*%
%ADD12R,1.700000X1.700000*%
%TD*%
%TA.AperFunction,ComponentPad*%
%ADD13C,0.700000*%
%TD*%
%TA.AperFunction,ComponentPad*%
%ADD14C,4.400000*%
%TD*%
%TA.AperFunction,ComponentPad*%
%ADD15C,1.800000*%
%TD*%
%TA.AperFunction,ComponentPad*%
%ADD16R,1.800000X1.800000*%
%TD*%
%TA.AperFunction,ViaPad*%
%ADD17C,0.800000*%
%TD*%
%TA.AperFunction,Conductor*%
%ADD18C,0.635000*%
%TD*%
%TA.AperFunction,Conductor*%
%ADD19C,0.250000*%
%TD*%
G04 APERTURE END LIST*
D10*
X122000000Y-126000000D02*
X100000000Y-126000000D01*
X96000000Y-100000000D02*
G75*
G02*
X100000000Y-96000000I4000000J0D01*
G01*
X100000000Y-126000000D02*
G75*
G02*
X96000000Y-122000000I0J4000000D01*
G01*
X126000000Y-122000000D02*
G75*
G02*
X122000000Y-126000000I-4000000J0D01*
G01*
X122000000Y-96000000D02*
G75*
G02*
X126000000Y-100000000I0J-4000000D01*
G01*
X100000000Y-96000000D02*
X122000000Y-96000000D01*
X96000000Y-100000000D02*
X96000000Y-122000000D01*
X126000000Y-100000000D02*
X126000000Y-122000000D01*
D11*
%TO.P,J3,2*%
%TO.N,GND*%
X122000000Y-112270000D03*
D12*
%TO.P,J3,1*%
%TO.N,/Meusure*%
X122000000Y-109730000D03*
%TD*%
D11*
%TO.P,J2,4*%
%TO.N,/MAP*%
X100000000Y-114810000D03*
%TO.P,J2,3*%
%TO.N,/NMP*%
X100000000Y-112270000D03*
%TO.P,J2,2*%
%TO.N,/PMP*%
X100000000Y-109730000D03*
D12*
%TO.P,J2,1*%
%TO.N,/PAP*%
X100000000Y-107190000D03*
%TD*%
D13*
%TO.P,H4,1*%
%TO.N,GND*%
X101166726Y-120833274D03*
X100000000Y-120350000D03*
X98833274Y-120833274D03*
X98350000Y-122000000D03*
X98833274Y-123166726D03*
X100000000Y-123650000D03*
X101166726Y-123166726D03*
X101650000Y-122000000D03*
D14*
X100000000Y-122000000D03*
%TD*%
D13*
%TO.P,H3,1*%
%TO.N,GND*%
X123166726Y-120833274D03*
X122000000Y-120350000D03*
X120833274Y-120833274D03*
X120350000Y-122000000D03*
X120833274Y-123166726D03*
X122000000Y-123650000D03*
X123166726Y-123166726D03*
X123650000Y-122000000D03*
D14*
X122000000Y-122000000D03*
%TD*%
D13*
%TO.P,H2,1*%
%TO.N,GND*%
X123166726Y-98833274D03*
X122000000Y-98350000D03*
X120833274Y-98833274D03*
X120350000Y-100000000D03*
X120833274Y-101166726D03*
X122000000Y-101650000D03*
X123166726Y-101166726D03*
X123650000Y-100000000D03*
D14*
X122000000Y-100000000D03*
%TD*%
D13*
%TO.P,H1,1*%
%TO.N,GND*%
X101166726Y-98833274D03*
X100000000Y-98350000D03*
X98833274Y-98833274D03*
X98350000Y-100000000D03*
X98833274Y-101166726D03*
X100000000Y-101650000D03*
X101166726Y-101166726D03*
X101650000Y-100000000D03*
D14*
X100000000Y-100000000D03*
%TD*%
D11*
%TO.P,J1,2*%
%TO.N,GND*%
X112270000Y-100000000D03*
D12*
%TO.P,J1,1*%
%TO.N,+15V*%
X109730000Y-100000000D03*
%TD*%
D15*
%TO.P,D2,2*%
%TO.N,Net-(D2-Pad2)*%
X115560000Y-100000000D03*
D16*
%TO.P,D2,1*%
%TO.N,GND*%
X118100000Y-100000000D03*
%TD*%
D17*
%TO.N,GND*%
X118923000Y-122430000D03*
X119558000Y-117350000D03*
X103175000Y-106682000D03*
X109525000Y-108714000D03*
X118415000Y-108714000D03*
X112065000Y-106682000D03*
X117780000Y-104650000D03*
X103302000Y-111049000D03*
X107239000Y-111303000D03*
X107366000Y-105588000D03*
X107493000Y-103429000D03*
X111557000Y-110414000D03*
X121336000Y-107366000D03*
X99000000Y-117907000D03*
X99000000Y-104000000D03*
X119177000Y-102921000D03*
X110160000Y-106096000D03*
X102286000Y-104318000D03*
X123000000Y-104000000D03*
X123000000Y-107500000D03*
X123000000Y-114500000D03*
X123000000Y-118000000D03*
X113491000Y-111127000D03*
X113237000Y-121668000D03*
X104000000Y-123000000D03*
X107500000Y-123000000D03*
X114380000Y-118747000D03*
%TO.N,+15V*%
X118415000Y-113794000D03*
X109525000Y-113794000D03*
X113999000Y-119890000D03*
%TD*%
D18*
%TO.N,+15V*%
X109730000Y-104699000D02*
X108128000Y-106301000D01*
X108128000Y-106301000D02*
X108128000Y-110238000D01*
X109525000Y-111635000D02*
X109525000Y-113794000D01*
X108128000Y-110238000D02*
X109525000Y-111635000D01*
X118415000Y-113794000D02*
X118415000Y-111674098D01*
X109730000Y-100000000D02*
X109730000Y-101426000D01*
X109730000Y-101426000D02*
X109730000Y-104699000D01*
X118415000Y-111674098D02*
X118415000Y-111303000D01*
X109730000Y-102618000D02*
X109730000Y-101426000D01*
X118415000Y-111303000D02*
X109730000Y-102618000D01*
D19*
X114888000Y-119890000D02*
X113999000Y-119890000D01*
X118415000Y-113794000D02*
X118415000Y-116363000D01*
X118415000Y-116363000D02*
X114888000Y-119890000D01*
%TD*%
%TO.N,GND*%
G36*
X120254448Y-98219092D02*
G01*
X120402459Y-98367103D01*
X120833274Y-98797919D01*
X120868629Y-98833274D01*
X121092586Y-99057230D01*
X122000000Y-99964645D01*
X122014142Y-99950502D01*
X122049498Y-99985858D01*
X122035355Y-100000000D01*
X122919968Y-100884612D01*
X123166726Y-101131371D01*
X123202081Y-101166726D01*
X123632897Y-101597541D01*
X123780908Y-101745552D01*
X123875000Y-101675058D01*
X123875000Y-120324942D01*
X123780908Y-120254448D01*
X123632897Y-120402459D01*
X123202081Y-120833274D01*
X123166726Y-120868629D01*
X122942770Y-121092586D01*
X122035355Y-122000000D01*
X122049498Y-122014142D01*
X122014142Y-122049498D01*
X122000000Y-122035355D01*
X121118108Y-122917248D01*
X120868629Y-123166726D01*
X120833274Y-123202081D01*
X120603578Y-123431778D01*
X120254448Y-123780908D01*
X120324942Y-123875000D01*
X101675058Y-123875000D01*
X101745552Y-123780908D01*
X101396422Y-123431778D01*
X101166726Y-123202081D01*
X101131371Y-123166726D01*
X100881892Y-122917248D01*
X100000000Y-122035355D01*
X99985858Y-122049498D01*
X99950502Y-122014142D01*
X99964645Y-122000000D01*
X100035355Y-122000000D01*
X100919968Y-122884612D01*
X101166726Y-123131371D01*
X101202081Y-123166726D01*
X101632897Y-123597541D01*
X101780908Y-123745552D01*
X102107895Y-123500574D01*
X102360140Y-123060510D01*
X102521686Y-122579693D01*
X102586326Y-122076597D01*
X102575806Y-121923403D01*
X119413674Y-121923403D01*
X119448426Y-122429442D01*
X119581234Y-122918977D01*
X119806993Y-123373197D01*
X119892105Y-123500574D01*
X120219092Y-123745552D01*
X120367103Y-123597541D01*
X120797919Y-123166726D01*
X120833274Y-123131371D01*
X121080032Y-122884612D01*
X121964645Y-122000000D01*
X121057230Y-121092586D01*
X120833274Y-120868629D01*
X120797919Y-120833274D01*
X120367103Y-120402459D01*
X120219092Y-120254448D01*
X119892105Y-120499426D01*
X119639860Y-120939490D01*
X119478314Y-121420307D01*
X119413674Y-121923403D01*
X102575806Y-121923403D01*
X102551574Y-121570558D01*
X102418766Y-121081023D01*
X102193007Y-120626803D01*
X102107895Y-120499426D01*
X101780908Y-120254448D01*
X101632897Y-120402459D01*
X101202081Y-120833274D01*
X101166726Y-120868629D01*
X100942770Y-121092586D01*
X100035355Y-122000000D01*
X99964645Y-122000000D01*
X99057230Y-121092586D01*
X98833274Y-120868629D01*
X98797919Y-120833274D01*
X98367103Y-120402459D01*
X98219092Y-120254448D01*
X98125000Y-120324942D01*
X98125000Y-120219092D01*
X98254448Y-120219092D01*
X98402459Y-120367103D01*
X98833274Y-120797919D01*
X98868629Y-120833274D01*
X99092586Y-121057230D01*
X100000000Y-121964645D01*
X100907414Y-121057230D01*
X101131371Y-120833274D01*
X101166726Y-120797919D01*
X101597541Y-120367103D01*
X101745552Y-120219092D01*
X101500574Y-119892105D01*
X101060510Y-119639860D01*
X100579693Y-119478314D01*
X100076597Y-119413674D01*
X99570558Y-119448426D01*
X99081023Y-119581234D01*
X98626803Y-119806993D01*
X98499426Y-119892105D01*
X98254448Y-120219092D01*
X98125000Y-120219092D01*
X98125000Y-114689348D01*
X98775000Y-114689348D01*
X98775000Y-114930652D01*
X98822076Y-115167319D01*
X98914419Y-115390255D01*
X99048481Y-115590892D01*
X99219108Y-115761519D01*
X99419745Y-115895581D01*
X99642681Y-115987924D01*
X99879348Y-116035000D01*
X100120652Y-116035000D01*
X100357319Y-115987924D01*
X100580255Y-115895581D01*
X100780892Y-115761519D01*
X100951519Y-115590892D01*
X101085581Y-115390255D01*
X101177924Y-115167319D01*
X101225000Y-114930652D01*
X101225000Y-114689348D01*
X101177924Y-114452681D01*
X101085581Y-114229745D01*
X100951519Y-114029108D01*
X100780892Y-113858481D01*
X100580255Y-113724419D01*
X100357319Y-113632076D01*
X100120652Y-113585000D01*
X99879348Y-113585000D01*
X99642681Y-113632076D01*
X99419745Y-113724419D01*
X99219108Y-113858481D01*
X99048481Y-114029108D01*
X98914419Y-114229745D01*
X98822076Y-114452681D01*
X98775000Y-114689348D01*
X98125000Y-114689348D01*
X98125000Y-112149348D01*
X98775000Y-112149348D01*
X98775000Y-112390652D01*
X98822076Y-112627319D01*
X98914419Y-112850255D01*
X99048481Y-113050892D01*
X99219108Y-113221519D01*
X99419745Y-113355581D01*
X99642681Y-113447924D01*
X99879348Y-113495000D01*
X100120652Y-113495000D01*
X100357319Y-113447924D01*
X100580255Y-113355581D01*
X100780892Y-113221519D01*
X100951519Y-113050892D01*
X101085581Y-112850255D01*
X101177924Y-112627319D01*
X101225000Y-112390652D01*
X101225000Y-112149348D01*
X101177924Y-111912681D01*
X101085581Y-111689745D01*
X100951519Y-111489108D01*
X100780892Y-111318481D01*
X100580255Y-111184419D01*
X100357319Y-111092076D01*
X100120652Y-111045000D01*
X99879348Y-111045000D01*
X99642681Y-111092076D01*
X99419745Y-111184419D01*
X99219108Y-111318481D01*
X99048481Y-111489108D01*
X98914419Y-111689745D01*
X98822076Y-111912681D01*
X98775000Y-112149348D01*
X98125000Y-112149348D01*
X98125000Y-109609348D01*
X98775000Y-109609348D01*
X98775000Y-109850652D01*
X98822076Y-110087319D01*
X98914419Y-110310255D01*
X99048481Y-110510892D01*
X99219108Y-110681519D01*
X99419745Y-110815581D01*
X99642681Y-110907924D01*
X99879348Y-110955000D01*
X100120652Y-110955000D01*
X100357319Y-110907924D01*
X100580255Y-110815581D01*
X100780892Y-110681519D01*
X100951519Y-110510892D01*
X101085581Y-110310255D01*
X101177924Y-110087319D01*
X101225000Y-109850652D01*
X101225000Y-109609348D01*
X101177924Y-109372681D01*
X101085581Y-109149745D01*
X100951519Y-108949108D01*
X100780892Y-108778481D01*
X100580255Y-108644419D01*
X100357319Y-108552076D01*
X100120652Y-108505000D01*
X99879348Y-108505000D01*
X99642681Y-108552076D01*
X99419745Y-108644419D01*
X99219108Y-108778481D01*
X99048481Y-108949108D01*
X98914419Y-109149745D01*
X98822076Y-109372681D01*
X98775000Y-109609348D01*
X98125000Y-109609348D01*
X98125000Y-106340000D01*
X98773186Y-106340000D01*
X98773186Y-108040000D01*
X98780426Y-108113513D01*
X98801869Y-108184200D01*
X98836691Y-108249347D01*
X98883552Y-108306448D01*
X98940653Y-108353309D01*
X99005800Y-108388131D01*
X99076487Y-108409574D01*
X99150000Y-108416814D01*
X100850000Y-108416814D01*
X100923513Y-108409574D01*
X100994200Y-108388131D01*
X101059347Y-108353309D01*
X101116448Y-108306448D01*
X101163309Y-108249347D01*
X101198131Y-108184200D01*
X101219574Y-108113513D01*
X101226814Y-108040000D01*
X101226814Y-106340000D01*
X101222974Y-106301000D01*
X107432151Y-106301000D01*
X107435500Y-106335004D01*
X107435501Y-110203986D01*
X107432151Y-110238000D01*
X107445521Y-110373753D01*
X107485119Y-110504290D01*
X107549423Y-110624594D01*
X107578577Y-110660118D01*
X107596141Y-110681519D01*
X107635961Y-110730040D01*
X107662378Y-110751720D01*
X108832500Y-111921843D01*
X108832501Y-113440669D01*
X108779783Y-113567941D01*
X108750000Y-113717669D01*
X108750000Y-113870331D01*
X108779783Y-114020059D01*
X108838204Y-114161100D01*
X108923018Y-114288034D01*
X109030966Y-114395982D01*
X109157900Y-114480796D01*
X109298941Y-114539217D01*
X109448669Y-114569000D01*
X109601331Y-114569000D01*
X109751059Y-114539217D01*
X109892100Y-114480796D01*
X110019034Y-114395982D01*
X110126982Y-114288034D01*
X110211796Y-114161100D01*
X110270217Y-114020059D01*
X110300000Y-113870331D01*
X110300000Y-113717669D01*
X110270217Y-113567941D01*
X110217500Y-113440671D01*
X110217500Y-111669003D01*
X110220849Y-111634999D01*
X110217500Y-111600995D01*
X110217500Y-111600988D01*
X110207479Y-111499246D01*
X110167882Y-111368710D01*
X110103578Y-111248406D01*
X110069093Y-111206386D01*
X110038721Y-111169378D01*
X110038716Y-111169373D01*
X110017039Y-111142960D01*
X109990627Y-111121284D01*
X108820500Y-109951158D01*
X108820500Y-106587842D01*
X110195623Y-105212720D01*
X110222040Y-105191040D01*
X110308578Y-105085594D01*
X110372882Y-104965290D01*
X110412479Y-104834754D01*
X110422500Y-104733012D01*
X110422500Y-104733005D01*
X110425849Y-104699001D01*
X110422500Y-104664997D01*
X110422500Y-104289842D01*
X117722500Y-111589843D01*
X117722500Y-111708109D01*
X117722501Y-111708119D01*
X117722500Y-113440670D01*
X117669783Y-113567941D01*
X117640000Y-113717669D01*
X117640000Y-113870331D01*
X117669783Y-114020059D01*
X117728204Y-114161100D01*
X117813018Y-114288034D01*
X117915000Y-114390016D01*
X117915001Y-116155892D01*
X114680895Y-119390000D01*
X114595016Y-119390000D01*
X114493034Y-119288018D01*
X114366100Y-119203204D01*
X114225059Y-119144783D01*
X114075331Y-119115000D01*
X113922669Y-119115000D01*
X113772941Y-119144783D01*
X113631900Y-119203204D01*
X113504966Y-119288018D01*
X113397018Y-119395966D01*
X113312204Y-119522900D01*
X113253783Y-119663941D01*
X113224000Y-119813669D01*
X113224000Y-119966331D01*
X113253783Y-120116059D01*
X113312204Y-120257100D01*
X113397018Y-120384034D01*
X113504966Y-120491982D01*
X113631900Y-120576796D01*
X113772941Y-120635217D01*
X113922669Y-120665000D01*
X114075331Y-120665000D01*
X114225059Y-120635217D01*
X114366100Y-120576796D01*
X114493034Y-120491982D01*
X114595016Y-120390000D01*
X114863440Y-120390000D01*
X114888000Y-120392419D01*
X114912560Y-120390000D01*
X114986017Y-120382765D01*
X115080267Y-120354175D01*
X115167129Y-120307746D01*
X115243264Y-120245264D01*
X115258929Y-120226176D01*
X115266013Y-120219092D01*
X120254448Y-120219092D01*
X120402459Y-120367103D01*
X120833274Y-120797919D01*
X120868629Y-120833274D01*
X121092586Y-121057230D01*
X122000000Y-121964645D01*
X122907414Y-121057230D01*
X123131371Y-120833274D01*
X123166726Y-120797919D01*
X123597541Y-120367103D01*
X123745552Y-120219092D01*
X123500574Y-119892105D01*
X123060510Y-119639860D01*
X122579693Y-119478314D01*
X122076597Y-119413674D01*
X121570558Y-119448426D01*
X121081023Y-119581234D01*
X120626803Y-119806993D01*
X120499426Y-119892105D01*
X120254448Y-120219092D01*
X115266013Y-120219092D01*
X118751187Y-116733920D01*
X118770264Y-116718264D01*
X118832746Y-116642129D01*
X118879175Y-116555267D01*
X118907765Y-116461017D01*
X118915000Y-116387560D01*
X118915000Y-116387559D01*
X118917419Y-116363001D01*
X118915000Y-116338443D01*
X118915000Y-114390016D01*
X119016982Y-114288034D01*
X119101796Y-114161100D01*
X119160217Y-114020059D01*
X119190000Y-113870331D01*
X119190000Y-113717669D01*
X119160217Y-113567941D01*
X119107500Y-113440671D01*
X119107500Y-112486285D01*
X120794245Y-112486285D01*
X120803259Y-112531602D01*
X120877290Y-112760048D01*
X120994466Y-112969662D01*
X121150284Y-113152388D01*
X121338756Y-113301205D01*
X121552640Y-113410393D01*
X121783715Y-113475756D01*
X121975000Y-113400996D01*
X121975000Y-112295000D01*
X122025000Y-112295000D01*
X122025000Y-113400996D01*
X122216285Y-113475756D01*
X122447360Y-113410393D01*
X122661244Y-113301205D01*
X122849716Y-113152388D01*
X123005534Y-112969662D01*
X123122710Y-112760048D01*
X123196741Y-112531602D01*
X123205755Y-112486285D01*
X123130974Y-112295000D01*
X122025000Y-112295000D01*
X121975000Y-112295000D01*
X120869026Y-112295000D01*
X120794245Y-112486285D01*
X119107500Y-112486285D01*
X119107500Y-112053715D01*
X120794245Y-112053715D01*
X120869026Y-112245000D01*
X121975000Y-112245000D01*
X121975000Y-111139004D01*
X122025000Y-111139004D01*
X122025000Y-112245000D01*
X123130974Y-112245000D01*
X123205755Y-112053715D01*
X123196741Y-112008398D01*
X123122710Y-111779952D01*
X123005534Y-111570338D01*
X122849716Y-111387612D01*
X122661244Y-111238795D01*
X122447360Y-111129607D01*
X122216285Y-111064244D01*
X122025000Y-111139004D01*
X121975000Y-111139004D01*
X121783715Y-111064244D01*
X121552640Y-111129607D01*
X121338756Y-111238795D01*
X121150284Y-111387612D01*
X120994466Y-111570338D01*
X120877290Y-111779952D01*
X120803259Y-112008398D01*
X120794245Y-112053715D01*
X119107500Y-112053715D01*
X119107500Y-111337004D01*
X119110849Y-111303000D01*
X119107500Y-111268996D01*
X119107500Y-111268989D01*
X119097479Y-111167247D01*
X119057882Y-111036710D01*
X118993578Y-110916406D01*
X118937665Y-110848276D01*
X118928721Y-110837378D01*
X118928720Y-110837377D01*
X118907040Y-110810960D01*
X118880623Y-110789280D01*
X116971343Y-108880000D01*
X120773186Y-108880000D01*
X120773186Y-110580000D01*
X120780426Y-110653513D01*
X120801869Y-110724200D01*
X120836691Y-110789347D01*
X120883552Y-110846448D01*
X120940653Y-110893309D01*
X121005800Y-110928131D01*
X121076487Y-110949574D01*
X121150000Y-110956814D01*
X122850000Y-110956814D01*
X122923513Y-110949574D01*
X122994200Y-110928131D01*
X123059347Y-110893309D01*
X123116448Y-110846448D01*
X123163309Y-110789347D01*
X123198131Y-110724200D01*
X123219574Y-110653513D01*
X123226814Y-110580000D01*
X123226814Y-108880000D01*
X123219574Y-108806487D01*
X123198131Y-108735800D01*
X123163309Y-108670653D01*
X123116448Y-108613552D01*
X123059347Y-108566691D01*
X122994200Y-108531869D01*
X122923513Y-108510426D01*
X122850000Y-108503186D01*
X121150000Y-108503186D01*
X121076487Y-108510426D01*
X121005800Y-108531869D01*
X120940653Y-108566691D01*
X120883552Y-108613552D01*
X120836691Y-108670653D01*
X120801869Y-108735800D01*
X120780426Y-108806487D01*
X120773186Y-108880000D01*
X116971343Y-108880000D01*
X110422500Y-102331158D01*
X110422500Y-101780908D01*
X120254448Y-101780908D01*
X120499426Y-102107895D01*
X120939490Y-102360140D01*
X121420307Y-102521686D01*
X121923403Y-102586326D01*
X122429442Y-102551574D01*
X122918977Y-102418766D01*
X123373197Y-102193007D01*
X123500574Y-102107895D01*
X123745552Y-101780908D01*
X123406825Y-101442181D01*
X123166726Y-101202081D01*
X123131371Y-101166726D01*
X122883621Y-100918977D01*
X122000000Y-100035355D01*
X121116379Y-100918977D01*
X120868629Y-101166726D01*
X120833274Y-101202081D01*
X120593175Y-101442181D01*
X120254448Y-101780908D01*
X110422500Y-101780908D01*
X110422500Y-101226814D01*
X110580000Y-101226814D01*
X110653513Y-101219574D01*
X110724200Y-101198131D01*
X110789347Y-101163309D01*
X110846448Y-101116448D01*
X110893309Y-101059347D01*
X110928131Y-100994200D01*
X110949574Y-100923513D01*
X110956814Y-100850000D01*
X110956814Y-100216285D01*
X111064244Y-100216285D01*
X111129607Y-100447360D01*
X111238795Y-100661244D01*
X111387612Y-100849716D01*
X111570338Y-101005534D01*
X111779952Y-101122710D01*
X112008398Y-101196741D01*
X112053715Y-101205755D01*
X112245000Y-101130974D01*
X112245000Y-100025000D01*
X112295000Y-100025000D01*
X112295000Y-101130974D01*
X112486285Y-101205755D01*
X112531602Y-101196741D01*
X112760048Y-101122710D01*
X112969662Y-101005534D01*
X113152388Y-100849716D01*
X113301205Y-100661244D01*
X113410393Y-100447360D01*
X113475756Y-100216285D01*
X113400996Y-100025000D01*
X112295000Y-100025000D01*
X112245000Y-100025000D01*
X111139004Y-100025000D01*
X111064244Y-100216285D01*
X110956814Y-100216285D01*
X110956814Y-99783715D01*
X111064244Y-99783715D01*
X111139004Y-99975000D01*
X112245000Y-99975000D01*
X112245000Y-98869026D01*
X112295000Y-98869026D01*
X112295000Y-99975000D01*
X113400996Y-99975000D01*
X113440304Y-99874423D01*
X114285000Y-99874423D01*
X114285000Y-100125577D01*
X114333998Y-100371904D01*
X114430110Y-100603939D01*
X114569643Y-100812765D01*
X114747235Y-100990357D01*
X114956061Y-101129890D01*
X115188096Y-101226002D01*
X115434423Y-101275000D01*
X115685577Y-101275000D01*
X115931904Y-101226002D01*
X116163939Y-101129890D01*
X116372765Y-100990357D01*
X116550357Y-100812765D01*
X116689890Y-100603939D01*
X116786002Y-100371904D01*
X116824866Y-100176524D01*
X116823186Y-100900000D01*
X116830426Y-100973513D01*
X116851869Y-101044200D01*
X116886691Y-101109347D01*
X116933552Y-101166448D01*
X116990653Y-101213309D01*
X117055800Y-101248131D01*
X117126487Y-101269574D01*
X117200000Y-101276814D01*
X117981250Y-101275000D01*
X118075000Y-101181250D01*
X118075000Y-100025000D01*
X118125000Y-100025000D01*
X118125000Y-101181250D01*
X118218750Y-101275000D01*
X119000000Y-101276814D01*
X119073513Y-101269574D01*
X119144200Y-101248131D01*
X119209347Y-101213309D01*
X119266448Y-101166448D01*
X119313309Y-101109347D01*
X119348131Y-101044200D01*
X119369574Y-100973513D01*
X119376814Y-100900000D01*
X119375000Y-100118750D01*
X119281250Y-100025000D01*
X118125000Y-100025000D01*
X118075000Y-100025000D01*
X118055000Y-100025000D01*
X118055000Y-99975000D01*
X118075000Y-99975000D01*
X118075000Y-98818750D01*
X118125000Y-98818750D01*
X118125000Y-99975000D01*
X119281250Y-99975000D01*
X119332847Y-99923403D01*
X119413674Y-99923403D01*
X119448426Y-100429442D01*
X119581234Y-100918977D01*
X119806993Y-101373197D01*
X119892105Y-101500574D01*
X120219092Y-101745552D01*
X120367103Y-101597541D01*
X120797919Y-101166726D01*
X120833274Y-101131371D01*
X121080032Y-100884612D01*
X121964645Y-100000000D01*
X121057230Y-99092586D01*
X120833274Y-98868629D01*
X120797919Y-98833274D01*
X120367103Y-98402459D01*
X120219092Y-98254448D01*
X119892105Y-98499426D01*
X119639860Y-98939490D01*
X119478314Y-99420307D01*
X119413674Y-99923403D01*
X119332847Y-99923403D01*
X119375000Y-99881250D01*
X119376814Y-99100000D01*
X119369574Y-99026487D01*
X119348131Y-98955800D01*
X119313309Y-98890653D01*
X119266448Y-98833552D01*
X119209347Y-98786691D01*
X119144200Y-98751869D01*
X119073513Y-98730426D01*
X119000000Y-98723186D01*
X118218750Y-98725000D01*
X118125000Y-98818750D01*
X118075000Y-98818750D01*
X117981250Y-98725000D01*
X117200000Y-98723186D01*
X117126487Y-98730426D01*
X117055800Y-98751869D01*
X116990653Y-98786691D01*
X116933552Y-98833552D01*
X116886691Y-98890653D01*
X116851869Y-98955800D01*
X116830426Y-99026487D01*
X116823186Y-99100000D01*
X116824866Y-99823476D01*
X116786002Y-99628096D01*
X116689890Y-99396061D01*
X116550357Y-99187235D01*
X116372765Y-99009643D01*
X116163939Y-98870110D01*
X115931904Y-98773998D01*
X115685577Y-98725000D01*
X115434423Y-98725000D01*
X115188096Y-98773998D01*
X114956061Y-98870110D01*
X114747235Y-99009643D01*
X114569643Y-99187235D01*
X114430110Y-99396061D01*
X114333998Y-99628096D01*
X114285000Y-99874423D01*
X113440304Y-99874423D01*
X113475756Y-99783715D01*
X113410393Y-99552640D01*
X113301205Y-99338756D01*
X113152388Y-99150284D01*
X112969662Y-98994466D01*
X112760048Y-98877290D01*
X112531602Y-98803259D01*
X112486285Y-98794245D01*
X112295000Y-98869026D01*
X112245000Y-98869026D01*
X112053715Y-98794245D01*
X112008398Y-98803259D01*
X111779952Y-98877290D01*
X111570338Y-98994466D01*
X111387612Y-99150284D01*
X111238795Y-99338756D01*
X111129607Y-99552640D01*
X111064244Y-99783715D01*
X110956814Y-99783715D01*
X110956814Y-99150000D01*
X110949574Y-99076487D01*
X110928131Y-99005800D01*
X110893309Y-98940653D01*
X110846448Y-98883552D01*
X110789347Y-98836691D01*
X110724200Y-98801869D01*
X110653513Y-98780426D01*
X110580000Y-98773186D01*
X108880000Y-98773186D01*
X108806487Y-98780426D01*
X108735800Y-98801869D01*
X108670653Y-98836691D01*
X108613552Y-98883552D01*
X108566691Y-98940653D01*
X108531869Y-99005800D01*
X108510426Y-99076487D01*
X108503186Y-99150000D01*
X108503186Y-100850000D01*
X108510426Y-100923513D01*
X108531869Y-100994200D01*
X108566691Y-101059347D01*
X108613552Y-101116448D01*
X108670653Y-101163309D01*
X108735800Y-101198131D01*
X108806487Y-101219574D01*
X108880000Y-101226814D01*
X109037501Y-101226814D01*
X109037501Y-101391979D01*
X109037500Y-101391989D01*
X109037500Y-102583992D01*
X109034151Y-102618000D01*
X109037500Y-102652008D01*
X109037501Y-104412156D01*
X107662379Y-105787279D01*
X107635960Y-105808961D01*
X107549422Y-105914407D01*
X107485118Y-106034711D01*
X107445521Y-106165247D01*
X107435500Y-106266989D01*
X107435500Y-106266996D01*
X107432151Y-106301000D01*
X101222974Y-106301000D01*
X101219574Y-106266487D01*
X101198131Y-106195800D01*
X101163309Y-106130653D01*
X101116448Y-106073552D01*
X101059347Y-106026691D01*
X100994200Y-105991869D01*
X100923513Y-105970426D01*
X100850000Y-105963186D01*
X99150000Y-105963186D01*
X99076487Y-105970426D01*
X99005800Y-105991869D01*
X98940653Y-106026691D01*
X98883552Y-106073552D01*
X98836691Y-106130653D01*
X98801869Y-106195800D01*
X98780426Y-106266487D01*
X98773186Y-106340000D01*
X98125000Y-106340000D01*
X98125000Y-101780908D01*
X98254448Y-101780908D01*
X98499426Y-102107895D01*
X98939490Y-102360140D01*
X99420307Y-102521686D01*
X99923403Y-102586326D01*
X100429442Y-102551574D01*
X100918977Y-102418766D01*
X101373197Y-102193007D01*
X101500574Y-102107895D01*
X101745552Y-101780908D01*
X101406825Y-101442181D01*
X101166726Y-101202081D01*
X101131371Y-101166726D01*
X100883621Y-100918977D01*
X100000000Y-100035355D01*
X99116379Y-100918977D01*
X98868629Y-101166726D01*
X98833274Y-101202081D01*
X98593175Y-101442181D01*
X98254448Y-101780908D01*
X98125000Y-101780908D01*
X98125000Y-101675058D01*
X98219092Y-101745552D01*
X98367103Y-101597541D01*
X98797919Y-101166726D01*
X98833274Y-101131371D01*
X99080032Y-100884612D01*
X99964645Y-100000000D01*
X100035355Y-100000000D01*
X100919968Y-100884612D01*
X101166726Y-101131371D01*
X101202081Y-101166726D01*
X101632897Y-101597541D01*
X101780908Y-101745552D01*
X102107895Y-101500574D01*
X102360140Y-101060510D01*
X102521686Y-100579693D01*
X102586326Y-100076597D01*
X102551574Y-99570558D01*
X102418766Y-99081023D01*
X102193007Y-98626803D01*
X102107895Y-98499426D01*
X101780908Y-98254448D01*
X101632897Y-98402459D01*
X101202081Y-98833274D01*
X101166726Y-98868629D01*
X100942770Y-99092586D01*
X100035355Y-100000000D01*
X99964645Y-100000000D01*
X99950502Y-99985858D01*
X99985858Y-99950502D01*
X100000000Y-99964645D01*
X100907414Y-99057230D01*
X101131371Y-98833274D01*
X101166726Y-98797919D01*
X101597541Y-98367103D01*
X101745552Y-98219092D01*
X101675058Y-98125000D01*
X120324942Y-98125000D01*
X120254448Y-98219092D01*
G37*
X120254448Y-98219092D02*
X120402459Y-98367103D01*
X120833274Y-98797919D01*
X120868629Y-98833274D01*
X121092586Y-99057230D01*
X122000000Y-99964645D01*
X122014142Y-99950502D01*
X122049498Y-99985858D01*
X122035355Y-100000000D01*
X122919968Y-100884612D01*
X123166726Y-101131371D01*
X123202081Y-101166726D01*
X123632897Y-101597541D01*
X123780908Y-101745552D01*
X123875000Y-101675058D01*
X123875000Y-120324942D01*
X123780908Y-120254448D01*
X123632897Y-120402459D01*
X123202081Y-120833274D01*
X123166726Y-120868629D01*
X122942770Y-121092586D01*
X122035355Y-122000000D01*
X122049498Y-122014142D01*
X122014142Y-122049498D01*
X122000000Y-122035355D01*
X121118108Y-122917248D01*
X120868629Y-123166726D01*
X120833274Y-123202081D01*
X120603578Y-123431778D01*
X120254448Y-123780908D01*
X120324942Y-123875000D01*
X101675058Y-123875000D01*
X101745552Y-123780908D01*
X101396422Y-123431778D01*
X101166726Y-123202081D01*
X101131371Y-123166726D01*
X100881892Y-122917248D01*
X100000000Y-122035355D01*
X99985858Y-122049498D01*
X99950502Y-122014142D01*
X99964645Y-122000000D01*
X100035355Y-122000000D01*
X100919968Y-122884612D01*
X101166726Y-123131371D01*
X101202081Y-123166726D01*
X101632897Y-123597541D01*
X101780908Y-123745552D01*
X102107895Y-123500574D01*
X102360140Y-123060510D01*
X102521686Y-122579693D01*
X102586326Y-122076597D01*
X102575806Y-121923403D01*
X119413674Y-121923403D01*
X119448426Y-122429442D01*
X119581234Y-122918977D01*
X119806993Y-123373197D01*
X119892105Y-123500574D01*
X120219092Y-123745552D01*
X120367103Y-123597541D01*
X120797919Y-123166726D01*
X120833274Y-123131371D01*
X121080032Y-122884612D01*
X121964645Y-122000000D01*
X121057230Y-121092586D01*
X120833274Y-120868629D01*
X120797919Y-120833274D01*
X120367103Y-120402459D01*
X120219092Y-120254448D01*
X119892105Y-120499426D01*
X119639860Y-120939490D01*
X119478314Y-121420307D01*
X119413674Y-121923403D01*
X102575806Y-121923403D01*
X102551574Y-121570558D01*
X102418766Y-121081023D01*
X102193007Y-120626803D01*
X102107895Y-120499426D01*
X101780908Y-120254448D01*
X101632897Y-120402459D01*
X101202081Y-120833274D01*
X101166726Y-120868629D01*
X100942770Y-121092586D01*
X100035355Y-122000000D01*
X99964645Y-122000000D01*
X99057230Y-121092586D01*
X98833274Y-120868629D01*
X98797919Y-120833274D01*
X98367103Y-120402459D01*
X98219092Y-120254448D01*
X98125000Y-120324942D01*
X98125000Y-120219092D01*
X98254448Y-120219092D01*
X98402459Y-120367103D01*
X98833274Y-120797919D01*
X98868629Y-120833274D01*
X99092586Y-121057230D01*
X100000000Y-121964645D01*
X100907414Y-121057230D01*
X101131371Y-120833274D01*
X101166726Y-120797919D01*
X101597541Y-120367103D01*
X101745552Y-120219092D01*
X101500574Y-119892105D01*
X101060510Y-119639860D01*
X100579693Y-119478314D01*
X100076597Y-119413674D01*
X99570558Y-119448426D01*
X99081023Y-119581234D01*
X98626803Y-119806993D01*
X98499426Y-119892105D01*
X98254448Y-120219092D01*
X98125000Y-120219092D01*
X98125000Y-114689348D01*
X98775000Y-114689348D01*
X98775000Y-114930652D01*
X98822076Y-115167319D01*
X98914419Y-115390255D01*
X99048481Y-115590892D01*
X99219108Y-115761519D01*
X99419745Y-115895581D01*
X99642681Y-115987924D01*
X99879348Y-116035000D01*
X100120652Y-116035000D01*
X100357319Y-115987924D01*
X100580255Y-115895581D01*
X100780892Y-115761519D01*
X100951519Y-115590892D01*
X101085581Y-115390255D01*
X101177924Y-115167319D01*
X101225000Y-114930652D01*
X101225000Y-114689348D01*
X101177924Y-114452681D01*
X101085581Y-114229745D01*
X100951519Y-114029108D01*
X100780892Y-113858481D01*
X100580255Y-113724419D01*
X100357319Y-113632076D01*
X100120652Y-113585000D01*
X99879348Y-113585000D01*
X99642681Y-113632076D01*
X99419745Y-113724419D01*
X99219108Y-113858481D01*
X99048481Y-114029108D01*
X98914419Y-114229745D01*
X98822076Y-114452681D01*
X98775000Y-114689348D01*
X98125000Y-114689348D01*
X98125000Y-112149348D01*
X98775000Y-112149348D01*
X98775000Y-112390652D01*
X98822076Y-112627319D01*
X98914419Y-112850255D01*
X99048481Y-113050892D01*
X99219108Y-113221519D01*
X99419745Y-113355581D01*
X99642681Y-113447924D01*
X99879348Y-113495000D01*
X100120652Y-113495000D01*
X100357319Y-113447924D01*
X100580255Y-113355581D01*
X100780892Y-113221519D01*
X100951519Y-113050892D01*
X101085581Y-112850255D01*
X101177924Y-112627319D01*
X101225000Y-112390652D01*
X101225000Y-112149348D01*
X101177924Y-111912681D01*
X101085581Y-111689745D01*
X100951519Y-111489108D01*
X100780892Y-111318481D01*
X100580255Y-111184419D01*
X100357319Y-111092076D01*
X100120652Y-111045000D01*
X99879348Y-111045000D01*
X99642681Y-111092076D01*
X99419745Y-111184419D01*
X99219108Y-111318481D01*
X99048481Y-111489108D01*
X98914419Y-111689745D01*
X98822076Y-111912681D01*
X98775000Y-112149348D01*
X98125000Y-112149348D01*
X98125000Y-109609348D01*
X98775000Y-109609348D01*
X98775000Y-109850652D01*
X98822076Y-110087319D01*
X98914419Y-110310255D01*
X99048481Y-110510892D01*
X99219108Y-110681519D01*
X99419745Y-110815581D01*
X99642681Y-110907924D01*
X99879348Y-110955000D01*
X100120652Y-110955000D01*
X100357319Y-110907924D01*
X100580255Y-110815581D01*
X100780892Y-110681519D01*
X100951519Y-110510892D01*
X101085581Y-110310255D01*
X101177924Y-110087319D01*
X101225000Y-109850652D01*
X101225000Y-109609348D01*
X101177924Y-109372681D01*
X101085581Y-109149745D01*
X100951519Y-108949108D01*
X100780892Y-108778481D01*
X100580255Y-108644419D01*
X100357319Y-108552076D01*
X100120652Y-108505000D01*
X99879348Y-108505000D01*
X99642681Y-108552076D01*
X99419745Y-108644419D01*
X99219108Y-108778481D01*
X99048481Y-108949108D01*
X98914419Y-109149745D01*
X98822076Y-109372681D01*
X98775000Y-109609348D01*
X98125000Y-109609348D01*
X98125000Y-106340000D01*
X98773186Y-106340000D01*
X98773186Y-108040000D01*
X98780426Y-108113513D01*
X98801869Y-108184200D01*
X98836691Y-108249347D01*
X98883552Y-108306448D01*
X98940653Y-108353309D01*
X99005800Y-108388131D01*
X99076487Y-108409574D01*
X99150000Y-108416814D01*
X100850000Y-108416814D01*
X100923513Y-108409574D01*
X100994200Y-108388131D01*
X101059347Y-108353309D01*
X101116448Y-108306448D01*
X101163309Y-108249347D01*
X101198131Y-108184200D01*
X101219574Y-108113513D01*
X101226814Y-108040000D01*
X101226814Y-106340000D01*
X101222974Y-106301000D01*
X107432151Y-106301000D01*
X107435500Y-106335004D01*
X107435501Y-110203986D01*
X107432151Y-110238000D01*
X107445521Y-110373753D01*
X107485119Y-110504290D01*
X107549423Y-110624594D01*
X107578577Y-110660118D01*
X107596141Y-110681519D01*
X107635961Y-110730040D01*
X107662378Y-110751720D01*
X108832500Y-111921843D01*
X108832501Y-113440669D01*
X108779783Y-113567941D01*
X108750000Y-113717669D01*
X108750000Y-113870331D01*
X108779783Y-114020059D01*
X108838204Y-114161100D01*
X108923018Y-114288034D01*
X109030966Y-114395982D01*
X109157900Y-114480796D01*
X109298941Y-114539217D01*
X109448669Y-114569000D01*
X109601331Y-114569000D01*
X109751059Y-114539217D01*
X109892100Y-114480796D01*
X110019034Y-114395982D01*
X110126982Y-114288034D01*
X110211796Y-114161100D01*
X110270217Y-114020059D01*
X110300000Y-113870331D01*
X110300000Y-113717669D01*
X110270217Y-113567941D01*
X110217500Y-113440671D01*
X110217500Y-111669003D01*
X110220849Y-111634999D01*
X110217500Y-111600995D01*
X110217500Y-111600988D01*
X110207479Y-111499246D01*
X110167882Y-111368710D01*
X110103578Y-111248406D01*
X110069093Y-111206386D01*
X110038721Y-111169378D01*
X110038716Y-111169373D01*
X110017039Y-111142960D01*
X109990627Y-111121284D01*
X108820500Y-109951158D01*
X108820500Y-106587842D01*
X110195623Y-105212720D01*
X110222040Y-105191040D01*
X110308578Y-105085594D01*
X110372882Y-104965290D01*
X110412479Y-104834754D01*
X110422500Y-104733012D01*
X110422500Y-104733005D01*
X110425849Y-104699001D01*
X110422500Y-104664997D01*
X110422500Y-104289842D01*
X117722500Y-111589843D01*
X117722500Y-111708109D01*
X117722501Y-111708119D01*
X117722500Y-113440670D01*
X117669783Y-113567941D01*
X117640000Y-113717669D01*
X117640000Y-113870331D01*
X117669783Y-114020059D01*
X117728204Y-114161100D01*
X117813018Y-114288034D01*
X117915000Y-114390016D01*
X117915001Y-116155892D01*
X114680895Y-119390000D01*
X114595016Y-119390000D01*
X114493034Y-119288018D01*
X114366100Y-119203204D01*
X114225059Y-119144783D01*
X114075331Y-119115000D01*
X113922669Y-119115000D01*
X113772941Y-119144783D01*
X113631900Y-119203204D01*
X113504966Y-119288018D01*
X113397018Y-119395966D01*
X113312204Y-119522900D01*
X113253783Y-119663941D01*
X113224000Y-119813669D01*
X113224000Y-119966331D01*
X113253783Y-120116059D01*
X113312204Y-120257100D01*
X113397018Y-120384034D01*
X113504966Y-120491982D01*
X113631900Y-120576796D01*
X113772941Y-120635217D01*
X113922669Y-120665000D01*
X114075331Y-120665000D01*
X114225059Y-120635217D01*
X114366100Y-120576796D01*
X114493034Y-120491982D01*
X114595016Y-120390000D01*
X114863440Y-120390000D01*
X114888000Y-120392419D01*
X114912560Y-120390000D01*
X114986017Y-120382765D01*
X115080267Y-120354175D01*
X115167129Y-120307746D01*
X115243264Y-120245264D01*
X115258929Y-120226176D01*
X115266013Y-120219092D01*
X120254448Y-120219092D01*
X120402459Y-120367103D01*
X120833274Y-120797919D01*
X120868629Y-120833274D01*
X121092586Y-121057230D01*
X122000000Y-121964645D01*
X122907414Y-121057230D01*
X123131371Y-120833274D01*
X123166726Y-120797919D01*
X123597541Y-120367103D01*
X123745552Y-120219092D01*
X123500574Y-119892105D01*
X123060510Y-119639860D01*
X122579693Y-119478314D01*
X122076597Y-119413674D01*
X121570558Y-119448426D01*
X121081023Y-119581234D01*
X120626803Y-119806993D01*
X120499426Y-119892105D01*
X120254448Y-120219092D01*
X115266013Y-120219092D01*
X118751187Y-116733920D01*
X118770264Y-116718264D01*
X118832746Y-116642129D01*
X118879175Y-116555267D01*
X118907765Y-116461017D01*
X118915000Y-116387560D01*
X118915000Y-116387559D01*
X118917419Y-116363001D01*
X118915000Y-116338443D01*
X118915000Y-114390016D01*
X119016982Y-114288034D01*
X119101796Y-114161100D01*
X119160217Y-114020059D01*
X119190000Y-113870331D01*
X119190000Y-113717669D01*
X119160217Y-113567941D01*
X119107500Y-113440671D01*
X119107500Y-112486285D01*
X120794245Y-112486285D01*
X120803259Y-112531602D01*
X120877290Y-112760048D01*
X120994466Y-112969662D01*
X121150284Y-113152388D01*
X121338756Y-113301205D01*
X121552640Y-113410393D01*
X121783715Y-113475756D01*
X121975000Y-113400996D01*
X121975000Y-112295000D01*
X122025000Y-112295000D01*
X122025000Y-113400996D01*
X122216285Y-113475756D01*
X122447360Y-113410393D01*
X122661244Y-113301205D01*
X122849716Y-113152388D01*
X123005534Y-112969662D01*
X123122710Y-112760048D01*
X123196741Y-112531602D01*
X123205755Y-112486285D01*
X123130974Y-112295000D01*
X122025000Y-112295000D01*
X121975000Y-112295000D01*
X120869026Y-112295000D01*
X120794245Y-112486285D01*
X119107500Y-112486285D01*
X119107500Y-112053715D01*
X120794245Y-112053715D01*
X120869026Y-112245000D01*
X121975000Y-112245000D01*
X121975000Y-111139004D01*
X122025000Y-111139004D01*
X122025000Y-112245000D01*
X123130974Y-112245000D01*
X123205755Y-112053715D01*
X123196741Y-112008398D01*
X123122710Y-111779952D01*
X123005534Y-111570338D01*
X122849716Y-111387612D01*
X122661244Y-111238795D01*
X122447360Y-111129607D01*
X122216285Y-111064244D01*
X122025000Y-111139004D01*
X121975000Y-111139004D01*
X121783715Y-111064244D01*
X121552640Y-111129607D01*
X121338756Y-111238795D01*
X121150284Y-111387612D01*
X120994466Y-111570338D01*
X120877290Y-111779952D01*
X120803259Y-112008398D01*
X120794245Y-112053715D01*
X119107500Y-112053715D01*
X119107500Y-111337004D01*
X119110849Y-111303000D01*
X119107500Y-111268996D01*
X119107500Y-111268989D01*
X119097479Y-111167247D01*
X119057882Y-111036710D01*
X118993578Y-110916406D01*
X118937665Y-110848276D01*
X118928721Y-110837378D01*
X118928720Y-110837377D01*
X118907040Y-110810960D01*
X118880623Y-110789280D01*
X116971343Y-108880000D01*
X120773186Y-108880000D01*
X120773186Y-110580000D01*
X120780426Y-110653513D01*
X120801869Y-110724200D01*
X120836691Y-110789347D01*
X120883552Y-110846448D01*
X120940653Y-110893309D01*
X121005800Y-110928131D01*
X121076487Y-110949574D01*
X121150000Y-110956814D01*
X122850000Y-110956814D01*
X122923513Y-110949574D01*
X122994200Y-110928131D01*
X123059347Y-110893309D01*
X123116448Y-110846448D01*
X123163309Y-110789347D01*
X123198131Y-110724200D01*
X123219574Y-110653513D01*
X123226814Y-110580000D01*
X123226814Y-108880000D01*
X123219574Y-108806487D01*
X123198131Y-108735800D01*
X123163309Y-108670653D01*
X123116448Y-108613552D01*
X123059347Y-108566691D01*
X122994200Y-108531869D01*
X122923513Y-108510426D01*
X122850000Y-108503186D01*
X121150000Y-108503186D01*
X121076487Y-108510426D01*
X121005800Y-108531869D01*
X120940653Y-108566691D01*
X120883552Y-108613552D01*
X120836691Y-108670653D01*
X120801869Y-108735800D01*
X120780426Y-108806487D01*
X120773186Y-108880000D01*
X116971343Y-108880000D01*
X110422500Y-102331158D01*
X110422500Y-101780908D01*
X120254448Y-101780908D01*
X120499426Y-102107895D01*
X120939490Y-102360140D01*
X121420307Y-102521686D01*
X121923403Y-102586326D01*
X122429442Y-102551574D01*
X122918977Y-102418766D01*
X123373197Y-102193007D01*
X123500574Y-102107895D01*
X123745552Y-101780908D01*
X123406825Y-101442181D01*
X123166726Y-101202081D01*
X123131371Y-101166726D01*
X122883621Y-100918977D01*
X122000000Y-100035355D01*
X121116379Y-100918977D01*
X120868629Y-101166726D01*
X120833274Y-101202081D01*
X120593175Y-101442181D01*
X120254448Y-101780908D01*
X110422500Y-101780908D01*
X110422500Y-101226814D01*
X110580000Y-101226814D01*
X110653513Y-101219574D01*
X110724200Y-101198131D01*
X110789347Y-101163309D01*
X110846448Y-101116448D01*
X110893309Y-101059347D01*
X110928131Y-100994200D01*
X110949574Y-100923513D01*
X110956814Y-100850000D01*
X110956814Y-100216285D01*
X111064244Y-100216285D01*
X111129607Y-100447360D01*
X111238795Y-100661244D01*
X111387612Y-100849716D01*
X111570338Y-101005534D01*
X111779952Y-101122710D01*
X112008398Y-101196741D01*
X112053715Y-101205755D01*
X112245000Y-101130974D01*
X112245000Y-100025000D01*
X112295000Y-100025000D01*
X112295000Y-101130974D01*
X112486285Y-101205755D01*
X112531602Y-101196741D01*
X112760048Y-101122710D01*
X112969662Y-101005534D01*
X113152388Y-100849716D01*
X113301205Y-100661244D01*
X113410393Y-100447360D01*
X113475756Y-100216285D01*
X113400996Y-100025000D01*
X112295000Y-100025000D01*
X112245000Y-100025000D01*
X111139004Y-100025000D01*
X111064244Y-100216285D01*
X110956814Y-100216285D01*
X110956814Y-99783715D01*
X111064244Y-99783715D01*
X111139004Y-99975000D01*
X112245000Y-99975000D01*
X112245000Y-98869026D01*
X112295000Y-98869026D01*
X112295000Y-99975000D01*
X113400996Y-99975000D01*
X113440304Y-99874423D01*
X114285000Y-99874423D01*
X114285000Y-100125577D01*
X114333998Y-100371904D01*
X114430110Y-100603939D01*
X114569643Y-100812765D01*
X114747235Y-100990357D01*
X114956061Y-101129890D01*
X115188096Y-101226002D01*
X115434423Y-101275000D01*
X115685577Y-101275000D01*
X115931904Y-101226002D01*
X116163939Y-101129890D01*
X116372765Y-100990357D01*
X116550357Y-100812765D01*
X116689890Y-100603939D01*
X116786002Y-100371904D01*
X116824866Y-100176524D01*
X116823186Y-100900000D01*
X116830426Y-100973513D01*
X116851869Y-101044200D01*
X116886691Y-101109347D01*
X116933552Y-101166448D01*
X116990653Y-101213309D01*
X117055800Y-101248131D01*
X117126487Y-101269574D01*
X117200000Y-101276814D01*
X117981250Y-101275000D01*
X118075000Y-101181250D01*
X118075000Y-100025000D01*
X118125000Y-100025000D01*
X118125000Y-101181250D01*
X118218750Y-101275000D01*
X119000000Y-101276814D01*
X119073513Y-101269574D01*
X119144200Y-101248131D01*
X119209347Y-101213309D01*
X119266448Y-101166448D01*
X119313309Y-101109347D01*
X119348131Y-101044200D01*
X119369574Y-100973513D01*
X119376814Y-100900000D01*
X119375000Y-100118750D01*
X119281250Y-100025000D01*
X118125000Y-100025000D01*
X118075000Y-100025000D01*
X118055000Y-100025000D01*
X118055000Y-99975000D01*
X118075000Y-99975000D01*
X118075000Y-98818750D01*
X118125000Y-98818750D01*
X118125000Y-99975000D01*
X119281250Y-99975000D01*
X119332847Y-99923403D01*
X119413674Y-99923403D01*
X119448426Y-100429442D01*
X119581234Y-100918977D01*
X119806993Y-101373197D01*
X119892105Y-101500574D01*
X120219092Y-101745552D01*
X120367103Y-101597541D01*
X120797919Y-101166726D01*
X120833274Y-101131371D01*
X121080032Y-100884612D01*
X121964645Y-100000000D01*
X121057230Y-99092586D01*
X120833274Y-98868629D01*
X120797919Y-98833274D01*
X120367103Y-98402459D01*
X120219092Y-98254448D01*
X119892105Y-98499426D01*
X119639860Y-98939490D01*
X119478314Y-99420307D01*
X119413674Y-99923403D01*
X119332847Y-99923403D01*
X119375000Y-99881250D01*
X119376814Y-99100000D01*
X119369574Y-99026487D01*
X119348131Y-98955800D01*
X119313309Y-98890653D01*
X119266448Y-98833552D01*
X119209347Y-98786691D01*
X119144200Y-98751869D01*
X119073513Y-98730426D01*
X119000000Y-98723186D01*
X118218750Y-98725000D01*
X118125000Y-98818750D01*
X118075000Y-98818750D01*
X117981250Y-98725000D01*
X117200000Y-98723186D01*
X117126487Y-98730426D01*
X117055800Y-98751869D01*
X116990653Y-98786691D01*
X116933552Y-98833552D01*
X116886691Y-98890653D01*
X116851869Y-98955800D01*
X116830426Y-99026487D01*
X116823186Y-99100000D01*
X116824866Y-99823476D01*
X116786002Y-99628096D01*
X116689890Y-99396061D01*
X116550357Y-99187235D01*
X116372765Y-99009643D01*
X116163939Y-98870110D01*
X115931904Y-98773998D01*
X115685577Y-98725000D01*
X115434423Y-98725000D01*
X115188096Y-98773998D01*
X114956061Y-98870110D01*
X114747235Y-99009643D01*
X114569643Y-99187235D01*
X114430110Y-99396061D01*
X114333998Y-99628096D01*
X114285000Y-99874423D01*
X113440304Y-99874423D01*
X113475756Y-99783715D01*
X113410393Y-99552640D01*
X113301205Y-99338756D01*
X113152388Y-99150284D01*
X112969662Y-98994466D01*
X112760048Y-98877290D01*
X112531602Y-98803259D01*
X112486285Y-98794245D01*
X112295000Y-98869026D01*
X112245000Y-98869026D01*
X112053715Y-98794245D01*
X112008398Y-98803259D01*
X111779952Y-98877290D01*
X111570338Y-98994466D01*
X111387612Y-99150284D01*
X111238795Y-99338756D01*
X111129607Y-99552640D01*
X111064244Y-99783715D01*
X110956814Y-99783715D01*
X110956814Y-99150000D01*
X110949574Y-99076487D01*
X110928131Y-99005800D01*
X110893309Y-98940653D01*
X110846448Y-98883552D01*
X110789347Y-98836691D01*
X110724200Y-98801869D01*
X110653513Y-98780426D01*
X110580000Y-98773186D01*
X108880000Y-98773186D01*
X108806487Y-98780426D01*
X108735800Y-98801869D01*
X108670653Y-98836691D01*
X108613552Y-98883552D01*
X108566691Y-98940653D01*
X108531869Y-99005800D01*
X108510426Y-99076487D01*
X108503186Y-99150000D01*
X108503186Y-100850000D01*
X108510426Y-100923513D01*
X108531869Y-100994200D01*
X108566691Y-101059347D01*
X108613552Y-101116448D01*
X108670653Y-101163309D01*
X108735800Y-101198131D01*
X108806487Y-101219574D01*
X108880000Y-101226814D01*
X109037501Y-101226814D01*
X109037501Y-101391979D01*
X109037500Y-101391989D01*
X109037500Y-102583992D01*
X109034151Y-102618000D01*
X109037500Y-102652008D01*
X109037501Y-104412156D01*
X107662379Y-105787279D01*
X107635960Y-105808961D01*
X107549422Y-105914407D01*
X107485118Y-106034711D01*
X107445521Y-106165247D01*
X107435500Y-106266989D01*
X107435500Y-106266996D01*
X107432151Y-106301000D01*
X101222974Y-106301000D01*
X101219574Y-106266487D01*
X101198131Y-106195800D01*
X101163309Y-106130653D01*
X101116448Y-106073552D01*
X101059347Y-106026691D01*
X100994200Y-105991869D01*
X100923513Y-105970426D01*
X100850000Y-105963186D01*
X99150000Y-105963186D01*
X99076487Y-105970426D01*
X99005800Y-105991869D01*
X98940653Y-106026691D01*
X98883552Y-106073552D01*
X98836691Y-106130653D01*
X98801869Y-106195800D01*
X98780426Y-106266487D01*
X98773186Y-106340000D01*
X98125000Y-106340000D01*
X98125000Y-101780908D01*
X98254448Y-101780908D01*
X98499426Y-102107895D01*
X98939490Y-102360140D01*
X99420307Y-102521686D01*
X99923403Y-102586326D01*
X100429442Y-102551574D01*
X100918977Y-102418766D01*
X101373197Y-102193007D01*
X101500574Y-102107895D01*
X101745552Y-101780908D01*
X101406825Y-101442181D01*
X101166726Y-101202081D01*
X101131371Y-101166726D01*
X100883621Y-100918977D01*
X100000000Y-100035355D01*
X99116379Y-100918977D01*
X98868629Y-101166726D01*
X98833274Y-101202081D01*
X98593175Y-101442181D01*
X98254448Y-101780908D01*
X98125000Y-101780908D01*
X98125000Y-101675058D01*
X98219092Y-101745552D01*
X98367103Y-101597541D01*
X98797919Y-101166726D01*
X98833274Y-101131371D01*
X99080032Y-100884612D01*
X99964645Y-100000000D01*
X100035355Y-100000000D01*
X100919968Y-100884612D01*
X101166726Y-101131371D01*
X101202081Y-101166726D01*
X101632897Y-101597541D01*
X101780908Y-101745552D01*
X102107895Y-101500574D01*
X102360140Y-101060510D01*
X102521686Y-100579693D01*
X102586326Y-100076597D01*
X102551574Y-99570558D01*
X102418766Y-99081023D01*
X102193007Y-98626803D01*
X102107895Y-98499426D01*
X101780908Y-98254448D01*
X101632897Y-98402459D01*
X101202081Y-98833274D01*
X101166726Y-98868629D01*
X100942770Y-99092586D01*
X100035355Y-100000000D01*
X99964645Y-100000000D01*
X99950502Y-99985858D01*
X99985858Y-99950502D01*
X100000000Y-99964645D01*
X100907414Y-99057230D01*
X101131371Y-98833274D01*
X101166726Y-98797919D01*
X101597541Y-98367103D01*
X101745552Y-98219092D01*
X101675058Y-98125000D01*
X120324942Y-98125000D01*
X120254448Y-98219092D01*
%TD*%
M02*
