<?xml version="1.0" standalone="no"?>
 <!DOCTYPE svg PUBLIC "-//W3C//DTD SVG 1.1//EN" 
 "http://www.w3.org/Graphics/SVG/1.1/DTD/svg11.dtd"> 
<svg
  xmlns:svg="http://www.w3.org/2000/svg"
  xmlns="http://www.w3.org/2000/svg"
  xmlns:xlink="http://www.w3.org/1999/xlink"
  version="1.1"
  width="29.700220cm" height="21.000720cm" viewBox="0 0 116930 82680">
<title>SVG Picture created as PW_Cond-F_Fab.svg date 2021/07/29 14:46:17 </title>
  <desc>Picture generated by PCBNEW </desc>
<g style="fill:#000000; fill-opacity:1;stroke:#000000; stroke-opacity:1;
stroke-linecap:round; stroke-linejoin:round;"
 transform="translate(0 0) scale(1 1)">
</g>
<g style="fill:#000000; fill-opacity:0.0; 
stroke:#000000; stroke-width:-0.000393701; stroke-opacity:1; 
stroke-linecap:round; stroke-linejoin:round;">
</g>
<g style="fill:#000000; fill-opacity:0.0; 
stroke:#000000; stroke-width:39.3701; stroke-opacity:1; 
stroke-linecap:round; stroke-linejoin:round;">
</g>
<g style="fill:#000000; fill-opacity:0.0; 
stroke:#000000; stroke-width:59.0551; stroke-opacity:1; 
stroke-linecap:round; stroke-linejoin:round;">
<rect x="69685.9" y="65357.2" width="42519.7" height="12598.4" rx="0" />
</g>
<g style="fill:#000000; fill-opacity:0.0; 
stroke:#000000; stroke-width:39.3701; stroke-opacity:1; 
stroke-linecap:round; stroke-linejoin:round;">
</g>
<g style="fill:#000000; fill-opacity:0.0; 
stroke:#000000; stroke-width:59.0551; stroke-opacity:1; 
stroke-linecap:round; stroke-linejoin:round;">
<rect x="3937.01" y="3937.01" width="109056" height="74806" rx="0" />
</g>
<g style="fill:#000000; fill-opacity:0.0; 
stroke:#000000; stroke-width:39.3701; stroke-opacity:1; 
stroke-linecap:round; stroke-linejoin:round;">
</g>
<g style="fill:#000000; fill-opacity:0.0; 
stroke:#000000; stroke-width:59.0551; stroke-opacity:1; 
stroke-linecap:round; stroke-linejoin:round;">
<rect x="4724.41" y="4724.41" width="107481" height="73231.2" rx="0" />
</g>
<g style="fill:#000000; fill-opacity:0.0; 
stroke:#000000; stroke-width:39.3701; stroke-opacity:1; 
stroke-linecap:round; stroke-linejoin:round;">
</g>
<g style="fill:#000000; fill-opacity:0.0; 
stroke:#000000; stroke-width:59.0551; stroke-opacity:1; 
stroke-linecap:round; stroke-linejoin:round;">
<path d="M23622 4724
L23622 3937
" />
</g>
<g style="fill:#000000; fill-opacity:0.0; 
stroke:#000000; stroke-width:39.3701; stroke-opacity:1; 
stroke-linecap:round; stroke-linejoin:round;">
</g>
<g style="fill:#000000; fill-opacity:0.0; 
stroke:#000000; stroke-width:59.0551; stroke-opacity:1; 
stroke-linecap:round; stroke-linejoin:round;">
<path d="M43307 4724
L43307 3937
" />
</g>
<g style="fill:#000000; fill-opacity:0.0; 
stroke:#000000; stroke-width:39.3701; stroke-opacity:1; 
stroke-linecap:round; stroke-linejoin:round;">
</g>
<g style="fill:#000000; fill-opacity:0.0; 
stroke:#000000; stroke-width:59.0551; stroke-opacity:1; 
stroke-linecap:round; stroke-linejoin:round;">
<path d="M62992 4724
L62992 3937
" />
</g>
<g style="fill:#000000; fill-opacity:0.0; 
stroke:#000000; stroke-width:39.3701; stroke-opacity:1; 
stroke-linecap:round; stroke-linejoin:round;">
</g>
<g style="fill:#000000; fill-opacity:0.0; 
stroke:#000000; stroke-width:59.0551; stroke-opacity:1; 
stroke-linecap:round; stroke-linejoin:round;">
<path d="M82677 4724
L82677 3937
" />
</g>
<g style="fill:#000000; fill-opacity:0.0; 
stroke:#000000; stroke-width:39.3701; stroke-opacity:1; 
stroke-linecap:round; stroke-linejoin:round;">
</g>
<g style="fill:#000000; fill-opacity:0.0; 
stroke:#000000; stroke-width:59.0551; stroke-opacity:1; 
stroke-linecap:round; stroke-linejoin:round;">
<path d="M102362 4724
L102362 3937
" />
</g>
<g style="fill:#000000; fill-opacity:0.0; 
stroke:#000000; stroke-width:39.3701; stroke-opacity:1; 
stroke-linecap:round; stroke-linejoin:round;">
</g>
<g style="fill:#000000; fill-opacity:0.0; 
stroke:#000000; stroke-width:59.0551; stroke-opacity:1; 
stroke-linecap:round; stroke-linejoin:round;">
<text x="13779.5" y="4586.61"
textLength="546.494" font-size="682.415" lengthAdjust="spacingAndGlyphs"
text-anchor="start" opacity="0">1</text>
<path d="M14199 4562
L13906 4562
" />
<path d="M14052 4562
L14052 4050
L14004 4123
L13955 4172
L13906 4196
" />
</g>
<g style="fill:#000000; fill-opacity:0.0; 
stroke:#000000; stroke-width:39.3701; stroke-opacity:1; 
stroke-linecap:round; stroke-linejoin:round;">
</g>
<g style="fill:#000000; fill-opacity:0.0; 
stroke:#000000; stroke-width:59.0551; stroke-opacity:1; 
stroke-linecap:round; stroke-linejoin:round;">
<text x="33464.6" y="4586.61"
textLength="546.494" font-size="682.415" lengthAdjust="spacingAndGlyphs"
text-anchor="start" opacity="0">2</text>
<path d="M33591 4099
L33615 4074
L33664 4050
L33786 4050
L33835 4074
L33859 4099
L33884 4147
L33884 4196
L33859 4269
L33567 4562
L33884 4562
" />
</g>
<g style="fill:#000000; fill-opacity:0.0; 
stroke:#000000; stroke-width:39.3701; stroke-opacity:1; 
stroke-linecap:round; stroke-linejoin:round;">
</g>
<g style="fill:#000000; fill-opacity:0.0; 
stroke:#000000; stroke-width:59.0551; stroke-opacity:1; 
stroke-linecap:round; stroke-linejoin:round;">
<text x="53149.6" y="4586.61"
textLength="546.494" font-size="682.415" lengthAdjust="spacingAndGlyphs"
text-anchor="start" opacity="0">3</text>
<path d="M53252 4050
L53569 4050
L53398 4245
L53471 4245
L53520 4269
L53544 4294
L53569 4342
L53569 4464
L53544 4513
L53520 4537
L53471 4562
L53325 4562
L53276 4537
L53252 4513
" />
</g>
<g style="fill:#000000; fill-opacity:0.0; 
stroke:#000000; stroke-width:39.3701; stroke-opacity:1; 
stroke-linecap:round; stroke-linejoin:round;">
</g>
<g style="fill:#000000; fill-opacity:0.0; 
stroke:#000000; stroke-width:59.0551; stroke-opacity:1; 
stroke-linecap:round; stroke-linejoin:round;">
<text x="72834.6" y="4586.61"
textLength="546.494" font-size="682.415" lengthAdjust="spacingAndGlyphs"
text-anchor="start" opacity="0">4</text>
<path d="M73205 4221
L73205 4562
" />
<path d="M73083 4026
L72961 4391
L73278 4391
" />
</g>
<g style="fill:#000000; fill-opacity:0.0; 
stroke:#000000; stroke-width:39.3701; stroke-opacity:1; 
stroke-linecap:round; stroke-linejoin:round;">
</g>
<g style="fill:#000000; fill-opacity:0.0; 
stroke:#000000; stroke-width:59.0551; stroke-opacity:1; 
stroke-linecap:round; stroke-linejoin:round;">
<text x="92519.7" y="4586.61"
textLength="546.494" font-size="682.415" lengthAdjust="spacingAndGlyphs"
text-anchor="start" opacity="0">5</text>
<path d="M92914 4050
L92671 4050
L92646 4294
L92671 4269
L92719 4245
L92841 4245
L92890 4269
L92914 4294
L92939 4342
L92939 4464
L92914 4513
L92890 4537
L92841 4562
L92719 4562
L92671 4537
L92646 4513
" />
</g>
<g style="fill:#000000; fill-opacity:0.0; 
stroke:#000000; stroke-width:39.3701; stroke-opacity:1; 
stroke-linecap:round; stroke-linejoin:round;">
</g>
<g style="fill:#000000; fill-opacity:0.0; 
stroke:#000000; stroke-width:59.0551; stroke-opacity:1; 
stroke-linecap:round; stroke-linejoin:round;">
<text x="112205" y="4586.61"
textLength="546.494" font-size="682.415" lengthAdjust="spacingAndGlyphs"
text-anchor="start" opacity="0">6</text>
<path d="M112575 4050
L112477 4050
L112429 4074
L112404 4099
L112356 4172
L112331 4269
L112331 4464
L112356 4513
L112380 4537
L112429 4562
L112526 4562
L112575 4537
L112599 4513
L112624 4464
L112624 4342
L112599 4294
L112575 4269
L112526 4245
L112429 4245
L112380 4269
L112356 4294
L112331 4342
" />
</g>
<g style="fill:#000000; fill-opacity:0.0; 
stroke:#000000; stroke-width:39.3701; stroke-opacity:1; 
stroke-linecap:round; stroke-linejoin:round;">
</g>
<g style="fill:#000000; fill-opacity:0.0; 
stroke:#000000; stroke-width:59.0551; stroke-opacity:1; 
stroke-linecap:round; stroke-linejoin:round;">
<path d="M23622 77955
L23622 78742
" />
</g>
<g style="fill:#000000; fill-opacity:0.0; 
stroke:#000000; stroke-width:39.3701; stroke-opacity:1; 
stroke-linecap:round; stroke-linejoin:round;">
</g>
<g style="fill:#000000; fill-opacity:0.0; 
stroke:#000000; stroke-width:59.0551; stroke-opacity:1; 
stroke-linecap:round; stroke-linejoin:round;">
<path d="M43307 77955
L43307 78742
" />
</g>
<g style="fill:#000000; fill-opacity:0.0; 
stroke:#000000; stroke-width:39.3701; stroke-opacity:1; 
stroke-linecap:round; stroke-linejoin:round;">
</g>
<g style="fill:#000000; fill-opacity:0.0; 
stroke:#000000; stroke-width:59.0551; stroke-opacity:1; 
stroke-linecap:round; stroke-linejoin:round;">
<path d="M62992 77955
L62992 78742
" />
</g>
<g style="fill:#000000; fill-opacity:0.0; 
stroke:#000000; stroke-width:39.3701; stroke-opacity:1; 
stroke-linecap:round; stroke-linejoin:round;">
</g>
<g style="fill:#000000; fill-opacity:0.0; 
stroke:#000000; stroke-width:59.0551; stroke-opacity:1; 
stroke-linecap:round; stroke-linejoin:round;">
<path d="M82677 77955
L82677 78742
" />
</g>
<g style="fill:#000000; fill-opacity:0.0; 
stroke:#000000; stroke-width:39.3701; stroke-opacity:1; 
stroke-linecap:round; stroke-linejoin:round;">
</g>
<g style="fill:#000000; fill-opacity:0.0; 
stroke:#000000; stroke-width:59.0551; stroke-opacity:1; 
stroke-linecap:round; stroke-linejoin:round;">
<path d="M102362 77955
L102362 78742
" />
</g>
<g style="fill:#000000; fill-opacity:0.0; 
stroke:#000000; stroke-width:39.3701; stroke-opacity:1; 
stroke-linecap:round; stroke-linejoin:round;">
</g>
<g style="fill:#000000; fill-opacity:0.0; 
stroke:#000000; stroke-width:59.0551; stroke-opacity:1; 
stroke-linecap:round; stroke-linejoin:round;">
<text x="13779.5" y="78605.2"
textLength="546.494" font-size="682.415" lengthAdjust="spacingAndGlyphs"
text-anchor="start" opacity="0">1</text>
<path d="M14199 78580
L13906 78580
" />
<path d="M14052 78580
L14052 78069
L14004 78142
L13955 78190
L13906 78215
" />
</g>
<g style="fill:#000000; fill-opacity:0.0; 
stroke:#000000; stroke-width:39.3701; stroke-opacity:1; 
stroke-linecap:round; stroke-linejoin:round;">
</g>
<g style="fill:#000000; fill-opacity:0.0; 
stroke:#000000; stroke-width:59.0551; stroke-opacity:1; 
stroke-linecap:round; stroke-linejoin:round;">
<text x="33464.6" y="78605.2"
textLength="546.494" font-size="682.415" lengthAdjust="spacingAndGlyphs"
text-anchor="start" opacity="0">2</text>
<path d="M33591 78117
L33615 78093
L33664 78069
L33786 78069
L33835 78093
L33859 78117
L33884 78166
L33884 78215
L33859 78288
L33567 78580
L33884 78580
" />
</g>
<g style="fill:#000000; fill-opacity:0.0; 
stroke:#000000; stroke-width:39.3701; stroke-opacity:1; 
stroke-linecap:round; stroke-linejoin:round;">
</g>
<g style="fill:#000000; fill-opacity:0.0; 
stroke:#000000; stroke-width:59.0551; stroke-opacity:1; 
stroke-linecap:round; stroke-linejoin:round;">
<text x="53149.6" y="78605.2"
textLength="546.494" font-size="682.415" lengthAdjust="spacingAndGlyphs"
text-anchor="start" opacity="0">3</text>
<path d="M53252 78069
L53569 78069
L53398 78263
L53471 78263
L53520 78288
L53544 78312
L53569 78361
L53569 78483
L53544 78532
L53520 78556
L53471 78580
L53325 78580
L53276 78556
L53252 78532
" />
</g>
<g style="fill:#000000; fill-opacity:0.0; 
stroke:#000000; stroke-width:39.3701; stroke-opacity:1; 
stroke-linecap:round; stroke-linejoin:round;">
</g>
<g style="fill:#000000; fill-opacity:0.0; 
stroke:#000000; stroke-width:59.0551; stroke-opacity:1; 
stroke-linecap:round; stroke-linejoin:round;">
<text x="72834.6" y="78605.2"
textLength="546.494" font-size="682.415" lengthAdjust="spacingAndGlyphs"
text-anchor="start" opacity="0">4</text>
<path d="M73205 78239
L73205 78580
" />
<path d="M73083 78044
L72961 78410
L73278 78410
" />
</g>
<g style="fill:#000000; fill-opacity:0.0; 
stroke:#000000; stroke-width:39.3701; stroke-opacity:1; 
stroke-linecap:round; stroke-linejoin:round;">
</g>
<g style="fill:#000000; fill-opacity:0.0; 
stroke:#000000; stroke-width:59.0551; stroke-opacity:1; 
stroke-linecap:round; stroke-linejoin:round;">
<text x="92519.7" y="78605.2"
textLength="546.494" font-size="682.415" lengthAdjust="spacingAndGlyphs"
text-anchor="start" opacity="0">5</text>
<path d="M92914 78069
L92671 78069
L92646 78312
L92671 78288
L92719 78263
L92841 78263
L92890 78288
L92914 78312
L92939 78361
L92939 78483
L92914 78532
L92890 78556
L92841 78580
L92719 78580
L92671 78556
L92646 78532
" />
</g>
<g style="fill:#000000; fill-opacity:0.0; 
stroke:#000000; stroke-width:39.3701; stroke-opacity:1; 
stroke-linecap:round; stroke-linejoin:round;">
</g>
<g style="fill:#000000; fill-opacity:0.0; 
stroke:#000000; stroke-width:59.0551; stroke-opacity:1; 
stroke-linecap:round; stroke-linejoin:round;">
<text x="112205" y="78605.2"
textLength="546.494" font-size="682.415" lengthAdjust="spacingAndGlyphs"
text-anchor="start" opacity="0">6</text>
<path d="M112575 78069
L112477 78069
L112429 78093
L112404 78117
L112356 78190
L112331 78288
L112331 78483
L112356 78532
L112380 78556
L112429 78580
L112526 78580
L112575 78556
L112599 78532
L112624 78483
L112624 78361
L112599 78312
L112575 78288
L112526 78263
L112429 78263
L112380 78288
L112356 78312
L112331 78361
" />
</g>
<g style="fill:#000000; fill-opacity:0.0; 
stroke:#000000; stroke-width:39.3701; stroke-opacity:1; 
stroke-linecap:round; stroke-linejoin:round;">
</g>
<g style="fill:#000000; fill-opacity:0.0; 
stroke:#000000; stroke-width:59.0551; stroke-opacity:1; 
stroke-linecap:round; stroke-linejoin:round;">
<path d="M3937 23622
L4724 23622
" />
</g>
<g style="fill:#000000; fill-opacity:0.0; 
stroke:#000000; stroke-width:39.3701; stroke-opacity:1; 
stroke-linecap:round; stroke-linejoin:round;">
</g>
<g style="fill:#000000; fill-opacity:0.0; 
stroke:#000000; stroke-width:59.0551; stroke-opacity:1; 
stroke-linecap:round; stroke-linejoin:round;">
<path d="M3937 43307
L4724 43307
" />
</g>
<g style="fill:#000000; fill-opacity:0.0; 
stroke:#000000; stroke-width:39.3701; stroke-opacity:1; 
stroke-linecap:round; stroke-linejoin:round;">
</g>
<g style="fill:#000000; fill-opacity:0.0; 
stroke:#000000; stroke-width:59.0551; stroke-opacity:1; 
stroke-linecap:round; stroke-linejoin:round;">
<path d="M3937 62992
L4724 62992
" />
</g>
<g style="fill:#000000; fill-opacity:0.0; 
stroke:#000000; stroke-width:39.3701; stroke-opacity:1; 
stroke-linecap:round; stroke-linejoin:round;">
</g>
<g style="fill:#000000; fill-opacity:0.0; 
stroke:#000000; stroke-width:59.0551; stroke-opacity:1; 
stroke-linecap:round; stroke-linejoin:round;">
<text x="4330.71" y="14035.4"
textLength="497.75" font-size="682.415" lengthAdjust="spacingAndGlyphs"
text-anchor="middle" opacity="0">A</text>
<path d="M4208 13864
L4452 13864
" />
<path d="M4160 14011
L4330 13499
L4501 14011
" />
</g>
<g style="fill:#000000; fill-opacity:0.0; 
stroke:#000000; stroke-width:39.3701; stroke-opacity:1; 
stroke-linecap:round; stroke-linejoin:round;">
</g>
<g style="fill:#000000; fill-opacity:0.0; 
stroke:#000000; stroke-width:59.0551; stroke-opacity:1; 
stroke-linecap:round; stroke-linejoin:round;">
<text x="4330.71" y="33720.5"
textLength="570.866" font-size="682.415" lengthAdjust="spacingAndGlyphs"
text-anchor="middle" opacity="0">B</text>
<path d="M4367 33428
L4440 33452
L4464 33476
L4489 33525
L4489 33598
L4464 33647
L4440 33671
L4391 33696
L4196 33696
L4196 33184
L4367 33184
L4416 33208
L4440 33233
L4464 33281
L4464 33330
L4440 33379
L4416 33403
L4367 33428
L4196 33428
" />
</g>
<g style="fill:#000000; fill-opacity:0.0; 
stroke:#000000; stroke-width:39.3701; stroke-opacity:1; 
stroke-linecap:round; stroke-linejoin:round;">
</g>
<g style="fill:#000000; fill-opacity:0.0; 
stroke:#000000; stroke-width:59.0551; stroke-opacity:1; 
stroke-linecap:round; stroke-linejoin:round;">
<text x="4330.71" y="53405.5"
textLength="570.866" font-size="682.415" lengthAdjust="spacingAndGlyphs"
text-anchor="middle" opacity="0">C</text>
<path d="M4489 53332
L4464 53356
L4391 53381
L4342 53381
L4269 53356
L4221 53308
L4196 53259
L4172 53161
L4172 53088
L4196 52991
L4221 52942
L4269 52893
L4342 52869
L4391 52869
L4464 52893
L4489 52918
" />
</g>
<g style="fill:#000000; fill-opacity:0.0; 
stroke:#000000; stroke-width:39.3701; stroke-opacity:1; 
stroke-linecap:round; stroke-linejoin:round;">
</g>
<g style="fill:#000000; fill-opacity:0.0; 
stroke:#000000; stroke-width:59.0551; stroke-opacity:1; 
stroke-linecap:round; stroke-linejoin:round;">
<text x="4330.71" y="73090.6"
textLength="570.866" font-size="682.415" lengthAdjust="spacingAndGlyphs"
text-anchor="middle" opacity="0">D</text>
<path d="M4196 73066
L4196 72554
L4318 72554
L4391 72578
L4440 72627
L4464 72676
L4489 72773
L4489 72846
L4464 72944
L4440 72993
L4391 73041
L4318 73066
L4196 73066
" />
</g>
<g style="fill:#000000; fill-opacity:0.0; 
stroke:#000000; stroke-width:39.3701; stroke-opacity:1; 
stroke-linecap:round; stroke-linejoin:round;">
</g>
<g style="fill:#000000; fill-opacity:0.0; 
stroke:#000000; stroke-width:59.0551; stroke-opacity:1; 
stroke-linecap:round; stroke-linejoin:round;">
<path d="M112992 23622
L112205 23622
" />
</g>
<g style="fill:#000000; fill-opacity:0.0; 
stroke:#000000; stroke-width:39.3701; stroke-opacity:1; 
stroke-linecap:round; stroke-linejoin:round;">
</g>
<g style="fill:#000000; fill-opacity:0.0; 
stroke:#000000; stroke-width:59.0551; stroke-opacity:1; 
stroke-linecap:round; stroke-linejoin:round;">
<path d="M112992 43307
L112205 43307
" />
</g>
<g style="fill:#000000; fill-opacity:0.0; 
stroke:#000000; stroke-width:39.3701; stroke-opacity:1; 
stroke-linecap:round; stroke-linejoin:round;">
</g>
<g style="fill:#000000; fill-opacity:0.0; 
stroke:#000000; stroke-width:59.0551; stroke-opacity:1; 
stroke-linecap:round; stroke-linejoin:round;">
<path d="M112992 62992
L112205 62992
" />
</g>
<g style="fill:#000000; fill-opacity:0.0; 
stroke:#000000; stroke-width:39.3701; stroke-opacity:1; 
stroke-linecap:round; stroke-linejoin:round;">
</g>
<g style="fill:#000000; fill-opacity:0.0; 
stroke:#000000; stroke-width:59.0551; stroke-opacity:1; 
stroke-linecap:round; stroke-linejoin:round;">
<text x="112599" y="14035.4"
textLength="497.75" font-size="682.415" lengthAdjust="spacingAndGlyphs"
text-anchor="middle" opacity="0">A</text>
<path d="M112477 13864
L112721 13864
" />
<path d="M112428 14011
L112599 13499
L112769 14011
" />
</g>
<g style="fill:#000000; fill-opacity:0.0; 
stroke:#000000; stroke-width:39.3701; stroke-opacity:1; 
stroke-linecap:round; stroke-linejoin:round;">
</g>
<g style="fill:#000000; fill-opacity:0.0; 
stroke:#000000; stroke-width:59.0551; stroke-opacity:1; 
stroke-linecap:round; stroke-linejoin:round;">
<text x="112599" y="33720.5"
textLength="570.866" font-size="682.415" lengthAdjust="spacingAndGlyphs"
text-anchor="middle" opacity="0">B</text>
<path d="M112635 33428
L112708 33452
L112733 33476
L112757 33525
L112757 33598
L112733 33647
L112708 33671
L112660 33696
L112465 33696
L112465 33184
L112635 33184
L112684 33208
L112708 33233
L112733 33281
L112733 33330
L112708 33379
L112684 33403
L112635 33428
L112465 33428
" />
</g>
<g style="fill:#000000; fill-opacity:0.0; 
stroke:#000000; stroke-width:39.3701; stroke-opacity:1; 
stroke-linecap:round; stroke-linejoin:round;">
</g>
<g style="fill:#000000; fill-opacity:0.0; 
stroke:#000000; stroke-width:59.0551; stroke-opacity:1; 
stroke-linecap:round; stroke-linejoin:round;">
<text x="112599" y="53405.5"
textLength="570.866" font-size="682.415" lengthAdjust="spacingAndGlyphs"
text-anchor="middle" opacity="0">C</text>
<path d="M112757 53332
L112733 53356
L112660 53381
L112611 53381
L112538 53356
L112489 53308
L112465 53259
L112440 53161
L112440 53088
L112465 52991
L112489 52942
L112538 52893
L112611 52869
L112660 52869
L112733 52893
L112757 52918
" />
</g>
<g style="fill:#000000; fill-opacity:0.0; 
stroke:#000000; stroke-width:39.3701; stroke-opacity:1; 
stroke-linecap:round; stroke-linejoin:round;">
</g>
<g style="fill:#000000; fill-opacity:0.0; 
stroke:#000000; stroke-width:59.0551; stroke-opacity:1; 
stroke-linecap:round; stroke-linejoin:round;">
<text x="112599" y="73090.6"
textLength="570.866" font-size="682.415" lengthAdjust="spacingAndGlyphs"
text-anchor="middle" opacity="0">D</text>
<path d="M112465 73066
L112465 72554
L112587 72554
L112660 72578
L112708 72627
L112733 72676
L112757 72773
L112757 72846
L112733 72944
L112708 72993
L112660 73041
L112587 73066
L112465 73066
" />
</g>
<g style="fill:#000000; fill-opacity:0.0; 
stroke:#000000; stroke-width:39.3701; stroke-opacity:1; 
stroke-linecap:round; stroke-linejoin:round;">
</g>
<g style="fill:#000000; fill-opacity:0.0; 
stroke:#000000; stroke-width:59.0551; stroke-opacity:1; 
stroke-linecap:round; stroke-linejoin:round;">
<text x="78741" y="76321.7"
textLength="2758.72" font-size="787.402" lengthAdjust="spacingAndGlyphs"
text-anchor="start" opacity="0">Date: </text>
<path d="M78911 76293
L78911 75703
L79051 75703
L79136 75731
L79192 75787
L79220 75843
L79248 75956
L79248 76040
L79220 76153
L79192 76209
L79136 76265
L79051 76293
L78911 76293
" />
<path d="M79754 76293
L79754 75984
L79726 75928
L79670 75899
L79557 75899
L79501 75928
" />
<path d="M79754 76265
L79698 76293
L79557 76293
L79501 76265
L79473 76209
L79473 76153
L79501 76096
L79557 76068
L79698 76068
L79754 76040
" />
<path d="M79951 75899
L80176 75899
" />
<path d="M80036 75703
L80036 76209
L80064 76265
L80120 76293
L80176 76293
" />
<path d="M80598 76265
L80542 76293
L80429 76293
L80373 76265
L80345 76209
L80345 75984
L80373 75928
L80429 75899
L80542 75899
L80598 75928
L80626 75984
L80626 76040
L80345 76096
" />
<path d="M80879 76237
L80907 76265
L80879 76293
L80851 76265
L80879 76237
L80879 76293
" />
<path d="M80879 75928
L80907 75956
L80879 75984
L80851 75956
L80879 75928
L80879 75984
" />
</g>
<g style="fill:#000000; fill-opacity:0.0; 
stroke:#000000; stroke-width:39.3701; stroke-opacity:1; 
stroke-linecap:round; stroke-linejoin:round;">
</g>
<g style="fill:#000000; fill-opacity:0.0; 
stroke:#000000; stroke-width:59.0551; stroke-opacity:1; 
stroke-linecap:round; stroke-linejoin:round;">
<path d="M69685 76577
L112205 76577
" />
</g>
<g style="fill:#000000; fill-opacity:0.0; 
stroke:#000000; stroke-width:39.3701; stroke-opacity:1; 
stroke-linecap:round; stroke-linejoin:round;">
</g>
<g style="fill:#000000; fill-opacity:0.0; 
stroke:#000000; stroke-width:59.0551; stroke-opacity:1; 
stroke-linecap:round; stroke-linejoin:round;">
<text x="70079.6" y="77424.1"
textLength="19940.9" font-size="787.402" lengthAdjust="spacingAndGlyphs"
text-anchor="start" opacity="0">KiCad E.D.A.  kicad 5.1.6+dfsg1-1~bpo10+1</text>
<path d="M70249 77395
L70249 76805
" />
<path d="M70587 77395
L70334 77058
" />
<path d="M70587 76805
L70249 77142
" />
<path d="M70840 77395
L70840 77002
" />
<path d="M70840 76805
L70812 76833
L70840 76861
L70868 76833
L70840 76805
L70840 76861
" />
<path d="M71458 77339
L71430 77367
L71346 77395
L71290 77395
L71205 77367
L71149 77311
L71121 77255
L71093 77142
L71093 77058
L71121 76946
L71149 76889
L71205 76833
L71290 76805
L71346 76805
L71430 76833
L71458 76861
" />
<path d="M71965 77395
L71965 77086
L71937 77030
L71880 77002
L71768 77002
L71712 77030
" />
<path d="M71965 77367
L71908 77395
L71768 77395
L71712 77367
L71683 77311
L71683 77255
L71712 77199
L71768 77171
L71908 77171
L71965 77142
" />
<path d="M72499 77395
L72499 76805
" />
<path d="M72499 77367
L72443 77395
L72330 77395
L72274 77367
L72246 77339
L72218 77283
L72218 77114
L72246 77058
L72274 77030
L72330 77002
L72443 77002
L72499 77030
" />
<path d="M73230 77086
L73427 77086
" />
<path d="M73511 77395
L73230 77395
L73230 76805
L73511 76805
" />
<path d="M73764 77339
L73793 77367
L73764 77395
L73736 77367
L73764 77339
L73764 77395
" />
<path d="M74046 77395
L74046 76805
L74186 76805
L74271 76833
L74327 76889
L74355 76946
L74383 77058
L74383 77142
L74355 77255
L74327 77311
L74271 77367
L74186 77395
L74046 77395
" />
<path d="M74636 77339
L74664 77367
L74636 77395
L74608 77367
L74636 77339
L74636 77395
" />
<path d="M74889 77227
L75171 77227
" />
<path d="M74833 77395
L75030 76805
L75227 77395
" />
<path d="M75424 77339
L75452 77367
L75424 77395
L75395 77367
L75424 77339
L75424 77395
" />
<path d="M76605 77395
L76605 76805
" />
<path d="M76661 77171
L76830 77395
" />
<path d="M76830 77002
L76605 77227
" />
<path d="M77083 77395
L77083 77002
" />
<path d="M77083 76805
L77055 76833
L77083 76861
L77111 76833
L77083 76805
L77083 76861
" />
<path d="M77617 77367
L77561 77395
L77448 77395
L77392 77367
L77364 77339
L77336 77283
L77336 77114
L77364 77058
L77392 77030
L77448 77002
L77561 77002
L77617 77030
" />
<path d="M78123 77395
L78123 77086
L78095 77030
L78039 77002
L77926 77002
L77870 77030
" />
<path d="M78123 77367
L78067 77395
L77926 77395
L77870 77367
L77842 77311
L77842 77255
L77870 77199
L77926 77171
L78067 77171
L78123 77142
" />
<path d="M78658 77395
L78658 76805
" />
<path d="M78658 77367
L78601 77395
L78489 77395
L78433 77367
L78404 77339
L78376 77283
L78376 77114
L78404 77058
L78433 77030
L78489 77002
L78601 77002
L78658 77030
" />
<path d="M79670 76805
L79389 76805
L79361 77086
L79389 77058
L79445 77030
L79586 77030
L79642 77058
L79670 77086
L79698 77142
L79698 77283
L79670 77339
L79642 77367
L79586 77395
L79445 77395
L79389 77367
L79361 77339
" />
<path d="M79951 77339
L79979 77367
L79951 77395
L79923 77367
L79951 77339
L79951 77395
" />
<path d="M80542 77395
L80204 77395
" />
<path d="M80373 77395
L80373 76805
L80317 76889
L80260 76946
L80204 76974
" />
<path d="M80795 77339
L80823 77367
L80795 77395
L80767 77367
L80795 77339
L80795 77395
" />
<path d="M81329 76805
L81217 76805
L81160 76833
L81132 76861
L81076 76946
L81048 77058
L81048 77283
L81076 77339
L81104 77367
L81160 77395
L81273 77395
L81329 77367
L81357 77339
L81385 77283
L81385 77142
L81357 77086
L81329 77058
L81273 77030
L81160 77030
L81104 77058
L81076 77086
L81048 77142
" />
<path d="M81638 77171
L82088 77171
" />
<path d="M81863 77395
L81863 76946
" />
<path d="M82623 77395
L82623 76805
" />
<path d="M82623 77367
L82566 77395
L82454 77395
L82398 77367
L82370 77339
L82341 77283
L82341 77114
L82370 77058
L82398 77030
L82454 77002
L82566 77002
L82623 77030
" />
<path d="M82820 77002
L83045 77002
" />
<path d="M82904 77395
L82904 76889
L82932 76833
L82988 76805
L83045 76805
" />
<path d="M83213 77367
L83269 77395
L83382 77395
L83438 77367
L83466 77311
L83466 77283
L83438 77227
L83382 77199
L83298 77199
L83241 77171
L83213 77114
L83213 77086
L83241 77030
L83298 77002
L83382 77002
L83438 77030
" />
<path d="M83973 77002
L83973 77480
L83944 77536
L83916 77564
L83860 77592
L83776 77592
L83719 77564
" />
<path d="M83973 77367
L83916 77395
L83804 77395
L83748 77367
L83719 77339
L83691 77283
L83691 77114
L83719 77058
L83748 77030
L83804 77002
L83916 77002
L83973 77030
" />
<path d="M84563 77395
L84226 77395
" />
<path d="M84394 77395
L84394 76805
L84338 76889
L84282 76946
L84226 76974
" />
<path d="M84816 77171
L85266 77171
" />
<path d="M85857 77395
L85519 77395
" />
<path d="M85688 77395
L85688 76805
L85632 76889
L85575 76946
L85519 76974
" />
<path d="M85969 76644
L86503 76644
" />
<path d="M86110 77395
L86110 76805
" />
<path d="M86110 77030
L86166 77002
L86278 77002
L86335 77030
L86363 77058
L86391 77114
L86391 77283
L86363 77339
L86335 77367
L86278 77395
L86166 77395
L86110 77367
" />
<path d="M86503 76644
L87038 76644
" />
<path d="M86644 77002
L86644 77592
" />
<path d="M86644 77030
L86700 77002
L86813 77002
L86869 77030
L86897 77058
L86925 77114
L86925 77283
L86897 77339
L86869 77367
L86813 77395
L86700 77395
L86644 77367
" />
<path d="M87038 76644
L87572 76644
" />
<path d="M87263 77395
L87206 77367
L87178 77339
L87150 77283
L87150 77114
L87178 77058
L87206 77030
L87263 77002
L87347 77002
L87403 77030
L87431 77058
L87460 77114
L87460 77283
L87431 77339
L87403 77367
L87347 77395
L87263 77395
" />
<path d="M87572 76644
L88135 76644
" />
<path d="M88022 77395
L87685 77395
" />
<path d="M87853 77395
L87853 76805
L87797 76889
L87741 76946
L87685 76974
" />
<path d="M88135 76644
L88697 76644
" />
<path d="M88388 76805
L88444 76805
L88500 76833
L88528 76861
L88556 76917
L88584 77030
L88584 77171
L88556 77283
L88528 77339
L88500 77367
L88444 77395
L88388 77395
L88331 77367
L88303 77339
L88275 77283
L88247 77171
L88247 77030
L88275 76917
L88303 76861
L88331 76833
L88388 76805
" />
<path d="M88697 76644
L89428 76644
" />
<path d="M88838 77171
L89287 77171
" />
<path d="M89063 77395
L89063 76946
" />
<path d="M89428 76644
L89991 76644
" />
<path d="M89878 77395
L89541 77395
" />
<path d="M89709 77395
L89709 76805
L89653 76889
L89597 76946
L89541 76974
" />
</g>
<g style="fill:#000000; fill-opacity:0.0; 
stroke:#000000; stroke-width:39.3701; stroke-opacity:1; 
stroke-linecap:round; stroke-linejoin:round;">
</g>
<g style="fill:#000000; fill-opacity:0.0; 
stroke:#000000; stroke-width:59.0551; stroke-opacity:1; 
stroke-linecap:round; stroke-linejoin:round;">
<path d="M69685 75396
L112205 75396
" />
</g>
<g style="fill:#000000; fill-opacity:0.0; 
stroke:#000000; stroke-width:39.3701; stroke-opacity:1; 
stroke-linecap:round; stroke-linejoin:round;">
</g>
<g style="fill:#000000; fill-opacity:0.0; 
stroke:#000000; stroke-width:118.11; stroke-opacity:1; 
stroke-linecap:round; stroke-linejoin:round;">
<text x="103544" y="76321.7"
textLength="2336.9" font-size="787.402" lengthAdjust="spacingAndGlyphs"
text-anchor="start" opacity="0">Rev: </text>
<path d="M104099 76293
L103902 76012
" />
<path d="M103761 76293
L103761 75703
L103986 75703
L104042 75731
L104070 75759
L104099 75815
L104099 75899
L104070 75956
L104042 75984
L103986 76012
L103761 76012
" />
<path d="M104577 76265
L104520 76293
L104408 76293
L104352 76265
L104323 76209
L104323 75984
L104352 75928
L104408 75899
L104520 75899
L104577 75928
L104605 75984
L104605 76040
L104323 76096
" />
<path d="M104802 75899
L104942 76293
L105083 75899
" />
<path d="M105308 76237
L105336 76265
L105308 76293
L105280 76265
L105308 76237
L105308 76293
" />
<path d="M105308 75928
L105336 75956
L105308 75984
L105280 75956
L105308 75928
L105308 75984
" />
</g>
<g style="fill:#000000; fill-opacity:0.0; 
stroke:#000000; stroke-width:39.3701; stroke-opacity:1; 
stroke-linecap:round; stroke-linejoin:round;">
</g>
<g style="fill:#000000; fill-opacity:0.0; 
stroke:#000000; stroke-width:59.0551; stroke-opacity:1; 
stroke-linecap:round; stroke-linejoin:round;">
<text x="70079.6" y="76321.7"
textLength="3781.21" font-size="787.402" lengthAdjust="spacingAndGlyphs"
text-anchor="start" opacity="0">Size: A4</text>
<path d="M70221 76265
L70305 76293
L70446 76293
L70502 76265
L70530 76237
L70559 76181
L70559 76124
L70530 76068
L70502 76040
L70446 76012
L70334 75984
L70277 75956
L70249 75928
L70221 75871
L70221 75815
L70249 75759
L70277 75731
L70334 75703
L70474 75703
L70559 75731
" />
<path d="M70812 76293
L70812 75899
" />
<path d="M70812 75703
L70784 75731
L70812 75759
L70840 75731
L70812 75703
L70812 75759
" />
<path d="M71037 75899
L71346 75899
L71037 76293
L71346 76293
" />
<path d="M71796 76265
L71740 76293
L71627 76293
L71571 76265
L71543 76209
L71543 75984
L71571 75928
L71627 75899
L71740 75899
L71796 75928
L71824 75984
L71824 76040
L71543 76096
" />
<path d="M72077 76237
L72105 76265
L72077 76293
L72049 76265
L72077 76237
L72077 76293
" />
<path d="M72077 75928
L72105 75956
L72077 75984
L72049 75956
L72077 75928
L72077 75984
" />
<path d="M72780 76124
L73061 76124
" />
<path d="M72724 76293
L72921 75703
L73118 76293
" />
<path d="M73568 75899
L73568 76293
" />
<path d="M73427 75674
L73286 76096
L73652 76096
" />
</g>
<g style="fill:#000000; fill-opacity:0.0; 
stroke:#000000; stroke-width:39.3701; stroke-opacity:1; 
stroke-linecap:round; stroke-linejoin:round;">
</g>
<g style="fill:#000000; fill-opacity:0.0; 
stroke:#000000; stroke-width:59.0551; stroke-opacity:1; 
stroke-linecap:round; stroke-linejoin:round;">
<text x="103544" y="77424.1"
textLength="3349.27" font-size="787.402" lengthAdjust="spacingAndGlyphs"
text-anchor="start" opacity="0">Id: 1/1</text>
<path d="M103714 77395
L103714 76805
" />
<path d="M104248 77395
L104248 76805
" />
<path d="M104248 77367
L104192 77395
L104079 77395
L104023 77367
L103995 77339
L103967 77283
L103967 77114
L103995 77058
L104023 77030
L104079 77002
L104192 77002
L104248 77030
" />
<path d="M104529 77339
L104557 77367
L104529 77395
L104501 77367
L104529 77339
L104529 77395
" />
<path d="M104529 77030
L104557 77058
L104529 77086
L104501 77058
L104529 77030
L104529 77086
" />
<path d="M105570 77395
L105232 77395
" />
<path d="M105401 77395
L105401 76805
L105345 76889
L105289 76946
L105232 76974
" />
<path d="M106245 76777
L105739 77536
" />
<path d="M106751 77395
L106413 77395
" />
<path d="M106582 77395
L106582 76805
L106526 76889
L106470 76946
L106413 76974
" />
</g>
<g style="fill:#000000; fill-opacity:0.0; 
stroke:#000000; stroke-width:39.3701; stroke-opacity:1; 
stroke-linecap:round; stroke-linejoin:round;">
</g>
<g style="fill:#000000; fill-opacity:0.0; 
stroke:#000000; stroke-width:59.0551; stroke-opacity:1; 
stroke-linecap:round; stroke-linejoin:round;">
<path d="M69685 73821
L112205 73821
" />
</g>
<g style="fill:#000000; fill-opacity:0.0; 
stroke:#000000; stroke-width:39.3701; stroke-opacity:1; 
stroke-linecap:round; stroke-linejoin:round;">
</g>
<g style="fill:#000000; fill-opacity:0.0; 
stroke:#000000; stroke-width:157.48; stroke-opacity:1; 
stroke-linecap:round; stroke-linejoin:round;">
<text x="70079.6" y="74924.1"
textLength="3701.14" font-size="1049.87" lengthAdjust="spacingAndGlyphs"
text-anchor="start" opacity="0">Title: </text>
<path d="M70360 74099
L70810 74099
" />
<path d="M70486 74886
L70585 74099
" />
<path d="M70974 74886
L71039 74361
" />
<path d="M71072 74099
L71030 74136
L71063 74174
L71105 74136
L71072 74099
L71063 74174
" />
<path d="M71302 74361
L71602 74361
" />
<path d="M71447 74099
L71363 74774
L71391 74849
L71461 74886
L71536 74886
" />
<path d="M71911 74886
L71841 74849
L71813 74774
L71897 74099
" />
<path d="M72516 74849
L72436 74886
L72286 74886
L72216 74849
L72187 74774
L72225 74474
L72272 74399
L72352 74361
L72501 74361
L72572 74399
L72600 74474
L72591 74549
L72206 74624
" />
<path d="M72895 74811
L72928 74849
L72886 74886
L72853 74849
L72895 74811
L72886 74886
" />
<path d="M72947 74399
L72980 74436
L72937 74474
L72905 74436
L72947 74399
L72937 74474
" />
</g>
<g style="fill:#000000; fill-opacity:0.0; 
stroke:#000000; stroke-width:39.3701; stroke-opacity:1; 
stroke-linecap:round; stroke-linejoin:round;">
</g>
<g style="fill:#000000; fill-opacity:0.0; 
stroke:#000000; stroke-width:59.0551; stroke-opacity:1; 
stroke-linecap:round; stroke-linejoin:round;">
<text x="70079.6" y="73408.3"
textLength="11087.7" font-size="787.402" lengthAdjust="spacingAndGlyphs"
text-anchor="start" opacity="0">File: PW_Cond.kicad_pcb</text>
<path d="M70446 73070
L70249 73070
" />
<path d="M70249 73380
L70249 72789
L70530 72789
" />
<path d="M70755 73380
L70755 72986
" />
<path d="M70755 72789
L70727 72817
L70755 72845
L70784 72817
L70755 72789
L70755 72845
" />
<path d="M71121 73380
L71065 73352
L71037 73295
L71037 72789
" />
<path d="M71571 73352
L71515 73380
L71402 73380
L71346 73352
L71318 73295
L71318 73070
L71346 73014
L71402 72986
L71515 72986
L71571 73014
L71599 73070
L71599 73127
L71318 73183
" />
<path d="M71852 73323
L71880 73352
L71852 73380
L71824 73352
L71852 73323
L71852 73380
" />
<path d="M71852 73014
L71880 73042
L71852 73070
L71824 73042
L71852 73014
L71852 73070
" />
<path d="M72583 73380
L72583 72789
L72808 72789
L72865 72817
L72893 72845
L72921 72902
L72921 72986
L72893 73042
L72865 73070
L72808 73099
L72583 73099
" />
<path d="M73118 72789
L73258 73380
L73371 72958
L73483 73380
L73624 72789
" />
<path d="M73708 73436
L74158 73436
" />
<path d="M74636 73323
L74608 73352
L74524 73380
L74467 73380
L74383 73352
L74327 73295
L74299 73239
L74271 73127
L74271 73042
L74299 72930
L74327 72874
L74383 72817
L74467 72789
L74524 72789
L74608 72817
L74636 72845
" />
<path d="M74974 73380
L74917 73352
L74889 73323
L74861 73267
L74861 73099
L74889 73042
L74917 73014
L74974 72986
L75058 72986
L75114 73014
L75142 73042
L75171 73099
L75171 73267
L75142 73323
L75114 73352
L75058 73380
L74974 73380
" />
<path d="M75424 72986
L75424 73380
" />
<path d="M75424 73042
L75452 73014
L75508 72986
L75592 72986
L75649 73014
L75677 73070
L75677 73380
" />
<path d="M76211 73380
L76211 72789
" />
<path d="M76211 73352
L76155 73380
L76042 73380
L75986 73352
L75958 73323
L75930 73267
L75930 73099
L75958 73042
L75986 73014
L76042 72986
L76155 72986
L76211 73014
" />
<path d="M76492 73323
L76520 73352
L76492 73380
L76464 73352
L76492 73323
L76492 73380
" />
<path d="M76773 73380
L76773 72789
" />
<path d="M76830 73155
L76998 73380
" />
<path d="M76998 72986
L76773 73211
" />
<path d="M77251 73380
L77251 72986
" />
<path d="M77251 72789
L77223 72817
L77251 72845
L77280 72817
L77251 72789
L77251 72845
" />
<path d="M77786 73352
L77730 73380
L77617 73380
L77561 73352
L77533 73323
L77505 73267
L77505 73099
L77533 73042
L77561 73014
L77617 72986
L77730 72986
L77786 73014
" />
<path d="M78292 73380
L78292 73070
L78264 73014
L78208 72986
L78095 72986
L78039 73014
" />
<path d="M78292 73352
L78236 73380
L78095 73380
L78039 73352
L78011 73295
L78011 73239
L78039 73183
L78095 73155
L78236 73155
L78292 73127
" />
<path d="M78826 73380
L78826 72789
" />
<path d="M78826 73352
L78770 73380
L78658 73380
L78601 73352
L78573 73323
L78545 73267
L78545 73099
L78573 73042
L78601 73014
L78658 72986
L78770 72986
L78826 73014
" />
<path d="M78967 73436
L79417 73436
" />
<path d="M79557 72986
L79557 73577
" />
<path d="M79557 73014
L79614 72986
L79726 72986
L79782 73014
L79811 73042
L79839 73099
L79839 73267
L79811 73323
L79782 73352
L79726 73380
L79614 73380
L79557 73352
" />
<path d="M80345 73352
L80289 73380
L80176 73380
L80120 73352
L80092 73323
L80064 73267
L80064 73099
L80092 73042
L80120 73014
L80176 72986
L80289 72986
L80345 73014
" />
<path d="M80598 73380
L80598 72789
" />
<path d="M80598 73014
L80654 72986
L80767 72986
L80823 73014
L80851 73042
L80879 73099
L80879 73267
L80851 73323
L80823 73352
L80767 73380
L80654 73380
L80598 73352
" />
</g>
<g style="fill:#000000; fill-opacity:0.0; 
stroke:#000000; stroke-width:39.3701; stroke-opacity:1; 
stroke-linecap:round; stroke-linejoin:round;">
</g>
<g style="fill:#000000; fill-opacity:0.0; 
stroke:#000000; stroke-width:59.0551; stroke-opacity:1; 
stroke-linecap:round; stroke-linejoin:round;">
<path d="M69685 71459
L112205 71459
" />
</g>
<g style="fill:#000000; fill-opacity:0.0; 
stroke:#000000; stroke-width:39.3701; stroke-opacity:1; 
stroke-linecap:round; stroke-linejoin:round;">
</g>
<g style="fill:#000000; fill-opacity:0.0; 
stroke:#000000; stroke-width:59.0551; stroke-opacity:1; 
stroke-linecap:round; stroke-linejoin:round;">
<text x="70079.6" y="72345.4"
textLength="3236.78" font-size="787.402" lengthAdjust="spacingAndGlyphs"
text-anchor="start" opacity="0">Sheet: </text>
<path d="M70221 72289
L70305 72317
L70446 72317
L70502 72289
L70530 72260
L70559 72204
L70559 72148
L70530 72092
L70502 72064
L70446 72036
L70334 72007
L70277 71979
L70249 71951
L70221 71895
L70221 71839
L70249 71782
L70277 71754
L70334 71726
L70474 71726
L70559 71754
" />
<path d="M70812 72317
L70812 71726
" />
<path d="M71065 72317
L71065 72007
L71037 71951
L70980 71923
L70896 71923
L70840 71951
L70812 71979
" />
<path d="M71571 72289
L71515 72317
L71402 72317
L71346 72289
L71318 72232
L71318 72007
L71346 71951
L71402 71923
L71515 71923
L71571 71951
L71599 72007
L71599 72064
L71318 72120
" />
<path d="M72077 72289
L72021 72317
L71908 72317
L71852 72289
L71824 72232
L71824 72007
L71852 71951
L71908 71923
L72021 71923
L72077 71951
L72105 72007
L72105 72064
L71824 72120
" />
<path d="M72274 71923
L72499 71923
" />
<path d="M72358 71726
L72358 72232
L72386 72289
L72443 72317
L72499 72317
" />
<path d="M72696 72260
L72724 72289
L72696 72317
L72668 72289
L72696 72260
L72696 72317
" />
<path d="M72696 71951
L72724 71979
L72696 72007
L72668 71979
L72696 71951
L72696 72007
" />
</g>
<g style="fill:#000000; fill-opacity:0.0; 
stroke:#000000; stroke-width:39.3701; stroke-opacity:1; 
stroke-linecap:round; stroke-linejoin:round;">
</g>
<g style="fill:#000000; fill-opacity:0.0; 
stroke:#000000; stroke-width:59.0551; stroke-opacity:1; 
stroke-linecap:round; stroke-linejoin:round;">
<path d="M77559 75396
L77559 76577
" />
</g>
<g style="fill:#000000; fill-opacity:0.0; 
stroke:#000000; stroke-width:39.3701; stroke-opacity:1; 
stroke-linecap:round; stroke-linejoin:round;">
</g>
<g style="fill:#000000; fill-opacity:0.0; 
stroke:#000000; stroke-width:59.0551; stroke-opacity:1; 
stroke-linecap:round; stroke-linejoin:round;">
<path d="M102756 75396
L102756 77955
" />
</g>
<g style="fill:#000000; fill-opacity:0.0; 
stroke:#000000; stroke-width:19.685; stroke-opacity:1; 
stroke-linecap:round; stroke-linejoin:round;">
<path d="M48031 49606
L39370 49606
" />
<path d="M39370.1 37795.3 A1574.8 1574.8 0.0 0 0 37795.3 39370.1" />
<path d="M37795.3 48031.5 A1574.8 1574.8 0.0 0 0 39370.1 49606.3" />
<path d="M48031.5 49606.3 A1574.8 1574.8 0.0 0 0 49606.3 48031.5" />
<path d="M49606.3 39370.1 A1574.8 1574.8 0.0 0 0 48031.5 37795.3" />
<path d="M39370 37795
L48031 37795
" />
<path d="M37795 39370
L37795 48031
" />
<path d="M49606 39370
L49606 48031
" />
</g>
<g style="fill:#000000; fill-opacity:0.0; 
stroke:#000000; stroke-width:39.3701; stroke-opacity:1; 
stroke-linecap:round; stroke-linejoin:round;">
<path d="M45834 43326
L45834 44468
" />
<path d="M45834 44468
L43905 44468
" />
<path d="M43905 44468
L43905 42933
" />
<path d="M43905 42933
L45440 42933
" />
<path d="M45440 42933
L45834 43326
" />
<path d="M47781 42700
L48531 42700
" />
<path d="M48531 42700
L48531 44700
" />
<path d="M48531 44700
L47531 44700
" />
<path d="M47531 44700
L47531 42950
" />
<path d="M47531 42950
L47781 42700
" />
<path d="M42334 43326
L42334 44468
" />
<path d="M42334 44468
L40405 44468
" />
<path d="M40405 44468
L40405 42933
" />
<path d="M40405 42933
L41940 42933
" />
<path d="M41940 42933
L42334 43326
" />
<path d="M39120 41700
L39870 41700
" />
<path d="M39870 41700
L39870 45700
" />
<path d="M39870 45700
L38870 45700
" />
<path d="M38870 45700
L38870 41950
" />
<path d="M38870 41950
L39120 41700
" />
<path d="M45476 48437
L45476 47964
" />
<path d="M45476 47964
L46263 47964
" />
<path d="M46263 47964
L46263 48437
" />
<path d="M46263 48437
L45476 48437
" />
<path d="M41763 45964
L41763 46437
" />
<path d="M41763 46437
L40976 46437
" />
<path d="M40976 46437
L40976 45964
" />
<path d="M40976 45964
L41763 45964
" />
<path d="M43356 44185
L42883 44185
" />
<path d="M42883 44185
L42883 43397
" />
<path d="M42883 43397
L43356 43397
" />
<path d="M43356 43397
L43356 44185
" />
<path d="M41763 40964
L41763 41437
" />
<path d="M41763 41437
L40976 41437
" />
<path d="M40976 41437
L40976 40964
" />
<path d="M40976 40964
L41763 40964
" />
<path d="M45968 46200
L46165 46200
" />
<path d="M45968 46358
L45732 46200
" />
<path d="M45968 46043
L45968 46358
" />
<path d="M45732 46200
L45968 46043
" />
<path d="M45732 46200
L45732 46417
" />
<path d="M45732 46200
L45732 45984
" />
<path d="M45574 46200
L45732 46200
" />
<path d="M45318 46555
L45318 45846
" />
<path d="M46421 46555
L45318 46555
" />
<path d="M46421 45846
L46421 46555
" />
<path d="M45318 45846
L46421 45846
" />
<path d="M47763 40964
L47763 41437
" />
<path d="M47763 41437
L46976 41437
" />
<path d="M46976 41437
L46976 40964
" />
<path d="M46976 40964
L47763 40964
" />
<path d="M44976 41437
L44976 40964
" />
<path d="M44976 40964
L45763 40964
" />
<path d="M45763 40964
L45763 41437
" />
<path d="M45763 41437
L44976 41437
" />
<path d="M43763 40964
L43763 41437
" />
<path d="M43763 41437
L42976 41437
" />
<path d="M42976 41437
L42976 40964
" />
<path d="M42976 40964
L43763 40964
" />
<path d="M44013 45964
L44013 46437
" />
<path d="M44013 46437
L43226 46437
" />
<path d="M43226 46437
L43226 45964
" />
<path d="M43226 45964
L44013 45964
" />
<path d="M46856 44185
L46383 44185
" />
<path d="M46383 44185
L46383 43397
" />
<path d="M46383 43397
L46856 43397
" />
<path d="M46856 43397
L46856 44185
" />
<path d="M45476 47437
L45476 46964
" />
<path d="M45476 46964
L46263 46964
" />
<path d="M46263 46964
L46263 47437
" />
<path d="M46263 47437
L45476 47437
" />
<path d="M43895 48074
L43895 47110
" />
<path d="M43679 48299
L43344 48299
" />
<path d="M43895 48074
L43679 48299
" />
<path d="M43344 48299
L43344 47102
" />
<path d="M43895 47102
L43344 47102
" />
<path d="M40976 39437
L40976 38964
" />
<path d="M40976 38964
L41763 38964
" />
<path d="M41763 38964
L41763 39437
" />
<path d="M41763 39437
L40976 39437
" />
<path d="M41763 46964
L41763 47437
" />
<path d="M41763 47437
L40976 47437
" />
<path d="M40976 47437
L40976 46964
" />
<path d="M40976 46964
L41763 46964
" />
<path d="M41763 39964
L41763 40437
" />
<path d="M41763 40437
L40976 40437
" />
<path d="M40976 40437
L40976 39964
" />
<path d="M40976 39964
L41763 39964
" />
<path d="M42700 39620
L42700 38870
" />
<path d="M42700 38870
L44700 38870
" />
<path d="M44700 38870
L44700 39870
" />
<path d="M44700 39870
L42950 39870
" />
<path d="M42950 39870
L42700 39620
" />
<circle cx="45996.1" cy="39370.1" r="590.551" /> 
<path d="M46586 39829
L46586 38910
" />
<path d="M46586.8 38911.2 A748.031 748.031 0.0 1 0 46586.6 39829.2" />
<g >
</g>
<g >
</g>
<g >
</g>
<g >
</g>
<g >
</g>
<g >
</g>
<g >
</g>
<g >
</g>
<g >
</g>
<g >
</g>
<g >
</g>
<g >
</g>
<g >
</g>
<g >
</g>
<g >
</g>
<g >
</g>
<g >
</g>
<g >
</g>
<g >
</g>
<g >
</g>
<g >
</g>
<g >
</g>
<g >
</g>
<g >
</g>
<g >
</g>
<g >
</g>
</g>
<g style="fill:#000000; fill-opacity:0.0; 
stroke:#000000; stroke-width:39.3701; stroke-opacity:1; 
stroke-linecap:round; stroke-linejoin:round;">
</g>
<g style="fill:#000000; fill-opacity:0.0; 
stroke:#000000; stroke-width:59.0551; stroke-opacity:1; 
stroke-linecap:round; stroke-linejoin:round;">
<text x="44870.1" y="43897.6"
textLength="846.457" font-size="524.934" lengthAdjust="spacingAndGlyphs"
text-anchor="middle" opacity="0">U2</text>
<path d="M44570 43485
L44570 43803
L44588 43841
L44607 43860
L44645 43878
L44720 43878
L44757 43860
L44776 43841
L44795 43803
L44795 43485
" />
<path d="M44963 43522
L44982 43503
L45020 43485
L45113 43485
L45151 43503
L45170 43522
L45188 43560
L45188 43597
L45170 43653
L44945 43878
L45188 43878
" />
<g transform="rotate(-90 48031.5 43700.8)">
<text x="48031.5" y="43897.6"
textLength="751.687" font-size="524.934" lengthAdjust="spacingAndGlyphs"
text-anchor="middle" opacity="0">J3</text>
</g>
<path d="M47815 43832
L48097 43832
L48153 43850
L48190 43888
L48209 43944
L48209 43982
" />
<path d="M47815 43682
L47815 43438
L47965 43569
L47965 43513
L47984 43475
L48003 43457
L48040 43438
L48134 43438
L48172 43457
L48190 43475
L48209 43513
L48209 43625
L48190 43663
L48172 43682
" />
<text x="41370.1" y="43897.6"
textLength="864.173" font-size="524.934" lengthAdjust="spacingAndGlyphs"
text-anchor="middle" opacity="0">U1</text>
<path d="M41070 43485
L41070 43803
L41088 43841
L41107 43860
L41145 43878
L41220 43878
L41257 43860
L41276 43841
L41295 43803
L41295 43485
" />
<path d="M41688 43878
L41463 43878
" />
<path d="M41576 43878
L41576 43485
L41538 43541
L41501 43578
L41463 43597
" />
<g transform="rotate(-90 39370.1 43700.8)">
<text x="39370.1" y="43897.6"
textLength="751.687" font-size="524.934" lengthAdjust="spacingAndGlyphs"
text-anchor="middle" opacity="0">J2</text>
</g>
<path d="M39154 43832
L39435 43832
L39491 43850
L39529 43888
L39548 43944
L39548 43982
" />
<path d="M39191 43663
L39173 43644
L39154 43607
L39154 43513
L39173 43475
L39191 43457
L39229 43438
L39266 43438
L39323 43457
L39548 43682
L39548 43438
" />
</g>
<g style="fill:#000000; fill-opacity:0.0; 
stroke:#000000; stroke-width:31.4961; stroke-opacity:1; 
stroke-linecap:round; stroke-linejoin:round;">
<text x="45870.1" y="48299.2"
textLength="461.098" font-size="262.467" lengthAdjust="spacingAndGlyphs"
text-anchor="middle" opacity="0">R2</text>
<path d="M45837 48289
L45771 48196
" />
<path d="M45724 48289
L45724 48092
L45799 48092
L45818 48102
L45827 48111
L45837 48130
L45837 48158
L45827 48177
L45818 48186
L45799 48196
L45724 48196
" />
<path d="M45912 48111
L45921 48102
L45940 48092
L45987 48092
L46005 48102
L46015 48111
L46024 48130
L46024 48149
L46015 48177
L45902 48289
L46024 48289
" />
<text x="41370.1" y="46299.2"
textLength="425.272" font-size="262.467" lengthAdjust="spacingAndGlyphs"
text-anchor="middle" opacity="0">R5</text>
<path d="M41337 46289
L41271 46196
" />
<path d="M41224 46289
L41224 46092
L41299 46092
L41318 46102
L41327 46111
L41337 46130
L41337 46158
L41327 46177
L41318 46186
L41299 46196
L41224 46196
" />
<path d="M41515 46092
L41421 46092
L41412 46186
L41421 46177
L41440 46167
L41487 46167
L41505 46177
L41515 46186
L41524 46205
L41524 46252
L41515 46271
L41505 46280
L41487 46289
L41440 46289
L41421 46280
L41412 46271
" />
<g transform="rotate(-90 43131.5 43800.8)">
<text x="43131.5" y="43899.2"
textLength="425.272" font-size="262.467" lengthAdjust="spacingAndGlyphs"
text-anchor="middle" opacity="0">C1</text>
</g>
<path d="M43201 43833
L43211 43842
L43220 43871
L43220 43889
L43211 43917
L43192 43936
L43173 43946
L43136 43955
L43108 43955
L43070 43946
L43051 43936
L43033 43917
L43023 43889
L43023 43871
L43033 43842
L43042 43833
" />
<path d="M43220 43646
L43220 43758
" />
<path d="M43220 43702
L43023 43702
L43051 43721
L43070 43739
L43079 43758
" />
<text x="41370.1" y="41299.2"
textLength="425.272" font-size="262.467" lengthAdjust="spacingAndGlyphs"
text-anchor="middle" opacity="0">R4</text>
<path d="M41337 41289
L41271 41196
" />
<path d="M41224 41289
L41224 41092
L41299 41092
L41318 41102
L41327 41111
L41337 41130
L41337 41158
L41327 41177
L41318 41186
L41299 41196
L41224 41196
" />
<path d="M41505 41158
L41505 41289
" />
<path d="M41459 41083
L41412 41224
L41534 41224
" />
</g>
<g style="fill:#000000; fill-opacity:0.0; 
stroke:#000000; stroke-width:59.0551; stroke-opacity:1; 
stroke-linecap:round; stroke-linejoin:round;">
<text x="45331.5" y="45697.6"
textLength="809.599" font-size="524.934" lengthAdjust="spacingAndGlyphs"
text-anchor="middle" opacity="0">D1</text>
<path d="M45040 45678
L45040 45285
L45134 45285
L45190 45303
L45228 45341
L45247 45378
L45265 45453
L45265 45510
L45247 45585
L45228 45622
L45190 45660
L45134 45678
L45040 45678
" />
<path d="M45640 45678
L45415 45678
" />
<path d="M45528 45678
L45528 45285
L45490 45341
L45453 45378
L45415 45397
" />
</g>
<g style="fill:#000000; fill-opacity:0.0; 
stroke:#000000; stroke-width:31.4961; stroke-opacity:1; 
stroke-linecap:round; stroke-linejoin:round;">
<text x="47370.1" y="41299.2"
textLength="648.575" font-size="262.467" lengthAdjust="spacingAndGlyphs"
text-anchor="middle" opacity="0">R10</text>
<path d="M47243 41289
L47177 41196
" />
<path d="M47131 41289
L47131 41092
L47206 41092
L47224 41102
L47234 41111
L47243 41130
L47243 41158
L47234 41177
L47224 41186
L47206 41196
L47131 41196
" />
<path d="M47431 41289
L47318 41289
" />
<path d="M47374 41289
L47374 41092
L47356 41121
L47337 41139
L47318 41149
" />
<path d="M47552 41092
L47571 41092
L47590 41102
L47599 41111
L47609 41130
L47618 41167
L47618 41214
L47609 41252
L47599 41271
L47590 41280
L47571 41289
L47552 41289
L47534 41280
L47524 41271
L47515 41252
L47505 41214
L47505 41167
L47515 41130
L47524 41111
L47534 41102
L47552 41092
" />
<text x="45370.1" y="41299.2"
textLength="425.272" font-size="262.467" lengthAdjust="spacingAndGlyphs"
text-anchor="middle" opacity="0">R9</text>
<path d="M45337 41289
L45271 41196
" />
<path d="M45224 41289
L45224 41092
L45299 41092
L45318 41102
L45327 41111
L45337 41130
L45337 41158
L45327 41177
L45318 41186
L45299 41196
L45224 41196
" />
<path d="M45431 41289
L45468 41289
L45487 41280
L45496 41271
L45515 41242
L45524 41205
L45524 41130
L45515 41111
L45505 41102
L45487 41092
L45449 41092
L45431 41102
L45421 41111
L45412 41130
L45412 41177
L45421 41196
L45431 41205
L45449 41214
L45487 41214
L45505 41205
L45515 41196
L45524 41177
" />
<text x="43370.1" y="41299.2"
textLength="425.272" font-size="262.467" lengthAdjust="spacingAndGlyphs"
text-anchor="middle" opacity="0">R7</text>
<path d="M43337 41289
L43271 41196
" />
<path d="M43224 41289
L43224 41092
L43299 41092
L43318 41102
L43327 41111
L43337 41130
L43337 41158
L43327 41177
L43318 41186
L43299 41196
L43224 41196
" />
<path d="M43402 41092
L43534 41092
L43449 41289
" />
<text x="43620.1" y="46299.2"
textLength="425.272" font-size="262.467" lengthAdjust="spacingAndGlyphs"
text-anchor="middle" opacity="0">R8</text>
<path d="M43587 46289
L43521 46196
" />
<path d="M43474 46289
L43474 46092
L43549 46092
L43568 46102
L43577 46111
L43587 46130
L43587 46158
L43577 46177
L43568 46186
L43549 46196
L43474 46196
" />
<path d="M43699 46177
L43681 46167
L43671 46158
L43662 46139
L43662 46130
L43671 46111
L43681 46102
L43699 46092
L43737 46092
L43755 46102
L43765 46111
L43774 46130
L43774 46139
L43765 46158
L43755 46167
L43737 46177
L43699 46177
L43681 46186
L43671 46196
L43662 46214
L43662 46252
L43671 46271
L43681 46280
L43699 46289
L43737 46289
L43755 46280
L43765 46271
L43774 46252
L43774 46214
L43765 46196
L43755 46186
L43737 46177
" />
<g transform="rotate(-90 46620.1 43791.3)">
<text x="46620.1" y="43889.8"
textLength="425.272" font-size="262.467" lengthAdjust="spacingAndGlyphs"
text-anchor="middle" opacity="0">C2</text>
</g>
<path d="M46690 43824
L46699 43833
L46709 43861
L46709 43880
L46699 43908
L46681 43927
L46662 43936
L46624 43946
L46596 43946
L46559 43936
L46540 43927
L46521 43908
L46512 43880
L46512 43861
L46521 43833
L46531 43824
" />
<path d="M46531 43749
L46521 43739
L46512 43721
L46512 43674
L46521 43655
L46531 43646
L46549 43636
L46568 43636
L46596 43646
L46709 43758
L46709 43636
" />
<text x="45870.1" y="47299.2"
textLength="425.272" font-size="262.467" lengthAdjust="spacingAndGlyphs"
text-anchor="middle" opacity="0">R6</text>
<path d="M45837 47289
L45771 47196
" />
<path d="M45724 47289
L45724 47092
L45799 47092
L45818 47102
L45827 47111
L45837 47130
L45837 47158
L45827 47177
L45818 47186
L45799 47196
L45724 47196
" />
<path d="M46005 47092
L45968 47092
L45949 47102
L45940 47111
L45921 47139
L45912 47177
L45912 47252
L45921 47271
L45931 47280
L45949 47289
L45987 47289
L46005 47280
L46015 47271
L46024 47252
L46024 47205
L46015 47186
L46005 47177
L45987 47167
L45949 47167
L45931 47177
L45921 47186
L45912 47205
" />
</g>
<g style="fill:#000000; fill-opacity:0.0; 
stroke:#000000; stroke-width:29.5276; stroke-opacity:1; 
stroke-linecap:round; stroke-linejoin:round;">
<g transform="rotate(-90 43620.1 47700.8)">
<text x="43620.1" y="47799.2"
textLength="434.646" font-size="262.467" lengthAdjust="spacingAndGlyphs"
text-anchor="middle" opacity="0">Q1</text>
</g>
<path d="M43727 47719
L43718 47738
L43699 47757
L43671 47785
L43662 47803
L43662 47822
" />
<path d="M43709 47813
L43699 47832
L43681 47850
L43643 47860
L43577 47860
L43540 47850
L43521 47832
L43512 47813
L43512 47775
L43521 47757
L43540 47738
L43577 47728
L43643 47728
L43681 47738
L43699 47757
L43709 47775
L43709 47813
" />
<path d="M43709 47541
L43709 47653
" />
<path d="M43709 47597
L43512 47597
L43540 47616
L43559 47635
L43568 47653
" />
</g>
<g style="fill:#000000; fill-opacity:0.0; 
stroke:#000000; stroke-width:59.0551; stroke-opacity:1; 
stroke-linecap:round; stroke-linejoin:round;">
<text x="39488.2" y="48228.3"
textLength="825.787" font-size="524.934" lengthAdjust="spacingAndGlyphs"
text-anchor="middle" opacity="0">H4</text>
<path d="M39188 48209
L39188 47815
" />
<path d="M39188 48003
L39413 48003
" />
<path d="M39413 48209
L39413 47815
" />
<path d="M39769 47947
L39769 48209
" />
<path d="M39675 47797
L39581 48078
L39825 48078
" />
<text x="48149.6" y="48228.3"
textLength="864.173" font-size="524.934" lengthAdjust="spacingAndGlyphs"
text-anchor="middle" opacity="0">H3</text>
<path d="M47849 48209
L47849 47815
" />
<path d="M47849 48003
L48074 48003
" />
<path d="M48074 48209
L48074 47815
" />
<path d="M48224 47815
L48468 47815
L48337 47965
L48393 47965
L48430 47984
L48449 48003
L48468 48040
L48468 48134
L48449 48172
L48430 48190
L48393 48209
L48280 48209
L48243 48190
L48224 48172
" />
<text x="48149.6" y="39566.9"
textLength="864.173" font-size="524.934" lengthAdjust="spacingAndGlyphs"
text-anchor="middle" opacity="0">H2</text>
<path d="M47849 39548
L47849 39154
" />
<path d="M47849 39341
L48074 39341
" />
<path d="M48074 39548
L48074 39154
" />
<path d="M48243 39191
L48262 39173
L48299 39154
L48393 39154
L48430 39173
L48449 39191
L48468 39229
L48468 39266
L48449 39323
L48224 39548
L48468 39548
" />
<text x="39488.2" y="39566.9"
textLength="864.173" font-size="524.934" lengthAdjust="spacingAndGlyphs"
text-anchor="middle" opacity="0">H1</text>
<path d="M39188 39548
L39188 39154
" />
<path d="M39188 39341
L39413 39341
" />
<path d="M39413 39548
L39413 39154
" />
<path d="M39806 39548
L39581 39548
" />
<path d="M39694 39548
L39694 39154
L39656 39210
L39619 39248
L39581 39266
" />
</g>
<g style="fill:#000000; fill-opacity:0.0; 
stroke:#000000; stroke-width:31.4961; stroke-opacity:1; 
stroke-linecap:round; stroke-linejoin:round;">
<text x="41370.1" y="39299.2"
textLength="648.575" font-size="262.467" lengthAdjust="spacingAndGlyphs"
text-anchor="middle" opacity="0">R11</text>
<path d="M41243 39289
L41177 39196
" />
<path d="M41131 39289
L41131 39092
L41206 39092
L41224 39102
L41234 39111
L41243 39130
L41243 39158
L41234 39177
L41224 39186
L41206 39196
L41131 39196
" />
<path d="M41431 39289
L41318 39289
" />
<path d="M41374 39289
L41374 39092
L41356 39121
L41337 39139
L41318 39149
" />
<path d="M41618 39289
L41505 39289
" />
<path d="M41562 39289
L41562 39092
L41543 39121
L41524 39139
L41505 39149
" />
<text x="41370.1" y="47299.2"
textLength="425.272" font-size="262.467" lengthAdjust="spacingAndGlyphs"
text-anchor="middle" opacity="0">R3</text>
<path d="M41337 47289
L41271 47196
" />
<path d="M41224 47289
L41224 47092
L41299 47092
L41318 47102
L41327 47111
L41337 47130
L41337 47158
L41327 47177
L41318 47186
L41299 47196
L41224 47196
" />
<path d="M41402 47092
L41524 47092
L41459 47167
L41487 47167
L41505 47177
L41515 47186
L41524 47205
L41524 47252
L41515 47271
L41505 47280
L41487 47289
L41431 47289
L41412 47280
L41402 47271
" />
<text x="41370.1" y="40299.2"
textLength="425.272" font-size="262.467" lengthAdjust="spacingAndGlyphs"
text-anchor="middle" opacity="0">R1</text>
<path d="M41337 40289
L41271 40196
" />
<path d="M41224 40289
L41224 40092
L41299 40092
L41318 40102
L41327 40111
L41337 40130
L41337 40158
L41327 40177
L41318 40186
L41299 40196
L41224 40196
" />
<path d="M41524 40289
L41412 40289
" />
<path d="M41468 40289
L41468 40092
L41449 40121
L41431 40139
L41412 40149
" />
</g>
<g style="fill:#000000; fill-opacity:0.0; 
stroke:#000000; stroke-width:59.0551; stroke-opacity:1; 
stroke-linecap:round; stroke-linejoin:round;">
<text x="43700.8" y="39566.9"
textLength="715.861" font-size="524.934" lengthAdjust="spacingAndGlyphs"
text-anchor="middle" opacity="0">J1</text>
<path d="M43569 39154
L43569 39435
L43550 39491
L43513 39529
L43457 39548
L43419 39548
" />
<path d="M43963 39548
L43738 39548
" />
<path d="M43850 39548
L43850 39154
L43813 39210
L43775 39248
L43738 39266
" />
<g >
</g>
</g> 
</svg>
